<?xml version="1.0" standalone="no"?>
<!DOCTYPE svg PUBLIC "-//W3C//DTD SVG 1.1//EN" "http://www.w3.org/Graphics/SVG/1.1/DTD/svg11.dtd" >
<svg>
<metadata>
Created by FontForge 20120731 at Wed Aug  3 11:12:57 2016
 By www
Generated in 2011 by FontLab Studio. Copyright info pending.
</metadata>
<defs>
<font id="BelindaW00-Regular" horiz-adv-x="435" >
  <font-face 
    font-family="BelindaW00-Regular"
    font-weight="400"
    font-stretch="normal"
    units-per-em="1000"
    panose-1="2 0 0 0 0 0 0 0 0 0"
    ascent="800"
    descent="-200"
    x-height="423.5"
    cap-height="764"
    bbox="-249.087 -399.529 1455.18 1206.1"
    underline-thickness="50"
    underline-position="-125"
    unicode-range="U+000D-FB04"
  />
<missing-glyph horiz-adv-x="273" 
 />
    <glyph glyph-name=".notdef" horiz-adv-x="273" 
 />
    <glyph glyph-name="glyph1" horiz-adv-x="0" 
 />
    <glyph glyph-name="glyph1" horiz-adv-x="0" 
 />
    <glyph glyph-name="uni000D" unicode="&#xd;" horiz-adv-x="331" 
 />
    <glyph glyph-name="space" unicode=" " horiz-adv-x="331" 
 />
    <glyph glyph-name="exclam" unicode="!" horiz-adv-x="370" 
d="M475 708q5 9 21.5 2t31.5 -23.5t22 -38.5t-6 -43q-45 -74 -86 -138t-81.5 -125t-81 -122.5t-85.5 -130.5q-6 -9 -20 -3.5t-26.5 20t-18 35t7.5 40.5zM56 -85q-18 12 -20.5 36.5t12.5 47.5q14 23 37.5 30.5t42.5 -4.5q18 -11 20.5 -35.5t-12.5 -47.5t-38.5 -30.5
t-41.5 3.5z" />
    <glyph glyph-name="quotedbl" unicode="&#x22;" horiz-adv-x="407" 
d="M284 559q-7 -9 -19 -14.5t-23 -6t-17 4t0 13.5q17 28 33.5 56.5t35.5 54.5q7 10 20 14t24.5 2.5t18 -6.5t1.5 -12q-9 -13 -20 -29t-21.5 -31t-19 -27.5t-13.5 -18.5zM369 548q-8 -8 -20.5 -11.5t-23.5 -3t-16.5 5.5t1.5 13q20 26 40.5 52t42.5 50q9 9 22 11t24 -0.5
t17 -8.5t0 -12q-11 -12 -24 -26.5t-25 -28t-22 -24.5t-16 -17z" />
    <glyph glyph-name="numbersign" unicode="#" horiz-adv-x="730" 
d="M641 387q10 1 26 -8t28.5 -20t17 -20.5t-8.5 -10.5q-80 -8 -159 -12q-17 -27 -33.5 -55.5t-33.5 -57.5q13 1 25.5 2t24.5 2q10 1 26 -8t29 -20t17.5 -20.5t-8.5 -10.5q-77 -8 -153 -12q-18 -32 -34 -60t-29 -51.5t-22 -40t-13 -23.5q-3 -7 -12 -2t-17.5 15.5t-14.5 23.5
t-3 21q5 14 20 43t37 67q-29 -2 -59 -5t-59 -5q-34 -59 -58.5 -103t-31.5 -59q-3 -7 -12 -2t-18 15.5t-15 23.5t-3 21q5 13 18 38t31 58q-8 -2 -16.5 -2.5t-16.5 -1.5q-10 -1 -26 7.5t-29 19.5t-18 20.5t9 11.5q35 4 68.5 7.5t68.5 6.5q16 27 33 55.5t34 57.5q-11 -1 -21 -2
t-21 -2q-10 -1 -26 7.5t-29 19.5t-18 20.5t9 11.5q37 4 73.5 7.5t73.5 6.5q36 61 65 108.5t40 65.5q5 8 14.5 2.5t18.5 -16.5t14 -24t1 -20q-8 -13 -25.5 -42t-40.5 -68q29 2 59 4t59 4q35 57 61.5 102t37.5 62q4 8 14 2.5t18.5 -16.5t13.5 -24t1 -20q-7 -12 -22.5 -38.5
t-36.5 -61.5q14 2 28.5 2.5t28.5 2.5zM390 196q16 28 33 56.5t34 57.5l-117 -9q-17 -28 -33.5 -56.5t-33.5 -57.5z" />
    <glyph glyph-name="dollar" unicode="$" horiz-adv-x="472" 
d="M537 729q4 7 13.5 3t18 -13.5t13 -21.5t0.5 -22q-11 -21 -24.5 -44.5t-24.5 -43.5q11 -7 21 -18t18 -27q11 -23 7.5 -52t-17.5 -60t-38 -61.5t-53.5 -56t-64 -44.5t-69.5 -26q-18 -4 -37.5 -0.5t-33 10t-19 13t5.5 8.5q37 7 72 23.5t65 40.5t54.5 54t41.5 63
q3 6 9.5 18.5t12.5 27t8.5 28t-3.5 19.5q-2 3 -8 5.5t-17 1t-28 -7.5t-42 -21q-19 -11 -42 -28.5t-46.5 -40t-45 -48t-36 -52.5t-21 -53.5t0.5 -51.5q6 -22 22 -35t38.5 -22t48.5 -17.5t50 -22.5q23 -13 27.5 -33t-1.5 -37q-7 -20 -22.5 -31.5t-36 -16t-45 -3t-50.5 7.5
q-20 -38 -36.5 -67.5t-29.5 -54.5q-4 -6 -14.5 -3t-20.5 11.5t-15.5 21t0.5 24.5q8 14 21.5 41t24.5 48q-28 11 -51.5 23.5t-38.5 24.5q-5 3 0 8t14 8.5t19.5 4.5t18.5 -3q16 -9 46 -22.5t61.5 -21.5t57 -6t33.5 23q4 9 -4.5 16.5t-22 13.5t-27.5 10.5t-22 7.5
q-32 14 -63 37.5t-48 58.5q-12 24 -8.5 52.5t16.5 57.5t33.5 57t43 53t44.5 44t38 30q31 20 68 37t72 21l68 132v0z" />
    <glyph glyph-name="percent" unicode="%" horiz-adv-x="815" 
d="M690 261q27 -21 39.5 -48t13 -58t-9 -64.5t-27.5 -67.5q-18 -31 -42.5 -57t-51.5 -40t-56 -13.5t-57 21.5q-26 20 -39 47.5t-14.5 59t7.5 65.5t29 67q19 30 43.5 55.5t52 40t56.5 14t56 -21.5zM629 76q13 21 24 44t18.5 44t9 36.5t-5.5 20.5t-20.5 -2t-29.5 -21t-32 -33
t-28 -38q-12 -21 -24 -46t-20 -48t-10.5 -40t3.5 -21q8 -5 22 2t30.5 22t33 36t29.5 44zM674 713q7 9 17.5 1.5t19.5 -22.5t13.5 -31.5t-1.5 -24.5q-10 -14 -34 -49t-57 -83t-71.5 -105t-79 -116.5t-79 -117t-71.5 -106t-57 -84t-34 -51.5q-9 -13 -19 -6.5t-18 22t-12 34
t0 28.5q7 14 26 45t46.5 73t61.5 92t70.5 103t73.5 106.5t71 101.5q-59 -7 -99 19q-5 -54 -35 -112q-19 -31 -43.5 -56.5t-52 -40t-56.5 -14t-56 21.5q-26 19 -39 47t-14.5 59.5t8 65.5t29.5 66q19 31 43 57t51.5 40t56 13.5t56.5 -21.5q15 -11 23.5 -23t18.5 -30
q22 -30 54 -30.5t66.5 17.5t67 48.5t55.5 62.5zM329 483q12 21 23 44t18 44t9 36t-4 20q-7 5 -21 -1.5t-29.5 -20.5t-31.5 -33t-28 -38q-13 -21 -25 -46.5t-20 -48t-10.5 -39.5t3.5 -21q7 -5 21 2.5t30.5 22.5t33.5 35.5t31 43.5z" />
    <glyph glyph-name="ampersand" unicode="&#x26;" horiz-adv-x="753" 
d="M680 -8q9 -13 6 -29t-11.5 -28.5t-19 -18.5t-16.5 2q-15 19 -31 39.5t-33 42.5q-34 -30 -80 -52q-44 -20 -88.5 -31t-87 -9t-82.5 18.5t-75 52.5q-36 36 -49.5 74.5t-8.5 76t26.5 73t55.5 66.5q32 30 75 52.5t89 41.5q-13 27 -24 59q-22 63 -15.5 123t42.5 105
q19 23 41 36.5t46.5 20t51.5 8.5t56 2q25 0 43.5 -9.5t29 -20.5t12 -20.5t-7.5 -10.5q-39 -4 -72 -10t-59.5 -18.5t-47 -35t-33.5 -59.5q-11 -30 -7 -65.5t18 -75.5q45 19 82.5 41.5t60.5 51t28.5 64.5t-12.5 82q-3 7 9.5 7.5t29 -7t32.5 -22t22 -36.5q16 -61 2 -101.5
t-47 -69t-78.5 -48.5t-92.5 -40q23 -42 50 -84t56 -82q17 35 17.5 73t-19.5 79q-6 12 4.5 13t26.5 -4.5t31.5 -15t19.5 -18.5q29 -56 22 -111t-38 -102q14 -20 27 -37.5t23 -32.5zM443 18q20 13 39 28t36 32q-35 49 -67.5 100t-60.5 104q-69 -35 -111.5 -72t-62.5 -72
t-20 -67.5t17 -58.5q18 -29 47.5 -37t62 -3.5t64.5 18t56 28.5z" />
    <glyph glyph-name="quotesingle" unicode="'" horiz-adv-x="365" 
d="M306 559q-7 -9 -19 -14.5t-23 -6t-17 4t0 13.5q17 28 33.5 56.5t35.5 54.5q7 10 20 14t24.5 2.5t18 -6.5t1.5 -12q-9 -13 -20 -29t-21.5 -31t-19 -27.5t-13.5 -18.5z" />
    <glyph glyph-name="parenleft" unicode="(" horiz-adv-x="277" 
d="M583 705q-66 -28 -128.5 -74t-118 -105.5t-100.5 -129.5t-75 -146t-42.5 -156t-2.5 -159q1 -14 -11.5 -13.5t-29 8t-31 20t-15.5 23.5q-16 117 10.5 231.5t85.5 216t145 184.5t190 138q21 11 49 9.5t50 -10t31 -19.5t-7 -18z" />
    <glyph glyph-name="parenright" unicode=")" horiz-adv-x="591" 
d="M33 -31q66 28 128.5 74t118 105.5t100.5 129.5t75 146t42.5 156t2.5 159q-2 13 11 13t29.5 -7.5t30.5 -20t16 -23.5q16 -117 -10.5 -231.5t-85.5 -216t-145.5 -184.5t-189.5 -138q-21 -11 -49 -9.5t-50 10t-31.5 19.5t7.5 18z" />
    <glyph glyph-name="asterisk" unicode="*" horiz-adv-x="386" 
d="M418 666q6 0 6 -7t-3 -15.5t-8 -16t-10 -7.5q-11 -1 -30 -1.5t-42 -2.5q14 -25 26 -46.5t20 -33.5q3 -5 -3 -9t-15 -5.5t-18 -0.5t-12 6q-6 12 -17.5 31.5t-25.5 42.5q-22 -30 -39 -54.5t-24 -35.5q-3 -4 -8 0t-9.5 11.5t-7.5 16t0 13.5q5 10 15 25t23 34
q-25 -2 -44.5 -3.5t-29.5 -3.5q-5 -1 -5.5 5.5t2 15t7 16t10.5 9.5q12 3 32 5t44 4q-15 25 -28 45.5t-20 29.5q-3 4 2.5 7.5t14 5t17.5 1t13 -4.5q8 -9 18 -24.5t22 -34.5q21 28 39.5 51.5t27.5 35.5q3 4 9 0t10.5 -11.5t7 -16t-0.5 -12.5q-8 -10 -21.5 -28t-30.5 -40
q27 1 49.5 1.5t36.5 1.5z" />
    <glyph glyph-name="plus" unicode="+" horiz-adv-x="493" 
d="M374 239q18 1 37 -9.5t32 -23.5t15 -23.5t-13 -10.5l-139 -10q-18 -32 -33.5 -61.5t-25.5 -52.5q-4 -8 -14 -2t-20 18t-16.5 26.5t-3.5 23.5q7 21 18 42l-18 -1q-17 -3 -35.5 6.5t-31 22t-15.5 24t11 13.5q26 4 60.5 6.5t69.5 4.5q18 32 37 62.5t36 58.5q5 9 16 3
t20.5 -18.5t15.5 -27t1 -22.5q-7 -12 -14 -24.5t-15 -25.5h13t12 1z" />
    <glyph glyph-name="comma" unicode="," horiz-adv-x="273" 
d="M143 -51q-5 -2 -14.5 -2.5t-18 0t-12.5 3.5t2 9q9 9 19 20.5t15 22.5q-1 0 -5 2q-20 13 -23 40t14 52q8 13 19 21.5t23 12.5t24 3t22 -8q17 -11 21.5 -32t-3.5 -44q-6 -14 -15.5 -29.5t-20.5 -29.5t-23.5 -25.5t-23.5 -15.5z" />
    <glyph glyph-name="hyphen" unicode="-" horiz-adv-x="445" 
d="M193 155q-17 -3 -35.5 6.5t-31 22t-15.5 24t11 13.5q51 7 102 11t102 6q18 1 37.5 -9.5t32 -23t14.5 -23t-13 -10.5l-204 -17v0z" />
    <glyph glyph-name="period" unicode="." horiz-adv-x="271" 
d="M206 125q20 -13 23 -39.5t-14 -52.5q-16 -25 -42 -33.5t-46 4.5t-23 40t14 52q8 13 19 21.5t23 12.5t24 3t22 -8z" />
    <glyph glyph-name="slash" unicode="/" horiz-adv-x="425" 
d="M568 735q7 9 17.5 1.5t19.5 -22.5t13.5 -31.5t-1.5 -25.5q-10 -15 -34.5 -50t-57.5 -83.5t-72 -106.5t-80 -118t-80.5 -118t-72.5 -107t-57.5 -85t-34.5 -52q-9 -13 -19 -6.5t-18.5 22t-12.5 34t1 28.5q3 7 24.5 40t55 82.5t75 111t85 125.5t86 125.5t77 111.5t57.5 83
t29 41z" />
    <glyph glyph-name="zero" unicode="0" horiz-adv-x="637" 
d="M578 693q47 -18 73 -52t36 -77t6.5 -91.5t-14.5 -95.5t-26.5 -90t-30.5 -74q-17 -33 -40.5 -70t-52.5 -71.5t-63 -64.5t-72 -48.5t-79 -22.5t-85 13q-46 18 -71.5 51.5t-35 76.5t-6.5 92t13.5 96.5t26 90.5t30.5 74q17 35 40.5 73t52 73t62.5 64t72 46.5t79 20.5t85 -14z
M284 379q-36 -78 -55 -145t-23 -117.5t6 -82t32 -38.5q17 -5 50 6.5t74 46t85.5 95t85.5 152.5q35 77 49 139t13.5 107t-11.5 71.5t-26 32.5q-16 6 -49 -6t-72.5 -44.5t-81.5 -86.5t-77 -130z" />
    <glyph glyph-name="one" unicode="1" horiz-adv-x="365" 
d="M572 654q-30 -49 -65.5 -107.5t-74 -121.5t-78 -128t-77.5 -128t-73 -121.5t-65 -107.5q-6 -9 -22 -6t-31.5 12.5t-26 21.5t-5.5 21l308 500q-24 -18 -48 -36.5t-47 -38.5q-8 -6 -24.5 -1t-31 15.5t-22 22t1.5 19.5q75 61 150.5 118.5t150.5 117.5q7 6 22 1.5t29.5 -13.5
t23.5 -20.5t5 -19.5z" />
    <glyph glyph-name="two" unicode="2" horiz-adv-x="620" 
d="M665 375q-55 -87 -125 -152.5t-137 -119.5q-11 -10 -25 -22.5t-31 -26.5q3 -5 5.5 -11t5.5 -13q16 -36 33.5 -43t39 7t49.5 46.5t64 76.5q9 12 20 5t18.5 -22t9 -34t-6.5 -31q-26 -41 -64.5 -67t-79.5 -32t-79.5 11t-63.5 64q-1 0 -1 1q-22 -18 -45.5 -34t-46.5 -27.5
t-45.5 -17.5t-42.5 -3q-27 4 -48.5 19t-33 37t-11.5 47.5t15 50.5q19 31 48.5 53t62.5 32t66 5.5t58 -25.5q3 -3 6 -5.5t5 -4.5q28 22 58 45.5t59 49.5q73 64 125 130.5t80.5 123.5t32.5 99t-18 58q-16 12 -40 5t-49.5 -24t-49.5 -39.5t-40 -41.5q-53 -63 -76 -133.5
t-19 -155.5q0 -13 -13.5 -12t-30 12t-31 29.5t-15.5 39.5q-4 50 6.5 100t33 95.5t56.5 83.5t78 65q27 16 60 29t66 15t64 -9t55 -41q25 -31 35 -66.5t7.5 -72.5t-17 -75t-37.5 -74zM177 52q15 11 29 22.5t28 22.5q-16 10 -36.5 9t-47.5 -20q-43 -30 -53 -51t-5 -27
q4 -5 13.5 -1.5t22 11t25.5 17t24 17.5z" />
    <glyph glyph-name="three" unicode="3" horiz-adv-x="633" 
d="M399 309q-16 -4 -34 4t-31.5 20.5t-18 24.5t6.5 16q87 30 145.5 70t91.5 79t42.5 71.5t-2.5 47.5t-39.5 12t-58.5 -21t-60.5 -50.5t-44.5 -76.5q-3 -9 -17.5 -3.5t-29 19t-23 32t1.5 36.5q18 32 47 58t63 42t71 21t70.5 -3.5t61 -32.5t42.5 -66q12 -35 6 -68t-38 -70
q-42 -48 -83 -72t-77 -40q85 -25 112 -132q12 -49 -13 -110.5t-102 -127.5q-34 -29 -78 -49t-92 -27.5t-98.5 0t-96.5 33.5q-23 13 -38 33t-17 49q-4 44 12.5 81t45 65t65 46.5t73.5 26.5q25 5 46.5 -1t36 -16t20 -19.5t-2.5 -11.5q-72 -20 -116 -52.5t-67 -66t-27 -61.5
t5 -39q11 -12 38 -12t61.5 10.5t73 30.5t73.5 47q32 25 57.5 55.5t40 61.5t15.5 61t-16 55q-12 17 -37 23.5t-66 -3.5z" />
    <glyph glyph-name="four" unicode="4" horiz-adv-x="647" 
d="M185 86q-11 -1 -27 8t-30 21t-22.5 24t-3.5 17q66 67 125.5 135.5t116 137.5t111.5 139t111 140q7 9 23 5t31.5 -13.5t25.5 -21.5t4 -19q-102 -127 -203 -255t-213 -246q62 11 122.5 27t120.5 32l153 247q6 9 19 2.5t23.5 -22.5t14 -37.5t-9.5 -42.5q-26 -42 -45.5 -74.5
t-36.5 -60.5q11 -6 21.5 -14t16.5 -15.5t6 -13.5t-10 -8q-19 -4 -37.5 -8t-37.5 -9q-14 -23 -27.5 -45.5t-29.5 -48.5t-34.5 -57t-41.5 -69q-6 -9 -21.5 -6t-31.5 12t-26 21t-5 21l85 138q-59 -15 -118 -24.5t-119 -16.5z" />
    <glyph glyph-name="five" unicode="5" horiz-adv-x="686" 
d="M366 423q32 9 64.5 13.5t63 1.5t58 -15t49.5 -36q38 -40 37.5 -89t-24 -98.5t-61 -96t-74.5 -81.5q-36 -34 -86 -61t-103.5 -36.5t-104.5 4t-89 59.5q-22 27 -25 54t7 53t31 49.5t47.5 42.5t55.5 33t55 21t49.5 2.5t40 -13.5t22.5 -18.5t-4 -10.5q-26 -4 -55 -16.5
t-55.5 -31t-49.5 -41t-36.5 -45t-16.5 -44t10 -37.5q13 -17 41 -10t61.5 27t67 47.5t57.5 51.5q30 29 58.5 60.5t49.5 63.5t32.5 65t9.5 65q-1 18 -19 22t-44 -0.5t-57 -15t-59.5 -22t-51 -22.5t-31.5 -15q-6 -3 -15 -2t-19 5.5t-19 11.5t-16 14q-20 17 -13 29
q46 65 90.5 130.5t92.5 130.5q-9 6 -16.5 14.5t-11 16.5t-2 14t9.5 7q51 6 87.5 10t70 8t70 8.5t87.5 11.5q24 3 46.5 -8.5t37 -27.5t18 -31t-10.5 -17q-44 -7 -79 -12t-68.5 -9.5t-69.5 -9t-82 -10.5z" />
    <glyph glyph-name="six" unicode="6" horiz-adv-x="604" 
d="M599 640q-65 -33 -133 -89t-124.5 -127.5t-93.5 -155t-39 -171.5q-1 -45 11 -68.5t32.5 -29t47 4t53.5 29.5t53 48.5t45 61.5q22 37 35.5 73.5t18 66.5t0.5 51.5t-17 28.5q-8 4 -22 1t-32 -17t-39 -40t-43 -68q-7 -12 -19 -5t-21.5 24t-13 38.5t6.5 38.5q26 45 57 66
t61 25.5t57 -3.5t45 -22q36 -27 53.5 -62.5t18 -77.5t-13.5 -88t-41 -93q-21 -36 -50 -65.5t-64 -49t-74 -26.5t-80 2q-55 13 -90.5 43.5t-53.5 72t-19.5 90t13.5 97.5q21 70 61 138t92 128.5t113 109.5t124 81q14 7 34 1t35.5 -18t21.5 -25t-6 -19z" />
    <glyph glyph-name="seven" unicode="7" horiz-adv-x="526" 
d="M210 215q-15 0 -36.5 11t-38.5 25t-23 26.5t12 14.5q39 5 77.5 9.5t77.5 9.5q36 49 72 97t67.5 89t57 73t40.5 49q-34 -6 -59 -10.5t-48.5 -8t-48.5 -7.5t-58 -8q-17 -2 -37.5 11t-36 29.5t-21 31.5t8.5 17q51 6 97 11t90.5 10.5t89.5 12.5t96 17q10 2 26 -8.5t29 -26
t20 -32t0 -25.5q-49 -62 -109 -140.5t-123 -161.5l27 3q12 2 33 -9t38 -25t23 -27t-12 -16q-45 -6 -90.5 -12t-90.5 -12q-63 -86 -115 -158.5t-79 -116.5q-6 -9 -22.5 -6t-33.5 12t-28.5 21.5t-6.5 21.5q19 35 54.5 90t80.5 118z" />
    <glyph glyph-name="eight" unicode="8" horiz-adv-x="590" 
d="M674 571q15 -55 3 -95.5t-41 -69.5t-69.5 -49.5t-83.5 -36.5q13 -20 24.5 -39.5t21.5 -37.5q14 -27 23 -57t10.5 -60.5t-4.5 -59t-22 -51.5q-18 -27 -45.5 -47.5t-60.5 -33.5t-69 -17.5t-72 0.5q-72 11 -116.5 47t-59.5 85t0.5 106t63.5 110q32 35 85 58.5t111 46.5
q-27 42 -46.5 85t-15.5 91q4 51 25.5 85.5t54.5 55t74.5 28t85.5 5.5q22 -1 40 -11t28.5 -21t12.5 -20.5t-7 -9.5q-39 -2 -76.5 -9t-67.5 -23.5t-49.5 -45.5t-22.5 -75q-2 -26 6 -53t22 -54q39 17 72 38t55 48t29 62.5t-7 81.5q-2 7 9.5 6t27.5 -9t31 -22t20 -32zM454 99
q20 55 6.5 103.5t-41.5 94.5l-27 -9q-45 -16 -86.5 -45.5t-70.5 -72.5q-24 -38 -32.5 -70t-6.5 -57t12 -42t23 -23q25 -12 58.5 -7t66 22t59.5 45t39 61z" />
    <glyph glyph-name="nine" unicode="9" horiz-adv-x="524" 
d="M117 0q65 33 133 89t124.5 128t93.5 155.5t39 170.5q1 45 -11 68.5t-32.5 29.5t-47 -4t-53.5 -30t-53 -49t-45 -61q-22 -37 -35.5 -73.5t-18 -66.5t-0.5 -51.5t17 -28.5q9 -4 22.5 -1t31.5 17t39 40t44 68q6 12 18 5t21.5 -24t13 -38.5t-6.5 -38.5q-26 -45 -57 -66
t-61 -25.5t-57 3.5t-45 22q-36 27 -53 62.5t-18 77.5t13 88t41 93q21 36 50.5 65.5t64.5 49t74 26.5t80 -2q55 -12 90.5 -42.5t53.5 -72t19 -90.5t-14 -98q-21 -70 -61 -138t-91.5 -128.5t-112.5 -109.5t-124 -81q-14 -7 -34 -1t-35.5 18t-22 25t5.5 19z" />
    <glyph glyph-name="colon" unicode=":" horiz-adv-x="340" 
d="M206 125q20 -13 23 -39.5t-14 -52.5q-16 -25 -42 -33.5t-46 4.5t-23 40t14 52q8 13 19 21.5t23 12.5t24 3t22 -8zM344 350q20 -14 23 -40.5t-14 -52.5q-17 -25 -42.5 -33.5t-45.5 4.5q-20 14 -23 40.5t14 52.5q16 25 42 33.5t46 -4.5z" />
    <glyph glyph-name="semicolon" unicode=";" horiz-adv-x="349" 
d="M353 350q20 -14 23 -40.5t-14 -52.5q-17 -25 -42.5 -33.5t-45.5 4.5q-20 14 -23 40.5t14 52.5q16 25 42 33.5t46 -4.5zM150 -51q-5 -2 -14.5 -2.5t-18 0t-12.5 3.5t2 9q9 9 19 20.5t15 22.5q-1 0 -5 2q-20 13 -23 40t14 52q8 13 19 21.5t23 12.5t24 3t22 -8
q17 -11 21.5 -32t-3.5 -44q-6 -14 -15.5 -29.5t-20.5 -29.5t-23.5 -25.5t-23.5 -15.5z" />
    <glyph glyph-name="less" unicode="&#x3c;" horiz-adv-x="325" 
d="M144 195q-4 7 -5.5 16t-0.5 18t3.5 16.5t6.5 10.5q10 7 33 21.5t49 30.5t50 30.5t36 22.5q7 5 10 -2t3 -18t-3 -23t-8 -16q-5 -5 -21.5 -17t-35 -26.5t-36 -27t-23.5 -16.5q5 -8 15 -25t24 -40q5 -9 3 -21.5t-7.5 -23t-12.5 -15.5t-12 1q-5 7 -13.5 19t-17.5 26.5t-19 30
t-18 28.5z" />
    <glyph glyph-name="equal" unicode="=" horiz-adv-x="445" 
d="M193 109q-17 -3 -35 6.5t-31 22t-16 24t11 13.5q51 7 102 11t103 6q18 1 37 -9.5t31.5 -23t14.5 -23t-13 -10.5zM193 216q-17 -2 -35 7t-31 21.5t-16 24t11 13.5q51 7 102 11t103 6q18 1 37 -9.5t31.5 -23t14.5 -23t-13 -10.5z" />
    <glyph glyph-name="greater" unicode="&#x3e;" horiz-adv-x="360" 
d="M331 256q4 -7 5.5 -16t0.5 -18t-3.5 -16.5t-6.5 -10.5q-11 -8 -33.5 -22t-48.5 -30t-50 -30.5t-36 -22.5q-7 -5 -10 2t-3 18.5t3 22.5t8 16q5 4 21.5 16.5t35 27t36 26.5t23.5 17q-5 8 -14.5 25t-23.5 40q-5 9 -3 21.5t7 23t12 15.5t12 -1t13.5 -18.5t18 -27t19 -30
t17.5 -28.5z" />
    <glyph glyph-name="question" unicode="?" horiz-adv-x="486" 
d="M53 -85q-19 12 -21 36.5t12 47.5q15 23 38.5 30.5t41.5 -4.5q19 -11 21 -35.5t-12 -47.5q-15 -23 -38.5 -30.5t-41.5 3.5zM143 162q10 26 24 49.5t35 44t49.5 39.5t67.5 36q68 30 114.5 71.5t69.5 84.5t21 81.5t-30 62.5q-19 15 -48 15t-60.5 -13t-61.5 -38.5t-51 -61
t-28.5 -80.5t6.5 -97q2 -8 -9.5 -8.5t-26.5 7t-30 22.5t-21 37q-13 51 -6 96t28 81t52 62t66 39q32 12 67.5 16.5t69.5 -1.5t64.5 -22.5t52.5 -45.5q36 -48 45 -96t-2.5 -91t-40 -79.5t-66.5 -61.5q-44 -29 -84.5 -48t-76.5 -40.5t-67 -51t-57 -79.5q-6 -12 -19 -7t-25 18.5
t-19.5 30t-2.5 28.5z" />
    <glyph glyph-name="at" unicode="@" horiz-adv-x="835" 
d="M555 165q11 -6 27.5 0.5t35 22t39 38.5t38.5 50q32 46 46 98.5t10 100.5t-25 85.5t-59 54.5q-45 21 -92.5 19t-93.5 -21t-88 -51t-77 -71q-40 -45 -66.5 -103.5t-32.5 -119t11.5 -117t65.5 -96.5q25 -21 58 -30t69.5 -6t73.5 18t69 42q6 5 12.5 -7.5t3.5 -33t-20.5 -42
t-58.5 -34.5q-60 -19 -118 -6t-108 49q-74 55 -106 130t-29.5 154.5t36 155.5t90.5 132q52 51 116 80.5t129.5 34.5t127 -14t109.5 -65q47 -45 66 -98.5t14.5 -109t-30 -109.5t-68.5 -101q-32 -35 -62 -54t-56 -26t-47.5 -3t-37.5 15t-23 27t-7 35q-21 -25 -44 -44
t-46.5 -27.5t-48 -3t-49.5 30.5q-24 25 -32 51.5t-2 57t24 66t47 78.5q30 47 69 81.5t71 51.5q26 14 47 11t45 -22q7 -5 15.5 -10.5t16 -11.5t12.5 -13.5t6 -17.5q10 -4 19.5 -11t16.5 -15t10 -15.5t0 -11.5q-7 -9 -28 -37t-44 -63q-13 -20 -26 -43.5t-21.5 -44.5
t-9.5 -37.5t10 -23.5zM505 335q10 16 22 36.5t21 39.5t13 34t-2 20q-6 6 -22.5 -2.5t-38.5 -27.5t-47 -47.5t-49 -63.5q-15 -23 -30 -47t-26 -45.5t-16 -37.5t-1 -22q3 -5 14.5 -1.5t31 19t47.5 44t65 75.5z" />
    <glyph glyph-name="A" unicode="A" horiz-adv-x="905" 
d="M980 259q7 10 16 4.5t14.5 -20t3.5 -35.5t-17 -43q-33 -47 -67 -77t-67.5 -46.5t-67.5 -20t-67 1.5q-11 -20 -21 -39.5t-21 -37.5q-6 -10 -21 -5.5t-28.5 17.5t-21 32t2.5 38q3 6 6.5 12.5t6.5 12.5q-36 17 -69.5 37t-63.5 40q-28 -31 -57.5 -62t-61.5 -58.5t-67 -49
t-73 -34.5q-34 -11 -68 -8t-63.5 16t-51.5 35t-31.5 50t-3 60.5t34.5 66.5q34 42 76 67.5t89 36.5t97 7.5t100 -19.5q21 -6 38 -15q29 33 58.5 66t59.5 65q35 38 73 81.5t78 87t80.5 84t81.5 72.5q35 28 72 32.5t69 -36.5q11 -14 11.5 -33t-5.5 -40.5t-17 -44.5t-22.5 -44
t-22 -39t-16.5 -29q-42 -80 -91.5 -172t-98.5 -182q41 0 72 16t55.5 40.5t45.5 54t41 57.5zM220 10q55 35 103 78.5t93 91.5q-8 4 -15.5 7.5t-14.5 5.5q-32 9 -66.5 5.5t-67.5 -16.5t-62 -34.5t-50 -49.5q-21 -30 -28 -58t2 -44t35 -15t71 29zM923 588q-16 -13 -48.5 -46.5
t-72.5 -76.5t-83.5 -90t-80.5 -88t-64 -71t-34 -38q29 -18 58.5 -35t64.5 -30z" />
    <glyph glyph-name="B" unicode="B" horiz-adv-x="560" 
d="M17 530q27 59 72.5 98.5t98 62.5t107.5 31t102 5q28 -2 61.5 -12t67 -28t64 -42t52 -54t32 -65.5t3.5 -74.5q-7 -42 -34 -81.5t-70 -75t-99.5 -65.5t-122.5 -53q45 -11 82.5 -31t60.5 -53q16 -23 15.5 -45.5t-12 -43t-31.5 -36t-43 -24.5q-66 -24 -132 -23t-132 24
q-29 10 -55 26t-45.5 37.5t-30 48.5t-7.5 59q1 13 11.5 34t24.5 44.5t29.5 45.5t26.5 39q-43 28 -68.5 59.5t-36 63.5t-8 64.5t16.5 64.5zM129 121q-27 -43 -19.5 -72.5t35.5 -46t69.5 -21t82 3.5t73 27.5t43.5 50.5q7 19 -4 32.5t-33 22t-52.5 13t-63 7t-64 3t-55.5 1.5z
M179 203q43 6 91 21t94 37t87 51t70.5 64t43.5 74.5t7 83.5q-10 61 -49 92t-91 38.5t-108 -6t-101 -40.5q-18 -12 -41 -32t-44 -45.5t-36.5 -55.5t-19 -60t8 -59t45.5 -53q20 32 47 75t51.5 83t43.5 70t24 38q7 12 20.5 5.5t25 -21t17 -33t-1.5 -30.5q-52 -80 -95 -151
t-89 -146z" />
    <glyph glyph-name="C" unicode="C" horiz-adv-x="683" 
d="M764 268q8 13 16.5 8.5t12 -21t0 -40.5t-19.5 -50q-32 -53 -77 -101.5t-98 -85t-111 -57.5t-115 -17.5t-111 35t-99 98.5q-17 26 -23 59.5t-3 71t14 77t26 77.5q-28 28 -41 64t-13 74.5t10.5 76t30.5 67.5q25 39 56.5 58.5t57 25.5t38.5 0.5t1 -15.5q-29 -24 -58.5 -61
t-49 -77.5t-23.5 -81t18 -72.5q12 23 24.5 43.5t25.5 37.5q32 45 78.5 91t100 83.5t111 60t112.5 20.5q31 -1 61.5 -11.5t52.5 -30t30.5 -48.5t-4.5 -66q-17 -49 -47 -94.5t-70 -83t-87.5 -65t-98.5 -39.5q-72 -17 -127 -18t-97 10q-37 -80 -43 -149t25 -108
q16 -21 49.5 -29.5t78.5 -1.5t99 30t113 66q45 32 89 79t85 110zM501 561q-66 -51 -117.5 -112t-87.5 -124q31 -6 65 -3t68 13t66.5 25.5t59.5 35.5q26 18 54 43.5t52 55t40.5 61.5t19.5 64q2 24 -9 32.5t-30.5 5.5t-44 -13.5t-50 -25.5t-48.5 -30.5t-38 -27.5z" />
    <glyph glyph-name="D" unicode="D" horiz-adv-x="643" 
d="M361 727q66 0 123 -20t100.5 -55t72 -82t38.5 -102t0.5 -114.5t-42.5 -119.5q-39 -71 -96.5 -126t-126.5 -89.5t-145.5 -45t-153.5 7.5q-25 6 -48 20.5t-38.5 33.5t-20.5 39.5t6 37.5q26 39 51 79.5t50 81.5q-82 54 -106.5 121t7.5 136q24 51 61.5 88t82 61t92.5 36
t93 12zM590 366q10 46 8 98.5t-21.5 96.5t-59 73.5t-104.5 29.5q-46 1 -92 -12.5t-84 -36.5q-21 -13 -45 -34.5t-44.5 -49t-35 -57.5t-16.5 -60t10.5 -57t46.5 -48q40 66 79.5 133t79.5 134q8 13 22 8t25 -19.5t16.5 -33.5t-2.5 -34l-266 -453q53 -11 107.5 -4.5t105.5 27.5
t96.5 53.5t79.5 73.5q31 38 57 81t37 91z" />
    <glyph glyph-name="E" unicode="E" horiz-adv-x="561" 
d="M366 302q9 -1 11 -16t-2.5 -33t-13 -33.5t-20.5 -17.5q-85 -18 -133 -44t-69 -52.5t-20.5 -50.5t12.5 -39q16 -21 49.5 -29.5t78 -2t98.5 29.5t113 66q45 33 89 79.5t84 109.5q8 13 17 9t13.5 -19.5t1.5 -39t-19 -49.5q-24 -39 -63.5 -84t-89 -84.5t-106.5 -66
t-117 -28.5t-120.5 28t-115.5 104q-26 34 -18.5 68t36 63t71.5 52t88 35q-55 41 -70 91t-1 103q-41 37 -56.5 84t10.5 94q16 30 36.5 41.5t37.5 12t26.5 -7t2.5 -15.5q-33 -40 -37.5 -75.5t10.5 -64.5q22 36 55 69t72.5 58t83 40t88 17.5t87 -10.5t79.5 -44q32 -27 35.5 -61
t-14 -68t-52 -65.5t-79 -54.5t-94.5 -33.5t-99 -3.5q-30 5 -58.5 13.5t-54.5 20.5q-1 -16 5.5 -31.5t22.5 -28t42.5 -22.5t66.5 -14zM403 594q-46 -26 -87 -62t-64 -74q11 -5 23 -8.5t24 -5.5q45 -7 86.5 0t76.5 22t62.5 36.5t45.5 44t25 44t0 37.5q-4 9 -20.5 13t-42 0.5
t-58.5 -15t-71 -32.5z" />
    <glyph glyph-name="F" unicode="F" horiz-adv-x="700" 
d="M574 553q6 9 18.5 1.5t23.5 -22.5t16 -34.5t-5 -34.5q-40 -63 -68.5 -111.5t-56.5 -94.5q51 3 102.5 8t83.5 11q9 2 9 -11t-8.5 -29.5t-25.5 -32t-44 -18.5q-46 -5 -85.5 -4.5t-75.5 2.5q-15 -26 -32.5 -53.5t-38.5 -59.5q-23 -36 -53 -69t-66 -55t-77 -27.5t-86 14.5
q-22 9 -41 26t-30 39t-11 48t17 53q24 38 59.5 65t79 45.5t93.5 29t102 15.5q-42 38 -66.5 77.5t-34.5 76t-8.5 69t11.5 56.5q25 62 73.5 100t109.5 59t128 27.5t128 5t110 -9t74 -13.5q10 -3 23.5 -18.5t23 -32t11 -28.5t-12.5 -9q-34 7 -85.5 15t-109.5 11t-118.5 -1
t-112.5 -20.5t-91 -48t-55 -82.5q-6 -18 -8 -41t1 -49t13 -55t30 -60zM215 12q40 34 71.5 77t59.5 91q-63 -11 -111 -37t-78.5 -56t-42.5 -56.5t-4 -38.5q10 -15 25 -16t30 4.5t28.5 15t21.5 16.5z" />
    <glyph glyph-name="G" unicode="G" horiz-adv-x="667" 
d="M470 279q-71 -17 -126 -18t-97 10q-18 -40 -29 -77.5t-14 -71t3 -61t21 -46.5q15 -20 45 -23.5t76 21.5t109.5 83.5t146.5 162.5q5 9 18.5 2t25.5 -21.5t18.5 -31.5t-1.5 -28q-58 -75 -134.5 -195.5t-159.5 -302.5q-4 -9 -18.5 -5t-28.5 15.5t-23.5 26.5t-3.5 28
q35 73 59.5 121.5t45.5 87.5q-34 -17 -68.5 -22.5t-67.5 3t-65 33t-61 68.5q-17 26 -23 59t-3 70.5t14 77t26 77.5q-28 28 -41 64t-13 74t10.5 75.5t30.5 67.5q25 39 56 58.5t56.5 25.5t38.5 1t1 -15q-28 -25 -57.5 -61.5t-49 -77.5t-23.5 -81.5t18 -72.5q24 47 49 82
q32 44 78.5 90t100 83.5t111 60t112.5 20.5q31 -1 61.5 -11.5t52 -30t30 -48.5t-4.5 -66q-17 -49 -47 -94t-70 -82.5t-87 -65t-98 -39.5zM479 561q-66 -51 -117 -112t-87 -124q31 -6 65 -3t67.5 13t66 25.5t59.5 34.5q26 18 54 43.5t51.5 55t40 61.5t19.5 64q2 24 -9 32.5
t-30 6t-44 -13.5t-50 -25.5t-48 -30t-38 -27.5z" />
    <glyph glyph-name="H" unicode="H" horiz-adv-x="952" 
d="M755 709q8 5 23.5 0.5t29.5 -14t22.5 -22t1.5 -23.5q-30 -51 -66 -112t-74 -124t-75 -125t-70 -114q32 -20 65 -38t74 -31q91 150 180.5 298.5t180.5 301.5q6 9 20 3t26.5 -20t19 -33t-3.5 -36q-42 -70 -82.5 -136.5t-80.5 -132.5t-79.5 -131.5t-79.5 -132.5q40 0 73 12
t61.5 34t53.5 53t50 69q6 9 15.5 4t14.5 -19.5t3 -36t-18 -44.5q-36 -51 -73.5 -82.5t-75 -47.5t-75 -19t-73.5 4q-11 -17 -20.5 -34t-20.5 -34q-5 -9 -20 -4.5t-29.5 15.5t-23.5 26.5t-1 27.5q5 8 10 16.5t10 16.5q-37 17 -70.5 37.5t-64.5 40.5q-58 -83 -115 -128
t-109 -62.5t-97.5 -13t-80 20.5t-57 38.5t-27.5 41.5q-8 29 -2 61t34 66q34 42 76 67.5t89 36.5t97 7.5t100 -19.5q11 -4 21 -7.5t20 -8.5q22 36 47.5 77.5t51.5 85.5t53 89t53 89q-4 -2 -8 -4.5t-8 -4.5q-10 -6 -33.5 -19.5t-47.5 -30.5t-40.5 -35.5t-11.5 -34.5
q2 -6 -8.5 -8t-25 1.5t-28 13.5t-18.5 28q-6 23 5 42t30 34.5t41 28t38 21.5q50 31 101 57.5t102 56.5zM117 -4q10 -13 42.5 -11.5t77 21.5t95.5 61t98 107q-11 6 -21.5 11t-19.5 8q-32 9 -66.5 5.5t-67.5 -16.5t-62.5 -35t-49.5 -50q-22 -29 -30 -58t4 -43z" />
    <glyph glyph-name="I" unicode="I" horiz-adv-x="577" 
d="M875 680q2 -17 -5.5 -29t-20.5 -19.5t-28 -11.5t-28 -7q-8 -2 -21.5 -3.5t-32.5 -3.5q-32 -47 -60 -96t-49 -84q-29 -49 -59 -97t-59 -97q-39 -65 -79.5 -126.5t-96.5 -115.5q-29 -28 -58 -40t-58.5 -12t-60.5 10.5t-64 28.5q-35 19 -52 46t-19 56t9 60t31.5 58.5
t49 49.5t61.5 36q35 15 69.5 16t56.5 -4.5t26 -15.5t-22 -18q-75 -23 -119.5 -59.5t-64.5 -74.5t-19 -71t18 -48q13 -12 33.5 -11t42 9.5t41.5 22t32 26.5q29 30 53.5 62t47.5 67q37 58 72 116.5t70 117.5q21 35 49 81.5t57 91.5q-34 -6 -64 -14t-47.5 -19.5t-19.5 -26.5
t21 -34q7 -6 5 -10.5t-8.5 -7t-17 -2.5t-20.5 3q-15 4 -30 14.5t-24 25.5t-9.5 35t12.5 43q13 22 40 34.5t61 18.5t72.5 8t75.5 3l12 18q7 10 16.5 24t20.5 27t24 22.5t28 10.5q16 1 35 -5t34.5 -18t26.5 -28t13 -33z" />
    <glyph glyph-name="J" unicode="J" horiz-adv-x="750" 
d="M1021 681q1 -17 -6.5 -29t-20 -19.5t-28 -11.5t-28.5 -7q-7 -2 -21 -3.5t-32 -3.5q-21 -33 -39.5 -67t-36.5 -65q-11 -18 -38 -61.5t-62 -99t-72.5 -116.5t-69.5 -112q65 5 110 27t74 48.5t45 51t23 34.5q6 8 15 2.5t14.5 -19t5 -32t-12.5 -36.5q-36 -53 -74 -83
t-78.5 -45t-82.5 -18.5t-85 -3.5q-8 -14 -15 -25t-11 -18q-39 -65 -79.5 -126.5t-96.5 -115.5q-29 -28 -58 -40t-58.5 -12t-60.5 10.5t-64 28.5q-38 20 -52.5 53t-9.5 70t27 74.5t57 66.5q40 34 83.5 55t89 32t91.5 15t91 5q33 54 69.5 113t69.5 112t58.5 95t37.5 62
q19 31 37 62t37 63q-34 -6 -64 -14t-48 -19t-20 -26.5t21 -34.5q7 -6 5 -10.5t-8.5 -7t-17 -2.5t-20.5 3q-15 4 -30 14.5t-24 25.5t-10 35t13 43q13 22 39.5 34.5t61 18.5t73 8t75.5 3l12 18q7 10 16.5 24t21 27.5t24.5 23t27 10.5q16 1 35 -5.5t35 -18.5t27 -27.5t13 -33.5
zM252 -208q29 30 53.5 62t47.5 67q8 13 22 35.5t33 51.5q-67 -6 -124.5 -24t-99.5 -54q-24 -21 -39.5 -49t-23 -55.5t-6.5 -50.5t10 -32q14 -14 31 -13t34 10.5t33.5 24t28.5 27.5z" />
    <glyph glyph-name="K" unicode="K" horiz-adv-x="620" 
d="M529 657q-52 -87 -119.5 -199t-151.5 -252l4 -6l4 -6q40 22 76 46q60 44 115 98t104.5 113t93.5 122t84 126q9 15 18.5 6t14.5 -30t4 -48.5t-13 -49.5q-34 -66 -78.5 -129t-103 -121t-131.5 -109t-163 -92q10 -42 18.5 -69t17 -42.5t18 -21t22.5 -5.5q25 0 70.5 20.5
t99.5 67.5q26 22 48 43t42 43.5t39 48t39 57.5q8 13 17 8t12.5 -21.5t0 -41.5t-19.5 -50q-33 -51 -78.5 -96t-95.5 -76.5t-101.5 -45.5t-97.5 -4.5t-82.5 47t-55.5 110.5q-5 0 -7 1q-22 -37 -45 -75t-46 -79q-6 -9 -21 -4.5t-29.5 16t-23.5 26.5t-1 27q20 32 39 63.5
t38 63.5q-16 8 -27.5 22t-0.5 35q20 35 46.5 48.5t53.5 11.5q48 81 96 160t96 160q-10 -5 -19.5 -10t-19.5 -11q-14 -7 -41 -20t-53.5 -30t-46 -37t-16.5 -40q1 -9 -11.5 -8.5t-28.5 7t-30.5 17.5t-15.5 22q-3 22 13 42t39 36.5t47.5 30t39.5 21.5q55 31 111 58.5t113 55.5
q8 4 23 -1t29 -14t23 -19t5 -17z" />
    <glyph glyph-name="L" unicode="L" horiz-adv-x="674" 
d="M779 300q8 13 17 8t13 -21.5t0 -41.5t-20 -50q-30 -46 -70 -87.5t-85 -72.5t-92 -49t-91 -17.5t-82 22t-64 69.5q-27 -37 -61 -67t-80 -40q-26 -5 -52 3t-46.5 25t-32.5 40t-10 47q2 31 14.5 64.5t33.5 64.5t49 56t60 39q42 19 75.5 6t62.5 -48q11 19 22 37.5t22 38.5
q-23 11 -47 31q-35 29 -53.5 61t-23 66t3 70t24.5 72q10 22 27.5 37t36.5 24.5t37.5 13t31 2.5t16.5 -7t-5 -15q-23 -23 -43 -49.5t-33 -56.5t-17 -62.5t5 -66.5q10 -35 26.5 -52t37.5 -22q13 26 25 52.5t23 53.5q13 33 29 74t36.5 78.5t47 65.5t61.5 35q14 3 31 -3
t33 -16.5t29 -23t19 -22.5q15 -27 12.5 -62t-14.5 -69.5t-30.5 -65t-35.5 -50.5q-41 -47 -89.5 -77.5t-101.5 -35.5q-21 -40 -44.5 -79t-49.5 -77q10 -40 18 -65t16.5 -39.5t18 -20t22.5 -5.5q24 0 69.5 20.5t99.5 67.5q26 22 48 43t42 43.5t39 48t39 57.5zM652 655
q-8 4 -19 -7.5t-24 -33t-27.5 -50t-28.5 -58.5t-26.5 -58.5t-21.5 -50.5q42 25 74 66.5t51.5 82.5t25 72.5t-3.5 36.5zM105 8q10 -3 26.5 8t37.5 33t45.5 53.5t50.5 67.5q-13 26 -30.5 34t-48.5 -17q-22 -18 -46 -48q-26 -34 -35.5 -58.5t-10.5 -40t3.5 -23.5t7.5 -9z" />
    <glyph glyph-name="M" unicode="M" horiz-adv-x="901" 
d="M660 673q6 7 21.5 3.5t30.5 -12.5t25 -21t5 -21q-65 -117 -130.5 -231t-130.5 -231q66 66 131 135.5t128.5 139.5t124 139.5t116.5 135.5q6 7 22 3t31 -13t24.5 -21t4.5 -21q-64 -114 -133.5 -224t-132.5 -225l-20 -35t-25 -44.5t-24.5 -47t-17 -42t-4 -30t15.5 -11.5
h6.5t13 4.5t22 14.5t33.5 30q54 53 99.5 105t85.5 115q8 13 17 8t13 -22t0 -41.5t-20 -50.5q-32 -49 -68.5 -89t-72.5 -68.5t-68.5 -44.5t-56.5 -16q-37 0 -58 17.5t-29 44.5t-4.5 60t16.5 65q25 62 55 120.5t65 115.5q-97 -110 -197.5 -215.5t-206.5 -200.5q-2 -2 -4 -2.5
t-4 -1.5q-10 -2 -24.5 3.5t-27.5 14t-20.5 19t-3.5 18.5q44 82 89 163t91 162q-88 -101 -179.5 -196t-192.5 -187q-6 -6 -20 -0.5t-27 16t-21 24t-3 22.5q7 11 38.5 63t79.5 133q50 85 94 151t75.5 113.5t47 75t6.5 34.5q-12 10 -32.5 0.5t-43.5 -29t-44.5 -44t-34.5 -43.5
q-17 -25 -31 -47.5t-26 -45.5t-22.5 -47.5t-21.5 -52.5q-8 -20 -18.5 -13.5t-18.5 27.5t-10 52t9 61q31 85 80 138.5t99 79t93 25t63 -24.5q25 -30 28.5 -58t-5 -53.5t-23.5 -49t-26 -42.5q-10 -18 -26 -44t-35.5 -57.5t-41.5 -65.5l-44 -68q114 120 218.5 246t212.5 253z
" />
    <glyph glyph-name="N" unicode="N" horiz-adv-x="663" 
d="M98 -55q-9 -8 -23.5 -3t-27 16t-19.5 24.5t-2 24.5q2 3 14.5 24.5t30.5 52t38 65t37 63.5q25 44 56.5 92t63.5 95t61.5 90t51 77t31.5 56.5t4 27.5q-12 10 -32.5 0t-43 -29.5t-44 -43.5t-34.5 -43q-18 -25 -32 -47.5t-26 -45.5t-22.5 -47.5t-20.5 -52.5
q-8 -20 -18.5 -13.5t-18.5 27.5t-10 52t9 61q31 85 79.5 138.5t98.5 79t93.5 25t63.5 -24.5q25 -30 28 -58t-5 -53.5t-23 -49t-26 -42.5q-10 -18 -34 -56t-52.5 -83.5t-58 -91.5t-50.5 -79q67 64 134.5 132.5t133 137.5t127.5 137t116 131q6 7 21 3t30 -13.5t24.5 -21
t5.5 -20.5q-65 -114 -134.5 -224t-132.5 -225q-8 -14 -20 -35.5t-25 -44.5t-24.5 -46.5t-17 -42.5t-4 -30.5t15.5 -11.5q2 0 6.5 0.5t13 5t22 14.5t33.5 30q54 53 99.5 105t85.5 115q8 13 16.5 8t12.5 -21.5t0 -41t-20 -49.5q-32 -49 -68 -89.5t-72 -69.5t-68.5 -45
t-56.5 -16q-37 0 -58 17.5t-29 44.5t-4.5 60t16.5 65q27 69 62 134t74 129q-110 -120 -224 -235t-228 -215z" />
    <glyph glyph-name="O" unicode="O" horiz-adv-x="600" 
d="M683 268q7 12 17 7.5t14.5 -20.5t1 -40.5t-22.5 -51.5q-33 -50 -73 -85t-83.5 -57.5t-89 -32t-90.5 -7.5q-65 -38 -134.5 -44t-135.5 32q-29 16 -44 42t-18.5 57.5t3 67.5t20.5 74q-12 34 -18 74q-6 43 -2.5 80t13.5 69.5t25.5 61t33.5 55.5q23 33 56 66t72.5 59.5
t84.5 42.5t91 15.5t91.5 -21.5t86.5 -69q48 -56 57 -132t-11.5 -157t-66 -159t-106.5 -138q59 24 117.5 76t110.5 135zM120 11q14 -10 40 -10t61 14q-38 18 -70 44.5t-57 61.5q-9 -44 0.5 -71t25.5 -39zM282 46q41 26 84.5 68t85.5 103q43 63 68.5 126t35.5 117.5t5 95.5
t-21 61q-21 25 -52.5 34.5t-66 6.5t-69.5 -17t-64 -35q-30 -22 -59.5 -52.5t-53.5 -66.5t-41 -75t-21 -78q33 49 72.5 89t77.5 62q19 12 38 14t32 -1.5t19 -10t0 -12.5q-62 -54 -106 -102.5t-75 -92.5q-13 -17 -23.5 -34t-18.5 -32q21 -66 61 -108.5t92 -59.5z" />
    <glyph glyph-name="P" unicode="P" horiz-adv-x="663" 
d="M463 723q58 -6 113 -34t96 -71.5t62.5 -99t11.5 -114.5q-5 -27 -19 -62.5t-40.5 -72.5t-68 -71t-101 -59.5t-139.5 -38.5t-183 -6q-10 -17 -23 -38.5t-25.5 -42.5t-23 -38t-15.5 -24q-6 -11 -22 -8t-31.5 12.5t-25.5 22t-5 21.5t18 30.5t30 49t36 59t37 60t32.5 51.5
t22.5 34q-43 28 -68.5 59.5t-36.5 63.5t-8.5 64.5t16.5 64.5q27 59 69.5 97.5t91 60t100.5 28t99 2.5zM229 149q97 2 180 35.5t142 86t88.5 117t19.5 128.5q-11 62 -50 96.5t-91 46t-108 1.5t-101 -37q-19 -12 -41.5 -32t-43.5 -45.5t-36.5 -55.5t-19 -60t8 -59t45.5 -53
q20 32 47 75t51.5 83t43.5 70t24 38q7 12 20.5 5.5t25 -21t17.5 -33t-1 -30.5q-24 -37 -52.5 -83t-58 -94t-58 -94.5t-52.5 -84.5z" />
    <glyph glyph-name="Q" unicode="Q" horiz-adv-x="595" 
d="M547 -69q12 9 19.5 0.5t5.5 -26.5t-17 -40.5t-49 -39.5q-30 -15 -68 -14t-78.5 16t-82 43t-80.5 67q-58 2 -112 32q-28 16 -43 41.5t-18.5 56.5t2 66.5t19.5 72.5q-5 19 -9.5 38.5t-6.5 39.5q-6 43 -2.5 80t13.5 69.5t25.5 61t33.5 55.5q22 34 55.5 67t73 59t84.5 42.5
t91 15.5t91.5 -22t86.5 -68q42 -49 54 -113t0.5 -134t-43.5 -140.5t-78.5 -131.5t-103.5 -107t-119 -67q64 -48 132.5 -55t123.5 35zM110 12q11 -11 34 -13q-31 43 -56 92q-2 -30 5 -49.5t17 -29.5zM223 17q28 6 68 34t82.5 70t82.5 95t68.5 111t41 117t-0.5 113
q-13 52 -44.5 75.5t-72 26.5t-83.5 -12t-78 -41q-30 -21 -59.5 -51.5t-53.5 -66.5t-41 -75.5t-21 -78.5q33 50 72.5 89.5t77.5 62.5q19 12 38 13.5t32 -2t18.5 -10t-0.5 -11.5q-89 -79 -142 -145t-82 -120q16 -58 40.5 -107t56.5 -87z" />
    <glyph glyph-name="R" unicode="R" horiz-adv-x="713" 
d="M794 267q8 13 16.5 8t12.5 -21.5t0 -41t-20 -49.5q-32 -49 -78.5 -93.5t-101 -76t-113 -47t-114 -6.5t-104 46t-82.5 110q-4 1 -13 1q-10 -17 -22.5 -38.5t-25 -42.5t-23 -38t-15.5 -24q-6 -10 -22 -7t-31.5 12.5t-25.5 21.5t-5 21t18 30.5t30 49.5t36 59t37 59.5
t32 51.5t22 34q-42 28 -67.5 59.5t-36.5 63.5t-8.5 64.5t16.5 64.5q27 58 69 96.5t91 60t100.5 28t98.5 2.5q58 -6 113 -34t96 -71.5t62.5 -98.5t11.5 -114q-4 -25 -16 -56.5t-33.5 -64.5t-55 -65.5t-81 -58.5t-110 -44t-143.5 -22q26 -56 54.5 -82t49.5 -26q24 -3 57.5 8
t70.5 31t75.5 48t72.5 60t61.5 66t43.5 66zM312 625q-18 -11 -41 -31.5t-44 -46t-36.5 -55t-19 -59.5t8 -59t45.5 -53q20 32 46.5 75t51.5 82.5t43.5 70t23.5 38.5q7 12 20.5 5.5t25.5 -21.5t17.5 -33t-1.5 -30q-24 -37 -52.5 -83t-58 -94t-58 -94.5t-51.5 -84.5
q97 2 180 35.5t142 86t88 117t19 128.5q-7 41 -27 70t-49 46.5t-64.5 25t-72 5.5t-72 -12.5t-64.5 -28.5z" />
    <glyph glyph-name="S" unicode="S" horiz-adv-x="530" 
d="M471 624q-26 -15 -58 -39.5t-64.5 -55.5t-62.5 -66.5t-50.5 -73t-29.5 -75t0 -71.5q8 -31 31 -49t54.5 -30.5t67 -24.5t69.5 -31q31 -17 37.5 -45t-1.5 -53q-12 -35 -43 -51.5t-72 -18.5t-87.5 7.5t-91 25.5t-82.5 36t-61 38q-6 4 1 10.5t19.5 11.5t27 6.5t24.5 -3.5
q15 -8 39.5 -19.5t53 -22.5t58 -19.5t55.5 -10t45 6t26 27.5q4 13 -8 23t-30.5 18.5t-38 14.5t-30.5 11q-44 19 -87.5 51.5t-66.5 81.5q-17 34 -12 73.5t23 80t46.5 79.5t60 73t62 61t53.5 42q41 27 90 50.5t96 30t87.5 -9t64.5 -66.5q15 -32 10 -73t-25 -84t-53 -85
t-74.5 -77.5t-88.5 -61.5t-96 -36q-25 -5 -52 -0.5t-46.5 13t-26.5 17.5t7 12q52 10 100.5 33.5t90.5 56.5t76 74.5t58 88.5q4 7 13 24.5t17 38t11.5 39t-3.5 27.5q-3 4 -11.5 7t-24 1.5t-39.5 -10.5t-58 -29z" />
    <glyph glyph-name="T" unicode="T" horiz-adv-x="505" 
d="M825 702q11 0 28 -13t30.5 -28.5t17.5 -29.5t-11 -15q-78 -7 -151.5 -13.5t-148.5 -20.5q11 -6 15.5 -16.5t-5.5 -27.5q-87 -141 -177.5 -292t-184.5 -304q-5 -9 -21 -6t-31.5 12t-26 21t-5.5 21l353 574q-38 -10 -76 -22t-78 -29q-89 -36 -146 -68t-88.5 -58t-41 -44
t-4.5 -24q4 -5 20.5 1.5t39 18.5t48 28t49 31.5t42 28t25.5 18.5q11 9 18.5 0t7 -27.5t-12 -43.5t-38.5 -48q-11 -9 -38 -24.5t-61 -26.5t-71 -12t-67 18q-26 16 -30.5 39.5t5 49.5t30 51t44.5 44q83 67 182.5 110.5t200 70t194 39t164.5 17.5z" />
    <glyph glyph-name="U" unicode="U" horiz-adv-x="606" 
d="M754 618q-26 -53 -53 -101.5t-55.5 -94t-59 -89t-63.5 -88.5q-5 -8 -10 -17l-10 -18q-8 -14 -20 -35.5t-25 -44.5t-24.5 -46.5t-17 -42.5t-3.5 -30.5t16 -11.5q2 0 6 0.5t12.5 4.5t22 14t34.5 30q53 53 98.5 105t85.5 116q8 13 17 7.5t13 -22t0 -41t-20 -49.5
q-32 -49 -68.5 -89t-72.5 -69t-68.5 -45t-56.5 -16q-46 0 -67.5 25.5t-24.5 63.5q-12 -13 -22.5 -23t-17.5 -16q-24 -19 -56.5 -36t-68 -20.5t-70.5 13t-63 64.5q-14 23 -15 48.5t5 51t17.5 50t23.5 46.5q25 44 56 92t63 94.5t62 89t51.5 76.5t32 56.5t3.5 29.5
q-11 10 -31.5 0.5t-43.5 -29t-45 -44.5t-35 -44q-17 -25 -31 -47.5t-26 -45.5t-22.5 -47.5t-21.5 -52.5q-7 -20 -18 -13.5t-18.5 28t-9.5 52.5t9 60q31 85 78.5 140.5t97 81.5t93 23t64.5 -33q22 -32 27 -60t-1 -52.5t-18.5 -47t-23.5 -41.5q-7 -12 -19 -31t-27 -41.5
t-31.5 -47t-32.5 -48.5q-38 -56 -82 -119q-10 -17 -26.5 -43t-29.5 -54t-17.5 -52.5t10.5 -38.5q13 -12 47 3t82 58t105.5 112.5t117.5 167.5q6 8 8 12q53 90 109.5 176t105.5 176q6 10 21 4t28.5 -21t21 -35t-1.5 -38z" />
    <glyph glyph-name="V" unicode="V" horiz-adv-x="570" 
d="M544 234q-66 -91 -124 -150.5t-108 -93.5t-91.5 -44.5t-75.5 -5t-60 25t-44 46.5q-15 22 -16.5 47.5t5.5 51.5t18.5 51t23.5 46q24 44 55.5 92t64 94.5t62.5 89.5t51.5 77t32 56.5t3.5 29.5q-11 10 -31.5 0.5t-43.5 -29.5t-45 -44.5t-35 -43.5q-17 -25 -31 -47.5
t-26 -45.5t-22.5 -47.5t-21.5 -52.5q-8 -20 -18.5 -13.5t-18.5 28t-10 52.5t9 60q31 85 79 140.5t97.5 81.5t93 23t64.5 -33q22 -32 27 -60t-1 -52.5t-18.5 -47t-23.5 -41.5q-7 -12 -19 -31t-27 -41.5t-31.5 -47t-32.5 -48.5q-38 -56 -82 -120q-10 -17 -27.5 -44
t-31.5 -55.5t-18 -53t13 -35.5q13 -8 49.5 8.5t85.5 55t105 97.5t109 134.5t96.5 167t67.5 194.5q5 20 20.5 16t31 -18.5t27 -34t8.5 -31.5q-28 -109 -71 -197t-94 -157z" />
    <glyph glyph-name="W" unicode="W" horiz-adv-x="870" 
d="M602 559q11 17 25.5 13t26.5 -19t18.5 -36.5t0.5 -39.5q-22 -73 -57.5 -133t-72.5 -111q-38 -54 -73.5 -95.5t-68.5 -73.5q-8 -22 -8.5 -39.5t13.5 -26.5q13 -9 49 8t85 55.5t105 97t108.5 134.5t96.5 167t68 194q4 19 19.5 15.5t31 -18.5t27 -34t8.5 -31
q-28 -109 -71 -196.5t-93 -156.5q-66 -91 -123.5 -150.5t-107.5 -93t-91.5 -44.5t-75 -5.5t-59.5 24.5t-44 46q-56 -43 -102 -59t-83.5 -12t-65.5 23.5t-47 48.5q-15 22 -16.5 47.5t5 51t18.5 50.5t24 47q24 44 55.5 92t63.5 94.5t61.5 89t51.5 76t32.5 56t3.5 29.5
q-11 11 -31.5 1.5t-43.5 -29.5t-45 -44.5t-35 -43.5q-17 -25 -31 -47.5t-26 -45.5t-22.5 -47.5t-21.5 -52.5q-7 -20 -18 -13.5t-18.5 28t-9.5 52.5t9 60q31 85 78.5 140t97 81.5t92.5 23.5t65 -33q22 -32 26.5 -60t-1 -52.5t-18 -47t-23.5 -41.5q-7 -12 -19 -31t-27 -41.5
t-31.5 -47t-32.5 -48.5q-38 -56 -82 -119q-10 -17 -27.5 -44.5t-31 -55.5t-18 -52.5t12.5 -35.5q10 -6 32.5 1.5t53.5 27.5t69 51.5t78 73.5l14 28t14 27q24 44 55 92.5t63 95t62 89t53 75.5z" />
    <glyph glyph-name="X" unicode="X" horiz-adv-x="677" 
d="M869 725q11 7 27 8.5t33.5 -1t34 -8t28 -11.5t15.5 -12t-2 -10q-122 -74 -240.5 -163.5t-224.5 -180.5q-5 -61 -14.5 -119.5t-15.5 -112.5q-1 -11 -3.5 -27.5t-3 -32.5t3 -27t14.5 -11q9 0 30.5 14t52 44.5t70 78t85.5 115.5q10 14 18.5 7.5t12 -24t-0.5 -42t-20 -47.5
q-20 -29 -43.5 -60t-49.5 -57.5t-54 -45t-57 -24.5t-58 3.5t-57 41.5q-17 19 -23.5 48.5t-6.5 61.5t3.5 63.5t6.5 56.5q-66 -59 -121.5 -110.5t-97.5 -92t-68.5 -66.5t-35.5 -32q-10 -7 -27 -3t-32.5 12.5t-24.5 19t-3 16.5q110 116 215.5 216.5t218.5 198.5q5 33 8.5 65
t4.5 57.5t-2 42t-12 18.5q-19 4 -47 -17t-57.5 -52t-56 -64t-42.5 -54q-44 -57 -81 -116.5t-69 -123.5q-8 -15 -22 -8.5t-23 28.5t-8.5 56.5t23.5 75.5q49 87 113 165.5t145 132.5q30 21 62 29.5t60 2.5t49.5 -28.5t31.5 -64.5q4 -17 6 -35l4 -36q75 60 155.5 120t172.5 121
z" />
    <glyph glyph-name="Y" unicode="Y" horiz-adv-x="595" 
d="M682 696q8 13 22 5.5t27 -24t20 -36t2 -30.5q-26 -50 -59.5 -108t-62.5 -109q-40 -72 -90 -162.5t-101.5 -187.5t-100.5 -194t-87 -181q-5 -9 -20.5 -4t-31 18t-25.5 29.5t-4 29.5q27 56 54 113t54 115q-24 -17 -55 -30.5t-64 -13.5t-64.5 17t-57.5 61q-14 23 -15 48.5
t5.5 51t17.5 50t23 46.5q25 44 56 92t63 94.5t62 89t52 76.5t32.5 56.5t3.5 29.5q-11 10 -31.5 0.5t-43.5 -29t-45 -44.5t-35 -44q-17 -25 -31 -47.5t-26 -45.5t-22.5 -47.5t-21.5 -52.5q-8 -20 -18.5 -13.5t-18.5 28t-10 52.5t9 60q31 85 79 140.5t97.5 81.5t92.5 23
t65 -33q22 -32 27 -60t-1 -52.5t-18.5 -47t-23.5 -41.5q-7 -12 -19 -31t-27 -41.5t-31.5 -47t-32.5 -48.5q-38 -56 -82 -119q-10 -17 -27 -43.5t-30 -54t-17.5 -52.5t10.5 -38q13 -12 47 3t82 58t106 112.5t118 167.5q4 6 15.5 24.5t28 45.5t36 59t39.5 65q47 77 104 170z
" />
    <glyph glyph-name="Z" unicode="Z" horiz-adv-x="616" 
d="M768 699q9 5 26 -1t32 -17t22.5 -23t-2.5 -19q-76 -49 -141 -107.5t-123.5 -123t-113.5 -133.5t-111 -138q7 -25 15 -49.5t18 -44t22 -32t26 -12.5h6.5t13 4.5t22 14.5t33.5 30q54 53 99.5 105t85.5 115q8 13 17 8.5t13.5 -20.5t1 -40t-19.5 -49q-32 -49 -68.5 -90
t-73 -70.5t-69.5 -46t-57 -16.5q-26 0 -46.5 10.5t-37 28.5t-30 41t-24.5 47q-23 -29 -52 -61t-61.5 -52.5t-67.5 -21t-69 35.5q-21 22 -26.5 50.5t2 59t26.5 62.5t45 61q50 55 106.5 64t97.5 -25q2 2 3.5 4.5t3.5 4.5q63 78 127 153t136 142q-36 9 -69 30.5t-63 41
t-57.5 30t-51.5 -1.5q-19 -10 -28.5 -50.5t-12.5 -93t-1 -106.5t6 -90q2 -20 -10.5 -18.5t-29 17.5t-32 41.5t-18.5 53.5q-5 45 -1 98t22 98t52 75.5t88 31.5q28 0 55.5 -8.5t55 -20.5t54 -24t52.5 -19t51.5 -5t49.5 18q21 14 40 27t41 26zM177 76q14 19 33.5 45t39.5 52
q-13 10 -26.5 8t-27 -10t-25.5 -20.5t-21 -24.5q-12 -15 -24.5 -33.5t-20.5 -35.5t-11.5 -30.5t2.5 -18.5q8 -8 29.5 10t51.5 58z" />
    <glyph glyph-name="bracketleft" unicode="[" horiz-adv-x="570" 
d="M280 -138q-14 -4 -38 -10.5t-50 -13t-49 -12t-34 -7.5q-15 -2 -31 4.5t-28.5 17t-19 22t-2.5 17.5q25 41 61.5 100t78.5 127.5t87 142.5t89 145q102 166 214 351q8 11 13.5 14t15.5 7q13 4 29.5 8.5t34 8.5t33 7.5t26.5 5.5q12 2 28.5 -7t30 -20.5t18.5 -22.5t-5 -14
q-32 -8 -73 -18t-77 -18q-24 -43 -59 -102t-76 -127t-86.5 -142.5t-90 -147.5t-86.5 -140.5t-76 -123.5q10 2 19 5t18 5q16 4 35.5 -4t34 -19.5t20 -23.5t-4.5 -15z" />
    <glyph glyph-name="backslash" unicode="\" horiz-adv-x="408" 
d="M23 725q-3 11 10 14.5t30.5 0.5t33 -10.5t18.5 -17.5q5 -17 16 -55t26 -89.5t32.5 -112t36.5 -123t37 -123.5t33 -112.5t27 -90.5t17 -57q4 -15 -7.5 -18.5t-28.5 0t-33.5 12.5t-21.5 19q-3 7 -14 41t-27 86.5t-35 117t-39 132t-39 133t-34 118.5t-25.5 89.5t-12.5 45.5z
" />
    <glyph glyph-name="bracketright" unicode="]" horiz-adv-x="723" 
d="M426 754q13 4 37 10.5t50 13t49 11.5t34 7q15 3 31 -4t28.5 -17t19 -21.5t2.5 -17.5q-26 -41 -62 -100.5t-78 -128t-87 -142.5t-88 -145q-101 -166 -214 -351q-8 -10 -14 -13t-15 -7q-13 -4 -30 -8.5t-34 -8.5t-33 -7.5t-26 -5.5q-12 -2 -29 7t-30 20.5t-18.5 22.5
t5.5 14q31 8 72 17.5t78 18.5q24 42 59 101t76 127.5t86 142.5t89.5 147t86.5 141t76 124q-9 -2 -18.5 -5t-18.5 -5q-17 -4 -36 4t-33 19.5t-20 23.5t5 15z" />
    <glyph glyph-name="asciicircum" unicode="^" horiz-adv-x="377" 
d="M303 694q6 -17 12.5 -42.5t11.5 -52.5t9 -51.5t5 -39.5q0 -5 -8.5 -5t-19.5 3.5t-20.5 11t-11.5 17.5q-3 20 -5.5 33t-4.5 23.5t-3.5 20.5t-4.5 22l-17.5 -22.5t-21.5 -27.5t-21 -25.5t-15 -16.5q-5 -4 -16.5 -5.5t-22 -0.5t-16.5 5t-1 11q15 19 32.5 41.5t33 43t28.5 37
t21 24.5q5 5 13.5 7.5t17 1.5t16 -4t9.5 -9z" />
    <glyph glyph-name="underscore" unicode="_" horiz-adv-x="592" 
d="M104 -106q-17 -3 -35 6.5t-31 22t-16 24t11 13.5q17 2 51 4.5t76.5 4t89.5 3.5t89.5 3.5t77 2.5t51.5 2q18 1 37 -9.5t31.5 -23t14.5 -23t-13 -10.5z" />
    <glyph glyph-name="grave" unicode="`" horiz-adv-x="833" 
d="M348 439q-5 7 -13 19.5t-17.5 28t-19.5 32t-19 30.5q-5 7 4 12t22.5 5.5t28 -4t21.5 -15.5q17 -27 32.5 -56t31.5 -58q5 -10 -3 -14t-21 -2.5t-27 7t-20 15.5z" />
    <glyph glyph-name="a" unicode="a" horiz-adv-x="430" 
d="M483 226q4 7 13.5 2.5t16 -17t6.5 -31t-14 -39.5q-35 -53 -69 -84.5t-64.5 -45.5t-56 -13t-43.5 14q-17 12 -23.5 28t-7.5 35q-21 -25 -44 -44t-46.5 -27.5t-48 -3t-49.5 30.5q-24 25 -32 51.5t-2 57t24 66.5t47 79q30 46 69 81t71 52q27 14 47.5 10.5t44.5 -22.5
q7 -5 15.5 -10.5t16 -11.5t13 -13.5t5.5 -17.5q10 -4 20 -11t16.5 -14.5t9.5 -15t0 -12.5q-7 -9 -27.5 -36.5t-43.5 -63.5q-13 -20 -26 -43t-21.5 -44t-9.5 -38t10 -24q10 -7 32.5 9t49.5 44t54 61t47 61zM73 58q3 -5 14.5 -1.5t31 18.5t47.5 44t66 76l18 26
q10 16 21.5 36.5t20.5 39.5t13 34.5t-2 20.5t-22.5 -3t-38.5 -27t-46.5 -47.5t-48.5 -63.5q-16 -23 -31 -47.5t-26 -46t-16 -37.5t-1 -22z" />
    <glyph glyph-name="b" unicode="b" horiz-adv-x="402" 
d="M452 713q14 -20 13 -42.5t-11 -41.5q-5 -9 -22 -33t-43.5 -58t-59 -74t-68.5 -81q42 26 68.5 25.5t58.5 -25.5q29 -23 34.5 -55.5t-4 -69t-31 -73t-45.5 -66.5q-40 -49 -81.5 -76.5t-79 -37t-68 -4t-48.5 23.5q-26 25 -34.5 51.5t-8 50.5t6.5 43.5t11 29.5
q10 21 23.5 45.5t26.5 47.5t24.5 42.5t18.5 30.5v1l1 1q6 9 24 36.5t42 64t52.5 78t55 79.5t49.5 68t36 44q8 9 25 4t34 -29zM340 368q-11 8 -46 -15t-90 -85q-15 -16 -23 0q-24 -38 -43 -72.5t-31 -63t-15.5 -49.5t4.5 -31q7 -10 26.5 -1t43.5 28t49 44t44 48
q23 29 42.5 60.5t31.5 59.5t14.5 48.5t-7.5 28.5z" />
    <glyph glyph-name="c" unicode="c" horiz-adv-x="357" 
d="M290 203q-5 -6 -15 1t-17.5 21t-9.5 32t8 36q23 40 29 55.5t3 18.5q-6 6 -38.5 -21t-79.5 -90q-24 -34 -39.5 -65.5t-22 -57.5t-3.5 -45t15 -28q19 -13 53.5 -8.5t76 27t86 63t83.5 99.5q4 6 13.5 1.5t16.5 -16t7.5 -30t-13.5 -40.5q-24 -39 -66 -75t-92 -57.5
t-103 -23.5t-99 28q-24 15 -41.5 37.5t-17.5 66.5q0 27 10 59.5t27 65.5t39.5 65.5t47 58.5t49.5 44.5t48 24.5q11 4 25 1.5t22 -10.5q26 -25 41.5 -42.5t22 -34t4.5 -33.5t-11 -40q-11 -24 -23.5 -44.5t-35.5 -43.5z" />
    <glyph glyph-name="d" unicode="d" horiz-adv-x="450" 
d="M402 281q-3 -5 -7 -9q-3 -5 -7.5 -10t-8.5 -11q-9 -13 -26.5 -39.5t-32.5 -55.5t-22 -55.5t5 -40.5q13 -15 39.5 -1t56.5 42.5t59 64t49 63.5q4 7 13.5 2t16 -17.5t6.5 -30.5t-14 -39q-35 -53 -71 -86t-69.5 -47.5t-62.5 -11t-50 24.5q-25 27 -30 58q-22 -26 -45 -46.5
t-47.5 -30t-50 -4.5t-50.5 31q-24 24 -32 50.5t-2 57t24 66.5t47 79q30 46 68.5 80.5t71.5 51.5q26 14 46.5 11t44.5 -22q8 -6 17 -11.5t17 -12.5q11 17 30.5 46t43.5 64.5t50 73.5t50.5 72t44.5 61t32 40q8 9 25 4t34 -29q15 -20 13.5 -42.5t-11.5 -41.5q-5 -11 -29 -46.5
t-60.5 -84.5t-82 -106.5t-93.5 -111.5zM234 199q30 39 45.5 67t21.5 46t5 27.5t-4 12.5q-6 5 -22.5 -3.5t-38 -27.5t-46.5 -47.5t-49 -62.5q-15 -23 -30 -47.5t-26 -46t-16 -37.5t-1 -21q3 -5 15 -1.5t32 18.5t48.5 44.5t65.5 78.5z" />
    <glyph glyph-name="e" unicode="e" horiz-adv-x="355" 
d="M240 450q12 3 29 2.5t33 -12.5q29 -21 44.5 -37t21 -32.5t2 -35t-12.5 -42.5q-26 -66 -71.5 -109.5t-99.5 -54.5q-20 -4 -39.5 9t-32.5 25q-11 -33 -10 -62.5t15 -39.5q19 -13 53.5 -8.5t76 27t86 62.5t84.5 99q4 6 13.5 2t16.5 -16t7 -30.5t-15 -41.5q-24 -38 -66 -74
t-91.5 -58t-101.5 -23.5t-98 28.5q-15 9 -26 19t-19 22.5t-12 28.5t-4 38q0 26 10 58t26.5 65t38 64.5t45.5 57.5t49 44.5t48 24.5zM170 257q-20 -27 -30 -47.5t-3 -24.5q6 -3 16 1.5t22.5 15t27 24.5t28.5 31q37 44 52.5 79t9.5 40q-7 5 -42.5 -25t-80.5 -94z" />
    <glyph glyph-name="f" unicode="f" horiz-adv-x="340" 
d="M414 198q13 -2 14 -13t-5 -24t-16.5 -24t-20.5 -12q-16 -1 -42 0.5t-54.5 3.5t-55.5 4t-46 2q31 -21 43.5 -52.5t10.5 -68t-15.5 -75t-34 -74t-45 -64.5t-48.5 -46q-28 -20 -51.5 -26t-43 -3t-36 12t-30.5 18q-12 8 -25 18t-22 33q-8 20 -6.5 52t12.5 63q11 38 37 91.5
t61 115.5q-2 5 -4.5 9t-4.5 8q-7 13 8.5 22.5t33.5 16.5q42 70 88.5 141.5t90 134.5t79.5 112t57 74q9 11 19.5 12.5t21 -2.5t19 -12t12.5 -16q4 -7 8 -17.5t3.5 -26t-8.5 -35.5t-27 -47q-17 -23 -45 -60.5t-60 -79.5t-64.5 -84t-59.5 -75q30 2 66.5 2t72 -1t66 -3t47.5 -4z
M144 -33q9 20 15.5 43t8 43t-3 35t-17.5 20q-17 6 -34.5 -0.5t-33.5 -15.5q-24 -39 -48 -86t-41 -89.5t-22.5 -76.5t8.5 -48q12 -12 32.5 -2.5t44 34.5t48 62t43.5 81z" />
    <glyph glyph-name="g" unicode="g" horiz-adv-x="422" 
d="M476 226q4 7 13.5 2t16 -17.5t6.5 -30.5t-14 -39q-26 -38 -50.5 -64t-53.5 -46q-38 -25 -91.5 -46.5t-107.5 -41.5q-21 -32 -44.5 -69.5t-46.5 -73t-43.5 -65.5t-35.5 -48q-15 -19 -28 -23.5t-22.5 -1.5t-17 11t-11.5 14q-14 18 -6.5 53t28.5 77q11 21 23 39.5t27.5 35
t35.5 32.5t46 31q3 4 13 17t23 30q-20 -5 -41.5 2t-42.5 29q-24 24 -32 50.5t-2.5 57t24 66t46.5 78.5q31 46 69.5 80.5t70.5 51.5q26 14 47 11t45 -22q14 -11 31 -22t18 -31q10 -4 19.5 -10.5t16 -14t10 -15t0.5 -12.5q-4 -8 -24 -41.5t-46.5 -76t-53.5 -85t-44 -69.5
q14 6 26.5 12.5t17.5 8.5q9 4 21.5 11t25.5 16t25.5 19t22.5 20q25 26 48.5 55.5t41.5 54.5zM72 59q3 -4 14.5 -0.5t31 18.5t47.5 43.5t65 75.5l18 25q10 16 21.5 36.5t20.5 39.5t13 34.5t-2 20.5t-22.5 -3t-38.5 -27t-46.5 -47.5t-48.5 -63.5q-15 -23 -30 -47t-26 -45.5
t-16.5 -37.5t-0.5 -22z" />
    <glyph glyph-name="h" unicode="h" 
d="M395 739q8 9 25.5 4t34.5 -29q14 -20 12.5 -42.5t-10.5 -41.5q-6 -11 -30 -46.5t-60.5 -85t-82.5 -107t-94 -111.5q-24 -41 -46 -78.5t-40 -69.5q39 37 80.5 77.5t81 80t74.5 76t62 65.5q5 5 9.5 5.5t7.5 1.5q8 0 21.5 -5t25 -13.5t16.5 -20t-4 -24.5q-18 -26 -42 -60
t-48.5 -69.5t-46 -70.5t-34.5 -62q-11 -23 -18 -41t1 -25q4 -4 23.5 6.5t48.5 34t63.5 60t68.5 85.5q5 8 14 3t15.5 -18t6.5 -31.5t-13 -37.5q-47 -70 -95 -105t-88.5 -42.5t-70.5 10t-41 53.5q-4 14 -2.5 31.5t6 36t12 36.5t15.5 33q2 4 4 7.5t4 7.5q-31 -31 -63.5 -61
t-62.5 -57t-54.5 -50.5t-40.5 -39.5q-6 -5 -12 -7.5t-15 -0.5q-11 3 -22.5 9t-21 14.5t-14.5 17t-1 15.5q5 9 19.5 33.5t34 57t41.5 70.5t43 75q8 15 29.5 49t49.5 77.5t60 92t63 93t57.5 80.5t43.5 54z" />
    <glyph glyph-name="i" unicode="i" horiz-adv-x="237" 
d="M242 336q-7 -12 -17.5 -27.5t-22.5 -32t-23.5 -31.5t-19.5 -26q-15 -22 -29 -47t-23 -48t-11.5 -40.5t4.5 -23.5q11 -9 35.5 6t53 42t57 60t48.5 61q4 6 13.5 1.5t16 -17t6.5 -30.5t-14 -39q-35 -53 -70 -85t-66.5 -46.5t-57 -13t-41.5 16.5q-42 39 -53.5 74.5t-3.5 69.5
t29.5 67.5t45.5 67.5q14 21 28.5 39.5t26.5 32.5t20 23.5t10 11.5q8 9 19.5 2.5t21.5 -19.5t15.5 -27.5t1.5 -21.5zM357 581q18 -12 20.5 -36.5t-12.5 -47.5t-38.5 -30.5t-41.5 4.5q-19 11 -21 35.5t13 47.5q14 23 37.5 30.5t42.5 -3.5z" />
    <glyph glyph-name="j" unicode="j" horiz-adv-x="218" 
d="M344 608q20 -13 23 -40t-14 -52q-8 -13 -19 -21.5t-23 -12.5t-24 -3t-22 8q-20 13 -23 40t13 52q17 26 43 34t46 -5zM272 226q5 7 14 2.5t15.5 -17t6.5 -30.5t-13 -39q-26 -38 -51 -64.5t-54 -45.5q-36 -25 -78.5 -44.5t-94.5 -39.5q-20 -38 -40.5 -77.5t-41 -76
t-40 -69.5t-37.5 -58q-14 -20 -27.5 -24t-25.5 0t-21.5 13t-13.5 15q-14 19 -6.5 53.5t28.5 76.5q20 38 42.5 72t51.5 64l278 484q9 12 25.5 8.5t31.5 -15t23.5 -26.5t1.5 -27t-23 -38t-35.5 -57.5t-38 -62.5t-29.5 -52q-11 -20 -26 -49t-32 -64q7 3 13.5 6t12.5 6
q9 4 21.5 11.5t25.5 16t25.5 18.5t22.5 21q25 26 48.5 55t40.5 54z" />
    <glyph glyph-name="k" unicode="k" horiz-adv-x="466" 
d="M37 199q20 35 49.5 84.5t63.5 103.5t70 109.5t69 104t60.5 85.5t44.5 54q8 8 25 3t34 -29q15 -20 13.5 -42.5t-11.5 -41.5q-5 -10 -26.5 -39t-54 -68.5t-73.5 -87t-84 -93.5q41 35 75.5 60.5t52.5 35.5q20 10 32 13t20 0t13.5 -9.5t12.5 -14.5t9 -13q10 -7 20.5 -17.5
t16 -23.5t5 -29t-11.5 -34q-11 -17 -32.5 -45.5t-52 -55.5t-69.5 -45.5t-84 -15.5q0 -33 16.5 -58.5t34.5 -33.5q16 -7 41.5 -1.5t72.5 34.5q38 24 71.5 61.5t68.5 90.5q4 6 14.5 3t18.5 -13t9 -27.5t-14 -40.5q-23 -38 -57.5 -77t-83.5 -61q-52 -23 -103.5 -25t-97.5 32
q-32 23 -49 54.5t-23 65.5q-32 -41 -56.5 -78t-41.5 -62q-10 -14 -20 -11.5t-15 6.5q-16 12 -21 29.5t-3 37.5t9 40t15.5 37t16 30t10.5 18zM289 310q-24 -22 -47.5 -45.5t-41.5 -43.5q24 5 50 14.5t61 37.5q48 38 62 63.5t8 30.5q-2 2 -10.5 -1.5t-21.5 -11t-28.5 -19
t-31.5 -25.5z" />
    <glyph glyph-name="l" unicode="l" horiz-adv-x="239" 
d="M392 737q8 9 25 4t34 -29q14 -20 13 -42.5t-11 -41.5q-5 -11 -28.5 -45.5t-59 -82.5t-80 -104t-91.5 -110q-11 -14 -19 -24t-9 -12l-16 -24t-21.5 -33.5t-22 -38t-17 -38t-7.5 -33.5t7 -24q13 -15 39.5 -1.5t56.5 42t59 64t49 63.5q4 7 13.5 2t16 -17.5t6.5 -30.5
t-14 -39q-35 -52 -71 -85t-69.5 -47.5t-62 -11t-49.5 24.5q-11 11 -17 22t-10 22q-11 29 -12 64.5t15 67.5q11 22 37 65.5t59.5 97.5t71.5 113t73.5 111.5t65 93t46.5 57.5z" />
    <glyph glyph-name="m" unicode="m" horiz-adv-x="666" 
d="M724 233q5 8 14 3t15.5 -18.5t6.5 -32t-13 -37.5q-47 -70 -95 -105t-88.5 -42t-70.5 10.5t-41 53.5q-4 13 -2.5 31t6 36.5t12 36.5t15.5 33q4 7 7.5 14t7.5 14q-33 -32 -66.5 -62.5t-64 -57.5t-56 -49.5l-42.5 -37.5q-18 -15 -39 -1q-12 8 -23.5 23.5t-2.5 39.5
q8 20 28.5 60t43.5 85q-69 -69 -130.5 -128t-112.5 -98q-9 -6 -23 -3q-11 2 -22.5 8t-20.5 14t-13 17t0 17q5 10 22 39.5t40 68t48.5 82t48.5 81t40 65.5t23 37q7 10 20.5 6t24.5 -17.5t16.5 -32.5t-3.5 -37t-23 -42.5t-29.5 -51.5t-32 -55t-31.5 -53q31 29 66.5 63
t69.5 66.5t64 60.5t50 45q32 29 52 16q26 -18 30.5 -32t-2.5 -26q-5 -8 -17 -28t-28.5 -47t-35.5 -59.5t-38 -65.5q40 36 82 75t82.5 77.5t76.5 74.5t64 66q6 7 22.5 4t31 -12t22.5 -22.5t-2 -27.5q-18 -26 -42 -60t-48.5 -70t-46 -70.5t-34.5 -61.5q-11 -23 -18 -41t1 -25
q4 -4 23.5 6.5t48.5 34t63.5 60t68.5 85.5z" />
    <glyph glyph-name="n" unicode="n" horiz-adv-x="433" 
d="M-48 57q5 10 22 39.5t40 68t48.5 82t48.5 81t40 65.5t23 37q7 10 20.5 6t24.5 -17.5t16 -32.5t-4 -37q-9 -19 -23 -44t-30 -53t-33 -56.5t-32 -53.5q38 37 78 76t77.5 77.5t71 73t59.5 62.5q7 9 24 6.5t32 -12t23 -23t-2 -27.5q-18 -26 -42.5 -60t-49 -70t-46 -70.5
t-34.5 -61.5q-11 -23 -18 -41t1 -25q4 -4 24 6.5t49 34t63.5 60t68.5 85.5q5 8 14 3t15.5 -18t6.5 -32t-13 -38q-47 -70 -95 -105t-89 -42t-71 10.5t-41 53.5q-4 13 -2.5 31t6.5 36.5t12 36.5t15 33l9 15q-32 -32 -65.5 -64.5t-64.5 -61t-57 -51.5t-43 -37q-7 -5 -22 -1.5
t-29 12.5t-23 20.5t-3 22.5z" />
    <glyph glyph-name="o" unicode="o" horiz-adv-x="419" 
d="M479 236q3 5 12.5 1t16.5 -16t8 -30t-14 -41q-14 -20 -36.5 -41.5t-48.5 -33t-53.5 -8.5t-51.5 32q-17 -24 -36.5 -45.5t-38.5 -33.5q-29 -20 -53.5 -24.5t-43.5 -1.5t-32.5 10.5t-19.5 12.5t-17.5 12t-22.5 19t-18.5 29.5t-5.5 42.5q4 49 21.5 93t40.5 80t47 62.5
t41 41.5q35 30 62 34t55 -12q40 -23 61.5 -46t28.5 -49.5t1.5 -58t-18.5 -71.5q-3 -8 -7 -16.5t-9 -18.5q3 -8 7 -15t9 -9q16 -6 46 16t69 85zM117 55q10 -8 28 3t38 31.5t39 44.5t31 43l6 10t7 11q-11 30 -18 67t-2 68q-19 -15 -40.5 -39.5t-44.5 -61.5
q-15 -24 -27.5 -52.5t-19 -54t-6.5 -44.5t9 -26z" />
    <glyph glyph-name="p" unicode="p" horiz-adv-x="382" 
d="M359 410q18 -12 34.5 -27t20 -42t-10.5 -69.5t-57 -109.5q-13 -21 -41 -51.5t-63.5 -57.5t-73 -43t-70.5 -6q-20 5 -32.5 16.5t-20.5 25.5q-25 -41 -54.5 -89t-60 -95t-60.5 -89t-55 -72q-15 -18 -27 -19t-20 7t-12.5 20.5t-4.5 20.5q-1 10 9.5 36t26 57t32.5 61.5
t29 50.5q10 16 26.5 39.5t37.5 51.5l286 411q8 4 19.5 -2t20.5 -17q39 17 68.5 12t52.5 -20zM324 375q-9 7 -29 -5.5t-43 -35t-47 -51t-42 -55.5q-46 -66 -64 -111.5t-5 -54.5q16 -11 42 6t55.5 49t58 73.5t48.5 79.5t28.5 67.5t-2.5 37.5z" />
    <glyph glyph-name="q" unicode="q" horiz-adv-x="380" 
d="M416 301q-4 -9 -22 -38t-40 -64.5t-44.5 -70t-35.5 -54.5q-12 -18 -32 -51t-45 -74t-53.5 -87t-57.5 -90t-57 -84t-52 -68q-16 -19 -27.5 -19.5t-19.5 7.5t-12.5 20t-4.5 20q-1 10 3.5 24.5t17 37.5t34.5 57.5t55 84.5q24 37 51.5 71t54.5 66l9 13q-21 -5 -42.5 2
t-43.5 29q-24 24 -32 50.5t-2 57t24.5 66t46.5 78.5q30 46 69 80.5t71 51.5q26 14 46.5 11t44.5 -22q7 -5 15.5 -10.5t16 -11.5t13 -13.5t5.5 -17.5q10 -4 19.5 -10.5t16 -14t9.5 -15t1 -12.5zM73 59q3 -4 14 -0.5t30.5 18.5t47.5 43.5t65 75.5l18 25q10 16 22 36.5
t20.5 39.5t12.5 34.5t-2 20.5t-22 -3t-38 -27t-46.5 -47.5t-48.5 -63.5q-16 -23 -31 -47t-26 -45.5t-16 -37.5t0 -22z" />
    <glyph glyph-name="r" unicode="r" horiz-adv-x="393" 
d="M447 228q4 7 13.5 2t16.5 -17.5t7 -30.5t-13 -39q-35 -53 -74.5 -85t-77 -46t-69.5 -12.5t-52 16.5q-30 23 -32 59t12.5 77t40 83.5t50.5 80.5q-15 2 -30.5 7.5t-30.5 19.5q-12 -23 -30.5 -52t-38 -58t-37 -54.5t-29.5 -40.5q-5 -7 -19.5 -7.5t-27.5 3.5t-20 13t3 21
q32 39 53.5 71.5t36 59.5t23.5 48t16 38q-10 11 -14.5 23.5t0.5 29.5q8 31 23.5 56.5t33 43.5t35 27t29.5 5q30 -9 38 -42.5t-10 -84.5q-3 -9 -9.5 -24t-22.5 -43q20 -6 46 8t53 34q3 3 9 3q10 0 18 -10q13 -13 21 -27.5t11 -27t2.5 -22t-2.5 -13.5q-6 -9 -22.5 -29.5
t-37 -48t-42 -57.5t-37.5 -57.5t-24.5 -49.5t-1.5 -32q6 -10 21.5 -6t35 17.5t42 34.5t44 44.5t40 47.5t30.5 43z" />
    <glyph glyph-name="s" unicode="s" horiz-adv-x="307" 
d="M318 471q12 -11 18 -24.5t-4 -25.5q-32 -40 -45.5 -75t-17.5 -69t-3.5 -69t-2.5 -74q-2 -17 -1.5 -37t-2.5 -39.5t-12 -36t-30 -25.5q-29 -12 -58.5 -12.5t-57 9t-51 28t-39.5 45.5q-3 5 -3.5 7t-2.5 5q-5 -1 -17 -0.5t-23 3t-17 6.5t0 10q24 23 51.5 58t56 74t56 80
t51.5 77.5t43 64.5t31 42q6 8 16.5 8.5t22 -3.5t23 -11.5t19.5 -15.5zM117 40q18 -2 29 12.5t18 38t10.5 53.5t5.5 60q2 14 2.5 28t2.5 28q-33 -41 -63.5 -77t-59.5 -66q4 -12 8.5 -25t11 -24.5t15 -19t20.5 -8.5z" />
    <glyph glyph-name="t" unicode="t" horiz-adv-x="309" 
d="M308 421q23 -1 44 -11.5t32 -23t8 -23t-28 -10.5q-6 0 -18 -0.5t-26.5 -0.5t-31 -0.5t-31.5 -0.5q-16 -22 -31.5 -43t-28.5 -39t-22.5 -31t-13.5 -18q-16 -22 -30 -47t-23.5 -48t-12.5 -40.5t5 -24.5q10 -9 33.5 -10.5t56.5 13.5t75 51.5t91 103.5q5 7 15 3.5t17 -15
t7 -29.5t-15 -40q-36 -52 -81.5 -83t-89 -44.5t-78.5 -11t-51 17.5q-42 40 -53 76t-2.5 70t30.5 67.5t46 67.5q8 11 19 26t25 34q-28 0 -42 10.5t-18.5 23.5t-0.5 23.5t13 10.5q12 0 20 0.5t17 0.5h23h40q16 22 32 43t28.5 37.5t20.5 26.5t9 12q9 10 22 5t24.5 -16.5
t18.5 -25t3 -20.5q-5 -8 -17.5 -25.5t-29.5 -41.5z" />
    <glyph glyph-name="u" unicode="u" 
d="M384 252l-17 -25.5t-23 -36.5t-23.5 -41.5t-18 -41t-7 -34.5t9.5 -22t32.5 9t49.5 43.5t54 60.5t46 61q5 7 14.5 2t16 -17.5t6.5 -30.5t-14 -39q-35 -52 -69 -83.5t-64.5 -45.5t-56 -13t-43.5 14q-17 12 -27 26t-16 31q-22 -23 -45 -40t-46.5 -24.5t-47.5 -3t-46 25.5
q-45 42 -30 110t73 153q20 30 35 51.5t26.5 36t20 24t15.5 16.5q11 10 25.5 5.5t26.5 -15.5t18 -25t0 -23l-108 -148q-16 -23 -31 -47t-25.5 -45.5t-15.5 -37.5t-1 -22q3 -5 14.5 -1.5t31 18.5t47.5 44t66 76l153 222q10 7 25 2t28 -15t20.5 -21.5t2.5 -18.5q-2 -3 -9.5 -13
t-19 -25.5t-25.5 -35t-28 -40.5z" />
    <glyph glyph-name="v" unicode="v" horiz-adv-x="414" 
d="M441 353q-2 -5 -9.5 -20.5t-19.5 -38t-28 -49.5t-35 -55q2 -14 6.5 -26.5t12.5 -15.5q17 -6 46.5 16t68.5 85q3 5 12.5 0.5t16 -17t6.5 -31.5t-15 -42q-14 -22 -38.5 -44t-52 -31.5t-56.5 -1t-52 47.5q-27 -33 -57.5 -65t-63 -49.5t-66.5 -15.5t-67 37
q-41 42 -27.5 107.5t69.5 148.5q40 58 61 84t33 40q12 13 25.5 9t25 -15t17 -26t0.5 -24l-104 -144q-16 -22 -30.5 -45.5t-24.5 -44.5t-13 -37.5t4 -22.5q15 -14 40.5 1.5t56.5 49t64 80t64 96.5q7 25 16 49.5t19.5 43t22.5 29t25 9.5q5 -1 15 -5t19 -12.5t14 -22t-1 -32.5z
" />
    <glyph glyph-name="w" unicode="w" horiz-adv-x="592" 
d="M290 141q-20 -28 -26 -49t4 -29q14 -12 38.5 4t54 50t62.5 80t63 95q7 25 16.5 49.5t20 43.5t22.5 29.5t25 8.5q5 -1 15 -5t19 -12t13.5 -21.5t-0.5 -33.5q-2 -5 -9.5 -20.5t-20 -38t-28.5 -49.5t-35 -55q2 -14 7 -26.5t13 -15.5q16 -6 46 16t69 85q3 5 12.5 1
t16.5 -15.5t7.5 -30t-13.5 -41.5q-14 -22 -38.5 -44.5t-53 -33t-58 -2.5t-52.5 47q-27 -33 -57.5 -65t-63.5 -49.5t-67 -15.5t-67 36q-3 4 -6 7.5t-5 7.5q-19 -20 -38.5 -33.5t-39.5 -17t-41.5 4.5t-44.5 31q-41 43 -27.5 108.5t69.5 148.5q20 30 35 50.5t26 34.5t19 23
t14 16q11 12 25 8.5t25.5 -14.5t17 -25.5t0.5 -23.5l-104 -145q-16 -22 -30.5 -45.5t-24.5 -44.5t-13 -37.5t4 -22.5q12 -10 28 -4t34.5 24.5t40 47t43.5 62.5q10 20 22.5 41t26.5 45q11 17 20 32.5t17 28.5q11 20 21 38t19 35q5 10 16.5 6t22 -15.5t17 -27t2.5 -27.5
q-2 -6 -14 -28t-30 -52.5t-39.5 -65t-42.5 -64.5z" />
    <glyph glyph-name="x" unicode="x" horiz-adv-x="462" 
d="M448 417q9 7 31.5 5.5t43.5 -7.5t33 -14.5t2 -16.5q-49 -35 -88.5 -66t-74 -59.5t-66.5 -56.5t-66 -57q-4 -43 3.5 -74t34.5 -31q19 0 41 11.5t44 29.5t43 40t38.5 43t30 38t17.5 25q5 9 14 3.5t15 -18.5t6 -32t-12 -37q-27 -39 -55 -66.5t-55.5 -44.5t-53.5 -24.5
t-47 -7.5q-45 0 -80 23.5t-56 59.5q-37 -31 -64.5 -53.5t-45.5 -34.5q-6 -4 -18 1t-22 14t-15.5 19t2.5 18q36 36 70 69t66 63v2q0 21 3.5 47.5t8.5 53t11.5 49.5t12.5 38q-9 -12 -16 -22t-13 -20t-12.5 -21.5t-13.5 -27.5q-6 -12 -15 -6t-15.5 22t-7.5 37t9 38
q13 24 33.5 46t50.5 41q21 13 36 16t26.5 -1t19.5 -12.5t15 -17.5q14 -18 18.5 -32t-4.5 -41q-1 -3 -4 -12.5t-6.5 -21.5t-6.5 -24t-5 -19q23 19 40.5 34t34.5 29t36.5 28.5t47.5 34.5z" />
    <glyph glyph-name="y" unicode="y" horiz-adv-x="439" 
d="M492 226q5 7 14 2t15.5 -17.5t6.5 -30.5t-13 -39q-26 -38 -51 -64t-54 -46q-37 -25 -90.5 -46.5t-107.5 -41.5q-21 -32 -44.5 -69.5t-46.5 -73t-43.5 -65.5t-35.5 -48q-15 -19 -28 -23.5t-22.5 -1.5t-17 11t-11.5 14q-14 18 -6.5 53t28.5 77q11 21 23 39.5t27.5 35
t35.5 32.5t46 31q3 5 15 20t27 35q-27 -13 -54.5 -10.5t-53.5 27.5q-44 41 -29.5 109.5t72.5 153.5q21 30 36 51t26.5 35.5t20 24t14.5 16.5q10 11 24.5 6.5t26.5 -15.5t18.5 -25.5t0.5 -22.5l-107 -148q-16 -23 -31 -47t-26 -45.5t-16 -37.5t-1 -22q4 -5 15 -1.5t30.5 18.5
t47.5 43.5t65 75.5l154 222q4 8 18.5 5t29 -12t24 -21.5t3.5 -24.5q-7 -11 -20.5 -32.5t-30 -48.5t-33.5 -55t-31 -51q-5 -9 -15.5 -25.5t-23.5 -37t-27.5 -44t-27.5 -45.5q14 7 29.5 14t20.5 10q9 4 21.5 11t25.5 16t25.5 19t22.5 20q25 26 48.5 55.5t40.5 54.5z" />
    <glyph glyph-name="z" unicode="z" horiz-adv-x="413" 
d="M135 22q-8 -3 -24 2.5t-30 14.5t-21 19t2 15q61 36 112.5 81.5t91.5 104.5q21 31 31.5 52t13.5 34.5t1 20.5t-6 12q-6 7 -19.5 10.5t-34.5 -4t-50 -30t-66 -67.5q-6 -8 -12.5 3t-9 29.5t1 41t17.5 38.5q23 26 50.5 38t53 15t45 0t26.5 -6q70 -31 79.5 -83.5t-26.5 -118.5
q-25 -45 -53.5 -85.5t-63.5 -68.5q13 -1 27 -6q19 -8 33 -19q31 21 55 40.5t42.5 39t34 39.5t30.5 42q5 7 15 2t16.5 -17.5t6.5 -31t-15 -38.5q-17 -23 -34.5 -41.5t-35.5 -33.5t-37.5 -28.5t-40.5 -26.5q8 -23 9 -50t-7 -58q-9 -32 -36.5 -73.5t-65 -75.5t-80 -52.5
t-81.5 -4.5q-33 12 -46.5 29t-13.5 37t10 41.5t25.5 42.5t33.5 40t32 34q29 30 58.5 56.5t70.5 52.5q-33 18 -115 -8zM254 -78q10 22 15 41q-30 -24 -58 -52t-51 -55q-38 -45 -59.5 -73t-13.5 -39q4 -5 15.5 2t26.5 20.5t31.5 30.5t30.5 32q19 20 35 43.5t28 49.5z" />
    <glyph glyph-name="braceleft" unicode="{" horiz-adv-x="430" 
d="M251 399q44 9 74 38t53.5 67.5t43.5 80.5t44 78.5t55 62t76 30.5q10 1 26 -7.5t28.5 -19.5t17 -21t-8.5 -11q-31 -3 -56.5 -25.5t-46.5 -52.5t-38 -63t-31 -57q-15 -25 -31 -49.5t-35 -45.5t-42 -37t-52 -24q9 -35 5 -64t-17 -56t-31 -53.5t-36 -56.5q-11 -18 -28 -44.5
t-30 -55t-18 -56.5t7 -50q6 -12 -4.5 -12.5t-26.5 5t-32 14.5t-20 18q-12 22 -11 47t9 49.5t20.5 48t23.5 42.5q17 31 39.5 61.5t40.5 62.5t26 66.5t-4 72.5q-2 9 1.5 12t8.5 5z" />
    <glyph glyph-name="bar" unicode="|" horiz-adv-x="365" 
d="M27 -1q20 33 50 81.5t64.5 105t72 118t73.5 120.5q84 138 178 293q6 8 19 2.5t24 -18t16.5 -29.5t-2.5 -31q-26 -47 -60.5 -105t-73 -122.5t-80 -132t-82 -132.5t-77 -125t-66.5 -109q-5 -9 -18 -2t-24 21.5t-17 32.5t3 32z" />
    <glyph glyph-name="braceright" unicode="}" horiz-adv-x="485" 
d="M445 252q-44 -10 -74 -39t-53.5 -67t-43.5 -80.5t-43.5 -79t-55 -62t-76.5 -30.5q-10 -1 -26 8t-29 20t-17.5 20.5t9.5 11.5q31 3 56.5 25.5t46.5 52.5t38 62.5t31 56.5q15 25 31 50t35 46t42 36.5t52 23.5q-9 36 -5 65t17 56t31.5 53.5t36.5 56.5q11 18 27.5 44.5
t29.5 55t18 56.5t-7 50q-6 12 4.5 12.5t26.5 -5t31.5 -14.5t20.5 -18q12 -22 11 -47t-9 -49.5t-20.5 -48t-23.5 -42.5q-17 -31 -39.5 -61.5t-40.5 -63t-26 -66.5t4 -72q3 -9 -1 -12.5t-9 -4.5z" />
    <glyph glyph-name="asciitilde" unicode="~" horiz-adv-x="430" 
d="M418 230q5 3 9.5 -1.5t5 -13.5t-3 -20t-15.5 -21q-29 -22 -60 -26t-63 16q-15 9 -31 19.5t-32 17.5t-32.5 7t-33.5 -13q-16 -12 -20 -6.5t-1 17.5t10.5 25.5t14.5 18.5q31 23 63.5 28t67.5 -15q13 -8 28 -19t30 -18t31 -7.5t32 11.5z" />
    <glyph glyph-name="exclamdown" unicode="&#xa1;" horiz-adv-x="370" 
d="M131 -76q-5 -9 -21.5 -2t-31.5 23.5t-22 38.5t6 43q45 74 86 138t81.5 125t81 122.5t85.5 130.5q6 9 20 3.5t26.5 -20t18 -35t-7.5 -40.5zM550 717q18 -12 20.5 -36.5t-12.5 -47.5q-14 -23 -37.5 -30.5t-42.5 4.5q-18 11 -20.5 35.5t12.5 47.5t38.5 30.5t41.5 -3.5z" />
    <glyph glyph-name="cent" unicode="&#xa2;" horiz-adv-x="579" 
d="M416 388q17 15 37 34t37.5 39.5t30 42.5t14.5 45q2 26 -16 27.5t-44 -9.5t-54 -29t-44 -31q-59 -46 -102.5 -103t-68 -112.5t-27.5 -102.5t18 -74q12 -15 35.5 -21t56 -1.5t71.5 21t81 47.5q32 24 64 57.5t61 78.5q6 9 12 5.5t9 -15.5t0.5 -29.5t-13.5 -36.5
q-24 -40 -59 -76t-75.5 -62.5t-84.5 -39.5t-87 -6q-19 -36 -35 -65t-29 -53q-3 -6 -13.5 -3t-20.5 11.5t-15.5 21t0.5 24.5q3 7 8.5 18t12 23.5l13 25t12.5 23.5q-18 12 -35 28.5t-32 39.5q-19 28 -19 68.5t11.5 83t31.5 83t41 70.5q23 32 56.5 65t71.5 60t79.5 43.5
t81.5 14.5h3l58 110q4 7 13 3t17.5 -13.5t13.5 -21.5t0 -22q-8 -17 -18.5 -36t-21.5 -37q26 -14 40 -37.5t2 -58.5t-32.5 -64.5t-62.5 -59.5q-9 -7 -29.5 -12.5t-38 -6t-25.5 4.5t9 20z" />
    <glyph glyph-name="sterling" unicode="&#xa3;" horiz-adv-x="660" 
d="M658 320q6 9 12.5 5.5t9 -15.5t0 -30t-14.5 -36q-22 -33 -50.5 -63t-61 -52t-66 -35t-65 -12.5t-58.5 15.5t-46 50q-20 -26 -44.5 -47.5t-57.5 -28.5q-19 -4 -37.5 2t-33 18t-23 28t-7.5 34q1 22 10.5 46.5t24.5 46.5t35 40t43 28q30 14 54.5 5t44.5 -35q8 13 15 26
t15 26l-52 -4q-11 -2 -23.5 5.5t-21.5 17.5t-12 18.5t6 9.5q16 2 53 5.5t80 7.5q6 13 12 25.5t11 26.5q10 24 21 53t26 56t34 47t44 25q10 2 22.5 -2t24.5 -11t21 -16t13 -17q9 -22 5.5 -55t-23.5 -67q-6 -10 -19.5 -18t-26 -11t-20 0t-1.5 17q32 66 38 94t-2 32
t-20.5 -13.5t-26.5 -44.5t-28 -58.5t-25 -56.5q26 2 46.5 3.5t30.5 1.5q12 1 25 -7t22 -17.5t11.5 -17.5t-7.5 -8l-155 -14q-17 -34 -37 -66.5t-41 -64.5q7 -29 13 -47t12 -28.5t13 -14.5t16 -4q17 0 50 15.5t71 48.5q19 16 35 31t30 31t28 34.5t28 41.5zM174 110
q7 -3 19 5.5t27 24t33 38t36 48.5q-9 20 -21.5 25t-35.5 -13q-15 -11 -33 -34q-18 -24 -25.5 -41.5t-8 -29t2.5 -17t6 -6.5z" />
    <glyph glyph-name="currency" unicode="&#xa4;" horiz-adv-x="335" 
d="M394 508q5 4 10 -2.5t7 -16.5t0.5 -21t-8.5 -17q-8 -5 -16.5 -12.5t-28.5 -23.5q0 -14 -4 -30.5t-10 -35.5q-5 -14 -16.5 -34t-25.5 -40q8 -15 13 -26t7 -16q3 -9 -0.5 -20t-10.5 -19t-14.5 -11.5t-11.5 4.5q-3 5 -9 19t-13 29q-1 -1 -1.5 -1t-1.5 -1q-20 -13 -36 -16
t-29 -1t-21.5 7t-12.5 8q-3 2 -8 5t-10 7q-18 -14 -31.5 -25t-19.5 -16q-8 -7 -12.5 -1.5t-6 16t1 22.5t8.5 18q5 5 13 11.5t22 17.5v14q2 45 22.5 83.5t42.5 64.5q-5 13 -9 23t-6 17q-3 7 0.5 19t10 22t13.5 13t12 -9q5 -11 9.5 -21.5t9.5 -23.5q21 17 38 18.5t34 -8.5
q29 -16 44 -34q25 20 36 29t19 15zM270 337q7 10 16 28t15 36t7 33.5t-8 20.5q-3 2 -12 -1t-21.5 -12.5t-27.5 -26t-30 -41.5q-10 -16 -18 -34.5t-12.5 -35.5t-4.5 -30t6 -18q7 -5 18.5 2t25 20.5t26 30t20.5 28.5z" />
    <glyph glyph-name="yen" unicode="&#xa5;" horiz-adv-x="586" 
d="M632 616q6 6 22 6.5t32 -3t25 -10.5t2 -15q-54 -57 -107.5 -121t-105.5 -132q5 1 8.5 1h6.5q12 1 25 -7t22 -18t11.5 -18t-7.5 -8l-110 -9q-10 -14 -20 -28.5t-20 -28.5q8 1 15 1h12q12 1 25 -7t22 -18t11.5 -18t-7.5 -8l-118 -11q-20 -32 -39 -62.5t-36 -62.5
q-3 -6 -14 -2.5t-21 12.5t-16 21t0 22q11 19 17.5 31t18.5 32q-11 -2 -24 5.5t-22 17.5t-11.5 18.5t6.5 9.5q14 2 36.5 4.5t48.5 5.5q8 14 15.5 28.5t13.5 28.5l-73 -6q-11 -2 -24 5.5t-22 17t-11.5 18t6.5 10.5q17 2 58 5.5t89 8.5q12 41 15 83.5t-7 89.5q-8 39 -20 53.5
t-26 11.5t-28.5 -20.5t-28.5 -40.5t-25.5 -49t-19.5 -46q-4 -10 -11.5 -4.5t-13.5 19.5t-8.5 34t3.5 40q9 31 26 58t40.5 42t54 13.5t66.5 -27.5q35 -26 54 -74t16 -101q41 54 84 104.5t89 97.5z" />
    <glyph glyph-name="brokenbar" unicode="&#xa6;" horiz-adv-x="372" 
d="M27 -1q41 66 74.5 120t57.5 93q28 45 50 81q6 8 19 2.5t24 -18t16.5 -29.5t-2.5 -31q-26 -47 -41.5 -74t-26 -44t-18.5 -29.5t-19.5 -30.5t-29.5 -46.5t-48 -77.5q-5 -9 -18 -2t-24 21.5t-17 32.5t3 32zM289 424q41 66 74.5 120t57.5 93q28 45 51 81q6 8 19 2.5t24 -18
t16.5 -29.5t-2.5 -31q-26 -47 -41.5 -74t-26 -44t-19 -29.5t-20 -30.5t-29.5 -46.5t-48 -77.5q-5 -9 -18 -2t-24 21.5t-17 32.5t3 32z" />
    <glyph glyph-name="section" unicode="&#xa7;" horiz-adv-x="635" 
d="M422 256q28 -15 56.5 -31.5t48.5 -38t26.5 -50.5t-10.5 -69q-3 -8 -9 -18.5t-15.5 -21t-23 -19t-31.5 -10.5q9 -28 -1 -57q-12 -35 -43 -51t-72 -18t-87.5 7.5t-91 25t-82.5 35.5t-61 38q-6 4 0.5 11t19 12t27.5 6.5t25 -4.5q15 -8 39.5 -19.5t53 -22t58 -18.5t55.5 -10
t44.5 3.5t25.5 22.5q4 11 -6 21.5t-26.5 19.5t-35.5 17t-32 15q-27 14 -48 27.5t-34 24.5q-32 25 -39.5 48.5t1.5 49.5q17 48 38 70.5t51 30.5q-25 27 -37 56q-14 35 -9 75t23.5 80.5t46.5 79.5t58.5 72.5t60.5 60t53 41.5q41 27 90 50.5t96 30.5t87.5 -9t64.5 -67
q15 -32 10 -72.5t-25 -83.5t-53 -85.5t-74.5 -78t-88.5 -61.5t-96 -36q-26 -5 -53 0t-46.5 13.5t-26.5 17t8 11.5q52 10 100.5 33.5t90.5 56.5t76 74.5t58 88.5q4 7 13 25t17 38t11.5 38.5t-3.5 27.5q-3 4 -11.5 7.5t-24 2t-39.5 -10.5t-58 -29q-26 -16 -59 -40.5t-66 -56
t-63.5 -67t-51.5 -73t-29 -74.5t4 -71q5 -14 17.5 -26t29.5 -23t37.5 -21.5t40.5 -21.5zM502 88q5 10 -7.5 24t-33.5 28.5t-45 27t-42 21.5q-15 7 -41 14t-51.5 10t-46 0.5t-25.5 -14.5q-2 -5 4 -15.5t21.5 -24.5t41.5 -29.5t63 -30.5q24 -9 50.5 -15.5t49.5 -8t40 1
t22 11.5z" />
    <glyph glyph-name="dieresis" unicode="&#xa8;" horiz-adv-x="833" 
d="M115 572q15 -10 17 -30t-10 -39q-13 -19 -32 -25t-34 4q-16 10 -18 30t11 39q12 19 31 25t35 -4zM225 511q15 -10 17 -30t-10 -39q-13 -19 -32 -25.5t-34 3.5q-16 11 -18 30.5t11 39.5q12 19 31 25t35 -4z" />
    <glyph glyph-name="copyright" unicode="&#xa9;" horiz-adv-x="429" 
d="M395 691q25 -15 42 -38t24 -50t3.5 -56.5t-18.5 -56.5t-38.5 -45.5t-50 -27t-55 -6t-54.5 16.5q-26 15 -43 38t-24 50t-3 56.5t19 56.5t38 45.5t50 27t55.5 6t54.5 -16.5zM416 507q13 24 17 48.5t0 47t-16.5 41t-31.5 29.5q-20 11 -42 11.5t-43.5 -7.5t-40.5 -24.5
t-32 -40.5t-17 -48.5t0 -47t16 -41t32 -29.5q19 -11 41.5 -11.5t43.5 7.5t40 24.5t33 40.5zM292 587q-22 -26 -30.5 -54.5t1.5 -43.5q2 -4 8.5 -6t17 -1t24 6.5t29.5 16.5q8 6 21 19.5t24 30.5q3 4 6 2t4.5 -7.5t0.5 -13.5t-5 -15q-16 -26 -43 -46t-56 -20q-16 0 -31.5 8
t-27.5 27q-7 11 -7 28q0 21 9 43.5t21 37.5q12 16 28.5 31t35 24.5t37 10t35.5 -13.5q4 -3 7 -9.5t2 -15.5t-8.5 -20.5t-24.5 -25.5q-7 -6 -15.5 -7.5t-14.5 0t-9 5t2 6.5q7 5 15 13.5t14.5 17.5t9.5 16t0 10t-12 -1t-20.5 -11.5t-24.5 -18.5t-23 -23z" />
    <glyph glyph-name="ordfeminine" unicode="&#xaa;" horiz-adv-x="491" 
d="M434 577q3 4 9 1t9.5 -11t3.5 -19.5t-9 -24.5q-44 -66 -84 -82t-63 0q-10 8 -14 18t-5 22q-14 -16 -28.5 -28t-29.5 -17.5t-30.5 -2t-30.5 19.5q-31 31 -21.5 68.5t45.5 92.5q19 29 43 51t45 32q17 9 30 7t28 -14q9 -6 20 -13t11 -20q14 -5 24 -16t6 -18q-5 -5 -18 -22.5
t-28 -40.5q-8 -13 -16 -27.5t-13.5 -27.5t-6 -23.5t6.5 -15.5q6 -5 20.5 5.5t31.5 28t34 38.5t30 39zM175 470q2 -3 9 -0.5t19.5 12t30 27.5t41.5 48l12 16q6 10 13.5 23t13 25t8 22t-1.5 13t-14.5 -2t-24 -17t-29.5 -30t-31 -40q-10 -14 -19.5 -29.5t-16 -29.5t-10 -24
t-0.5 -14zM186 341q-15 -2 -30.5 7t-25.5 20.5t-12 21.5t11 11q23 2 50.5 4t55.5 3t55.5 1.5t50.5 0.5q16 0 32.5 -9.5t26.5 -20.5t11 -20.5t-12 -8.5z" />
    <glyph glyph-name="guillemotleft" unicode="&#xab;" horiz-adv-x="452" 
d="M280 198q-4 7 -5.5 16t-1 18t3.5 16.5t7 10.5q10 7 33 21.5t49 30.5t50 30.5t36 22.5q7 4 10 -2.5t3 -18t-3 -23t-8 -15.5q-5 -5 -21.5 -17t-35 -26.5t-36 -27t-23.5 -16.5q5 -8 14.5 -25t23.5 -40q5 -9 3 -21.5t-7 -23t-12 -15.5t-12 1t-13.5 18.5t-18 27t-19 30
t-17.5 28.5zM146 198q-4 7 -5.5 16t-1 18t3.5 16.5t7 10.5q10 7 33 21.5t49 30.5t50 30.5t36 22.5q7 4 10 -2.5t3 -18t-3 -23t-8 -15.5q-5 -5 -21.5 -17t-35 -26.5t-36 -27t-23.5 -16.5q5 -8 14.5 -25t23.5 -40q5 -9 3 -21.5t-7 -23t-12 -15.5t-12 1t-13.5 18.5t-18 27
t-19 30t-17.5 28.5z" />
    <glyph glyph-name="registered" unicode="&#xae;" horiz-adv-x="445" 
d="M395 691q26 -15 43 -38t24 -50t3 -56.5t-19 -56.5t-38 -45.5t-50 -27t-55.5 -6t-54.5 16.5q-26 15 -43 38t-24 50t-3 56.5t19 56.5t38 45.5t50 27t55.5 6t54.5 -16.5zM416 507q13 24 17 48.5t0 47t-16.5 41t-31.5 29.5q-20 11 -42 11.5t-43.5 -7.5t-40.5 -24.5t-32 -40.5
t-17 -48.5t0 -47t16 -41t32 -29.5q19 -11 41.5 -11.5t44 7.5t40.5 24.5t32 40.5zM339 663q13 -1 25.5 -7t22 -15.5t16 -22t6.5 -25.5t-6 -27.5t-19.5 -26.5t-34 -20.5t-47.5 -10.5q10 -18 33 -17t45 14q3 2 4 -3t-2.5 -12.5t-11 -14.5t-20.5 -9q-17 -3 -29.5 0t-21.5 9.5
t-15 14.5t-9 14q-5 -8 -10.5 -17t-7.5 -12t-6.5 -2t-9 4.5t-8 7.5t-1.5 7t7 11t11 18t12 19.5t9 14.5q-25 19 -25 43q0 9 5 19q12 26 34.5 36.5t43.5 10.5q2 0 4.5 -0.5t5.5 -0.5zM291 529q19 2 36 9.5t29 18.5t18.5 24.5t5.5 28.5q-2 17 -14.5 24.5t-27.5 7.5
q-16 0 -28 -5.5t-20.5 -14t-12.5 -18t-4 -17.5q0 -9 8 -16q5 7 11 16.5t11 18t9 15t5 8.5q3 4 7.5 3t8.5 -5.5t6 -10.5t0 -10q-10 -16 -23.5 -37.5t-24.5 -39.5z" />
    <glyph glyph-name="degree" unicode="&#xb0;" horiz-adv-x="324" 
d="M288 634q44 -24 51 -64t-10 -84q-9 -20 -23 -37t-31.5 -26.5t-38 -10.5t-42.5 11q-41 23 -51 65t10 83q9 20 23 37t31.5 27t38 10.5t42.5 -11.5zM204 453q6 -3 14.5 1t17.5 13t17.5 22t15.5 27q6 13 10 27.5t5.5 26.5t0 20.5t-6.5 11.5q-6 3 -14 -0.5t-16.5 -12
t-16.5 -20t-14 -23.5q-6 -14 -11 -29t-7 -28.5t-1 -23.5t6 -12z" />
    <glyph glyph-name="plusminus" unicode="&#xb1;" horiz-adv-x="408" 
d="M149 49q-12 -2 -26 5t-23.5 16t-12 17.5t8.5 10.5q38 5 76 8t76 5q13 0 27.5 -7.5t24 -17t11 -17t-9.5 -7.5zM344 269q14 1 28.5 -7t23.5 -17.5t11 -17t-10 -7.5l-103 -8q-14 -24 -25 -46t-19 -39q-3 -6 -10.5 -1.5t-15 13.5t-12.5 19.5t-2 17.5q2 8 5.5 15.5t7.5 15.5
l-13 -1q-12 -2 -26 5.5t-23.5 16.5t-12 17.5t8.5 10.5q20 2 45 4t51 4q14 24 28 46.5t27 43.5q4 7 12 2.5t15.5 -14t11.5 -20.5t1 -17q-5 -8 -11 -17.5t-11 -19.5q5 1 9.5 1h8.5z" />
    <glyph glyph-name="uni00B2" unicode="&#xb2;" horiz-adv-x="499" 
d="M430 602q-21 -34 -48 -59.5t-53 -45.5q-5 -4 -10 -9t-11 -10q2 -6 4 -9q6 -14 12.5 -17t15 2.5t19.5 18t25 29.5q3 4 7 1.5t7 -8.5t3.5 -13t-2.5 -12q-10 -15 -24.5 -25.5t-30.5 -12.5t-30.5 4.5t-24.5 24.5q-1 0 -1 1q-17 -14 -35 -24t-34 -8q-21 3 -31.5 21.5t1.5 37.5
q7 12 18.5 20.5t24 12.5t25.5 2t22 -10q4 -2 5 -3q11 8 22.5 17t22.5 19q28 25 48 50.5t31 47.5t12.5 38.5t-6.5 22.5q-6 4 -15.5 1.5t-19.5 -9t-19 -15.5t-15 -16q-40 -47 -37 -111q0 -5 -5 -5t-11.5 4.5t-12 11.5t-6.5 15q-3 39 15 76t52 57q22 13 49 17t46 -19
q20 -24 16.5 -53.5t-21.5 -57.5zM242 477q6 4 11.5 8.5t10.5 8.5q-6 4 -13.5 4t-18.5 -8q-17 -11 -21 -19.5t-2 -10.5q3 -4 14 3.5t19 13.5z" />
    <glyph glyph-name="uni00B3" unicode="&#xb3;" horiz-adv-x="459" 
d="M316 592q-6 -2 -13 1.5t-12.5 8t-7.5 9.5t3 6q34 12 57.5 28t37 31.5t17 28.5t-1.5 19t-16 4.5t-23 -8.5t-24 -19.5t-18 -30.5q-1 -4 -7 -1.5t-11.5 7.5t-9 12.5t0.5 14.5q10 19 30 32.5t42 16.5t41 -6.5t28 -34.5q5 -14 3 -27.5t-15 -27.5q-17 -19 -33.5 -28.5
t-30.5 -15.5q33 -10 45 -53q5 -20 -5 -44t-41 -50q-14 -12 -31 -20t-36.5 -11t-39.5 0t-38 13q-9 5 -15 13.5t-7 19.5q-2 18 5 32.5t18 25.5t25.5 18.5t29.5 10.5q10 2 18.5 -0.5t14.5 -6t8 -7.5t-1 -5q-29 -8 -46.5 -21t-26.5 -26.5t-10.5 -24.5t1.5 -15q4 -5 15 -5
t24.5 4.5t29 12t29.5 18.5q13 10 23 22t15.5 24.5t6 24.5t-6.5 22q-10 15 -41 8z" />
    <glyph glyph-name="acute" unicode="&#xb4;" horiz-adv-x="833" 
d="M213 443q-11 -3 -25.5 2t-25 12.5t-14 15.5t6.5 12q31 11 62 22.5t63 20.5q12 3 25.5 -3t23.5 -15.5t13 -19t-5 -11.5q-15 -5 -33.5 -10t-36 -10.5t-32 -9.5t-22.5 -6z" />
    <glyph glyph-name="mu" unicode="&#xb5;" 
d="M487 225q3 5 9.5 3.5t12.5 -7.5t10.5 -16t4.5 -23q0 -21 -14 -42q-52 -77 -101 -109.5t-86 -32.5q-27 0 -46 14q-17 12 -27 26t-16 31q-29 -29 -59.5 -49.5t-61.5 -20.5q-17 0 -32.5 6.5t-31.5 21.5l-5 4q-30 -53 -52.5 -97.5t-33.5 -70.5q-6 -15 -18 -11t-22.5 17.5
t-16 32t0.5 33.5q19 43 47.5 102t61.5 120.5t69.5 119.5t72.5 100q12 15 20 24.5t16 16.5q11 10 25.5 5.5t26.5 -15.5t18 -25t0 -23l-108 -148q-2 -2 -3.5 -5t-3.5 -5q-11 -18 -22.5 -37.5t-23.5 -39.5q-13 -23 -19 -41t-1 -24q3 -5 14.5 -1.5t31 18.5t47.5 44t66 76
l153 222q10 7 25 2t28 -15t20.5 -21.5t2.5 -18.5q-2 -3 -9.5 -13t-19 -25.5t-25.5 -35t-28 -40.5l-17 -25.5t-23 -36.5t-23.5 -41.5t-18 -41t-7 -34.5t9.5 -22t32.5 9t49.5 43.5t54 60.5t46 61z" />
    <glyph glyph-name="paragraph" unicode="&#xb6;" horiz-adv-x="677" 
d="M757 661q5 9 17.5 3.5t24 -19t17.5 -31.5t-3 -34q-5 -10 -10.5 -19t-10.5 -18q3 -8 6 -14.5t5 -14.5q4 -11 1.5 -20.5t-8.5 -14.5t-13 -5t-11 8q-2 3 -3.5 6.5t-3.5 6.5q-41 -72 -82.5 -140.5t-84.5 -136.5t-88 -136.5t-93 -140.5q-6 -8 -20.5 -3t-28 16t-21.5 26t0 26
q35 51 68.5 101t66.5 101q-14 -2 -26 -2h-24q-39 -61 -80.5 -124.5t-90.5 -137.5q-6 -8 -20.5 -3t-28.5 16.5t-21.5 26t0.5 26.5q36 53 71.5 106t70.5 107q-33 16 -65.5 50t-51 79t-18.5 97.5t32 107.5q45 78 110.5 117t137 44.5t139.5 -20t118 -75.5q12 20 22 38zM520 266
q49 77 95.5 154t92.5 155q-36 39 -74.5 57.5t-76.5 21.5t-73.5 -7t-66 -29t-54 -44t-37.5 -52q-16 -32 -23 -67.5t-2.5 -69t21 -62t46.5 -45.5q54 84 104 167.5t98 168.5q4 9 17 3.5t24.5 -19t17.5 -31.5t-3 -34q-45 -78 -84 -144.5t-78 -129.5q13 1 27 2.5t29 4.5z" />
    <glyph glyph-name="periodcentered" unicode="&#xb7;" horiz-adv-x="833" 
d="M396 403q20 -13 23 -40t-14 -52q-8 -13 -19 -21.5t-23 -12.5t-24 -3t-22 8q-20 13 -23 40t14 52q16 26 42 34t46 -5z" />
    <glyph glyph-name="cedilla" unicode="&#xb8;" horiz-adv-x="833" 
d="M510 -55q12 -25 4.5 -44.5t-25.5 -32.5t-41 -19t-42 -5q-18 1 -29.5 8.5t-17 16t-4 15t10.5 6.5q12 0 30.5 2t36.5 7.5t30 14t10 20.5q-2 7 -8.5 9t-14.5 0.5t-15 -4t-9 -3.5q-6 -3 -17 0t-21.5 9t-18 14t-4.5 16q5 14 14 32.5t14 36.5q2 6 13 4t23 -8t21 -15t7 -18
q-2 -8 -5 -15.5t-6 -15.5q20 4 38 -5t26 -26z" />
    <glyph glyph-name="uni00B9" unicode="&#xb9;" horiz-adv-x="397" 
d="M352 697q-17 -27 -38.5 -62t-43 -71t-42.5 -71t-38 -62q-2 -3 -7.5 -2t-11.5 4.5t-10 8t-2 7.5l114 186q-9 -7 -17.5 -13.5t-17.5 -14.5q-3 -2 -9 0t-11.5 5.5t-8.5 8t1 7.5q28 23 56 44t56 44q3 2 8.5 0.5t10.5 -5t8.5 -7.5t2.5 -7z" />
    <glyph glyph-name="ordmasculine" unicode="&#xba;" horiz-adv-x="409" 
d="M176 341q-15 -2 -30.5 7t-25.5 20.5t-12 21.5t11 11q23 2 50.5 4t55.5 3t55.5 1.5t50.5 0.5q16 0 32.5 -9.5t26.5 -20.5t11 -20.5t-12 -8.5zM330 702q25 -15 39 -30t18.5 -32t1 -37t-11.5 -46q-4 -11 -12.5 -27t-20 -31.5t-24 -30t-25.5 -22.5q-18 -12 -33.5 -15.5
t-27.5 -1.5t-20.5 7t-12.5 8t-12 8t-15.5 12.5t-12 19t-2.5 27.5q1 31 12.5 59t26.5 50.5t31 40t27 27.5q21 19 38.5 21.5t35.5 -7.5zM305 546q7 10 15 27t14 34.5t7 32.5t-6 20q-3 2 -11.5 -1t-20.5 -12t-26.5 -25t-29.5 -40q-10 -16 -17.5 -34t-12 -34t-4.5 -28.5t5 -16.5
q7 -5 18.5 2t24 19.5t24.5 28t20 27.5z" />
    <glyph glyph-name="guillemotright" unicode="&#xbb;" horiz-adv-x="477" 
d="M326 256q4 -7 5.5 -16t0.5 -18t-3.5 -16.5t-6.5 -10.5q-11 -8 -33.5 -22t-48.5 -30t-50 -30.5t-36 -22.5q-7 -5 -10 2t-3 18.5t3 22.5t8 16q5 4 21.5 16.5t35 27t36 26.5t23.5 17q-5 8 -14.5 25t-23.5 40q-5 9 -3 21.5t7 23t12 15.5t12 -1t13.5 -18.5t18 -27t19 -30
t17.5 -28.5zM460 256q4 -7 5.5 -16t0.5 -18t-3.5 -16.5t-6.5 -10.5q-11 -8 -33.5 -22t-48.5 -30t-50 -30.5t-36 -22.5q-7 -5 -10 2t-3 18.5t3 22.5t8 16q5 4 21.5 16.5t35 27t36 26.5t23.5 17q-5 8 -14.5 25t-23.5 40q-5 9 -3 21.5t7 23t12 15.5t12 -1t13.5 -18.5t18 -27
t19 -30t17.5 -28.5z" />
    <glyph glyph-name="onequarter" unicode="&#xbc;" horiz-adv-x="700" 
d="M439 706q-23 -35 -50 -80t-55.5 -92t-55.5 -92t-49 -80q-2 -5 -9.5 -3.5t-15 6t-13 10t-2.5 10.5l148 241q-22 -17 -46 -36q-4 -3 -12 -0.5t-15 7.5t-11 11t1 9q37 29 73.5 57t72.5 57q3 3 10.5 1t14.5 -6.5t11.5 -10t2.5 -9.5zM456 76q-5 0 -12.5 4t-14.5 9.5t-11 11
t-1 8.5q63 63 114.5 129t105.5 133q3 4 10.5 2t15 -6.5t12 -10t2.5 -8.5q-48 -61 -96 -121.5t-102 -116.5q29 5 57.5 12t56.5 15l74 118q3 4 9 1t11 -10.5t7 -17.5t-4 -20q-13 -21 -22.5 -36t-17.5 -28q10 -6 18.5 -15t-1.5 -11q-9 -1 -18 -3l-18 -4q-13 -22 -27 -45
t-37 -60q-2 -4 -9.5 -2.5t-15 6t-12.5 10t-2 9.5l40 65q-28 -6 -56 -11t-56 -7zM645 723q5 7 12 1t13 -16.5t9 -22t-1 -17.5q-8 -10 -30 -41.5t-54 -77t-70 -101.5t-78 -113.5t-78.5 -113.5t-70 -102t-54 -78.5t-30.5 -42.5q-7 -9 -14 -4t-12 16t-7 23.5t1 19.5q2 5 22.5 35
t52.5 76.5t72 104.5t81.5 118.5t82 118.5t73.5 104.5t54.5 77t25.5 35.5z" />
    <glyph glyph-name="onehalf" unicode="&#xbd;" horiz-adv-x="775" 
d="M439 706q-23 -35 -50 -80t-55.5 -92t-55.5 -92t-49 -80q-2 -5 -9.5 -3.5t-15 6t-13 10t-2.5 10.5l148 241q-22 -17 -46 -36q-4 -3 -12 -0.5t-15 7.5t-11 11t1 9q37 29 73.5 57t72.5 57q3 3 10.5 1t14.5 -6.5t11.5 -10t2.5 -9.5zM645 723q5 7 12 1t13 -16.5t9 -22
t-1 -17.5q-8 -10 -30 -41.5t-54 -77t-70 -101.5t-78 -113.5t-78.5 -113.5t-70 -102t-54 -78.5t-30.5 -42.5q-7 -9 -14 -4t-12 16t-7 23.5t1 19.5q2 5 22.5 35t52.5 76.5t72 104.5t81.5 118.5t82 118.5t73.5 104.5t54.5 77t25.5 35.5zM750 206q-28 -45 -63.5 -77.5
t-69.5 -60.5q-5 -5 -12.5 -10.5t-15.5 -13.5q3 -5 6 -12q8 -18 16.5 -21.5t19.5 4t25 23.5t32 38q5 6 10.5 2.5t9 -11.5t4.5 -17.5t-3 -15.5q-13 -20 -32.5 -33.5t-40.5 -16.5t-40 6t-32 32q-1 0 -1 1q-22 -18 -46 -31t-45 -10q-27 5 -40.5 28t1.5 49q10 16 25 27t31.5 16
t33 3t29.5 -13l5 -5q30 22 59 48q37 32 63.5 65.5t40.5 62.5t16.5 50t-8.5 29q-8 6 -20.5 2t-25 -12.5t-25 -19.5t-20.5 -21q-51 -62 -47 -145q0 -7 -7 -6.5t-15.5 6t-15.5 15t-8 20.5q-4 51 19.5 98.5t68.5 74.5q14 9 30.5 15t33 7.5t32 -4.5t27.5 -21q26 -32 22 -70
t-27 -75zM503 43q8 6 15 11.5t14 11.5q-8 5 -18.5 4.5t-24.5 -9.5q-21 -16 -26 -26.5t-3 -13.5q4 -5 18 4.5t25 17.5z" />
    <glyph glyph-name="threequarters" unicode="&#xbe;" horiz-adv-x="735" 
d="M499 76q-5 0 -12.5 4t-14.5 9.5t-11 11t-1 8.5q63 63 114.5 129t105.5 133q3 4 10.5 2t15 -6.5t12 -10t2.5 -8.5q-48 -61 -96 -121.5t-102 -116.5q29 5 57.5 12t56.5 15l74 118q3 4 9 1t11 -10.5t7 -17.5t-4 -20q-13 -21 -22.5 -36t-17.5 -28q10 -6 18.5 -15t-1.5 -11
q-9 -1 -18 -3l-18 -4q-13 -22 -27 -45t-37 -60q-2 -4 -9.5 -2.5t-15 6t-12.5 10t-2 9.5l40 65q-28 -6 -56 -11t-56 -7zM688 723q5 7 12 1t13 -16.5t9 -22t-1 -17.5q-8 -10 -30 -41.5t-54 -77t-70 -101.5t-78 -113.5t-78.5 -113.5t-70 -102t-54 -78.5t-30.5 -42.5
q-7 -9 -14 -4t-12 16t-7 23.5t1 19.5q2 5 22.5 35t52.5 76.5t72 104.5t81.5 118.5t82 118.5t73.5 104.5t54.5 77t25.5 35.5zM290 543q-8 -2 -16.5 2t-14.5 10t-8 11.5t3 7.5q41 14 68.5 32.5t43 37t20 33.5t-1.5 22t-19 6t-27.5 -9.5t-28.5 -23.5t-21 -36q-1 -5 -7.5 -2.5
t-13.5 9t-11 15.5t1 17q12 22 35.5 37.5t49 19t48 -7t33.5 -40.5q6 -17 3 -32t-18 -33q-20 -22 -39 -33.5t-36 -19.5q39 -10 53 -61q5 -23 -6.5 -52t-47.5 -60q-16 -14 -36.5 -23t-43 -12.5t-46 0.5t-45.5 16q-11 5 -18 14.5t-8 22.5q-2 21 5.5 38.5t21 30.5t31 22t34.5 12
q12 3 22 0t17 -7.5t9.5 -9t-1.5 -5.5q-34 -9 -55 -24.5t-31.5 -31t-12.5 -29t3 -18.5q5 -6 17.5 -5.5t29 5.5t34.5 14t34 22q15 12 27 26t19 28.5t7.5 28.5t-7.5 26q-14 17 -49 9z" />
    <glyph glyph-name="questiondown" unicode="&#xbf;" horiz-adv-x="486" 
d="M625 709q19 -12 21 -36.5t-12 -47.5q-15 -23 -38.5 -30.5t-41.5 4.5q-19 11 -21 35.5t12 47.5q15 23 38.5 30.5t41.5 -3.5zM535 462q-10 -26 -24 -49.5t-35 -44t-49.5 -39.5t-67.5 -36q-68 -30 -114.5 -71.5t-69.5 -84.5t-21.5 -81.5t30.5 -62.5q18 -15 47.5 -15t61 13
t61.5 38.5t51 61t28.5 80.5t-6.5 97q-2 8 9.5 8t26.5 -7.5t30 -22t21 -36.5q13 -51 6 -96t-28 -81t-52 -62t-66 -39q-32 -12 -67.5 -16.5t-69.5 1.5t-64.5 22.5t-52.5 45.5q-36 48 -45 96t2.5 91t40 79t66.5 62q44 29 84.5 48t76.5 40.5t67 51t57 79.5q6 12 19 7t25 -18.5
t19 -30t3 -28.5z" />
    <glyph glyph-name="Agrave" unicode="&#xc0;" horiz-adv-x="905" 
d="M1005 758q-5 7 -13 19.5t-17.5 28t-19.5 32t-19 30.5q-5 7 4 12t22.5 5.5t28 -4t21.5 -15.5q17 -27 32.5 -56t31.5 -58q5 -10 -3 -14t-21 -2.5t-27 7t-20 15.5zM980 259q7 10 16 4.5t14.5 -20t3.5 -35.5t-17 -43q-33 -47 -67 -77t-67.5 -46.5t-67.5 -20t-67 1.5
q-11 -20 -21 -39.5t-21 -37.5q-6 -10 -21 -5.5t-28.5 17.5t-21 32t2.5 38q3 6 6.5 12.5t6.5 12.5q-36 17 -69.5 37t-63.5 40q-28 -31 -57.5 -62t-61.5 -58.5t-67 -49t-73 -34.5q-34 -11 -68 -8t-63.5 16t-51.5 35t-31.5 50t-3 60.5t34.5 66.5q34 42 76 67.5t89 36.5t97 7.5
t100 -19.5q21 -6 38 -15q29 33 58.5 66t59.5 65q35 38 73 81.5t78 87t80.5 84t81.5 72.5q35 28 72 32.5t69 -36.5q11 -14 11.5 -33t-5.5 -40.5t-17 -44.5t-22.5 -44t-22 -39t-16.5 -29q-42 -80 -91.5 -172t-98.5 -182q41 0 72 16t55.5 40.5t45.5 54t41 57.5zM220 10
q55 35 103 78.5t93 91.5q-8 4 -15.5 7.5t-14.5 5.5q-32 9 -66.5 5.5t-67.5 -16.5t-62 -34.5t-50 -49.5q-21 -30 -28 -58t2 -44t35 -15t71 29zM923 588q-16 -13 -48.5 -46.5t-72.5 -76.5t-83.5 -90t-80.5 -88t-64 -71t-34 -38q29 -18 58.5 -35t64.5 -30z" />
    <glyph glyph-name="Aacute" unicode="&#xc1;" horiz-adv-x="905" 
d="M997 767q-11 -3 -25.5 2t-25 12.5t-14 15.5t6.5 12q31 11 62 22.5t63 20.5q12 3 25.5 -3t23.5 -15.5t13 -19t-5 -11.5q-15 -5 -33.5 -10t-36 -10.5t-32 -9.5t-22.5 -6zM980 259q7 10 16 4.5t14.5 -20t3.5 -35.5t-17 -43q-33 -47 -67 -77t-67.5 -46.5t-67.5 -20t-67 1.5
q-11 -20 -21 -39.5t-21 -37.5q-6 -10 -21 -5.5t-28.5 17.5t-21 32t2.5 38q3 6 6.5 12.5t6.5 12.5q-36 17 -69.5 37t-63.5 40q-28 -31 -57.5 -62t-61.5 -58.5t-67 -49t-73 -34.5q-34 -11 -68 -8t-63.5 16t-51.5 35t-31.5 50t-3 60.5t34.5 66.5q34 42 76 67.5t89 36.5t97 7.5
t100 -19.5q21 -6 38 -15q29 33 58.5 66t59.5 65q35 38 73 81.5t78 87t80.5 84t81.5 72.5q35 28 72 32.5t69 -36.5q11 -14 11.5 -33t-5.5 -40.5t-17 -44.5t-22.5 -44t-22 -39t-16.5 -29q-42 -80 -91.5 -172t-98.5 -182q41 0 72 16t55.5 40.5t45.5 54t41 57.5zM220 10
q55 35 103 78.5t93 91.5q-8 4 -15.5 7.5t-14.5 5.5q-32 9 -66.5 5.5t-67.5 -16.5t-62 -34.5t-50 -49.5q-21 -30 -28 -58t2 -44t35 -15t71 29zM923 588q-16 -13 -48.5 -46.5t-72.5 -76.5t-83.5 -90t-80.5 -88t-64 -71t-34 -38q29 -18 58.5 -35t64.5 -30z" />
    <glyph glyph-name="Acircumflex" unicode="&#xc2;" horiz-adv-x="905" 
d="M1116 826q11 -22 21 -41.5t21 -41.5q4 -8 -3 -10.5t-17.5 -1.5t-21.5 5.5t-15 12.5q-5 7 -15 22.5t-19 31.5h-20.5h-23h-21h-14.5q-9 1 -18 5.5t-14.5 10.5t-6 11t7.5 6q25 3 57.5 6.5t57.5 5.5q12 1 25.5 -5.5t18.5 -16.5zM980 259q7 10 16 4.5t14.5 -20t3.5 -35.5
t-17 -43q-33 -47 -67 -77t-67.5 -46.5t-67.5 -20t-67 1.5q-11 -20 -21 -39.5t-21 -37.5q-6 -10 -21 -5.5t-28.5 17.5t-21 32t2.5 38q3 6 6.5 12.5t6.5 12.5q-36 17 -69.5 37t-63.5 40q-28 -31 -57.5 -62t-61.5 -58.5t-67 -49t-73 -34.5q-34 -11 -68 -8t-63.5 16t-51.5 35
t-31.5 50t-3 60.5t34.5 66.5q34 42 76 67.5t89 36.5t97 7.5t100 -19.5q21 -6 38 -15q29 33 58.5 66t59.5 65q35 38 73 81.5t78 87t80.5 84t81.5 72.5q35 28 72 32.5t69 -36.5q11 -14 11.5 -33t-5.5 -40.5t-17 -44.5t-22.5 -44t-22 -39t-16.5 -29q-42 -80 -91.5 -172
t-98.5 -182q41 0 72 16t55.5 40.5t45.5 54t41 57.5zM220 10q55 35 103 78.5t93 91.5q-8 4 -15.5 7.5t-14.5 5.5q-32 9 -66.5 5.5t-67.5 -16.5t-62 -34.5t-50 -49.5q-21 -30 -28 -58t2 -44t35 -15t71 29zM923 588q-16 -13 -48.5 -46.5t-72.5 -76.5t-83.5 -90t-80.5 -88
t-64 -71t-34 -38q29 -18 58.5 -35t64.5 -30z" />
    <glyph glyph-name="Atilde" unicode="&#xc3;" horiz-adv-x="905" 
d="M1132 798q4 3 7 -1t4 -10.5t-2 -15.5t-12 -16q-23 -17 -46.5 -20.5t-48.5 12.5q-12 7 -24 15.5t-24.5 13.5t-25.5 5t-26 -10q-13 -9 -16 -5t-1 13.5t8 20t12 14.5q24 17 49 21.5t52 -11.5q10 -6 21.5 -14.5t23.5 -14t24.5 -6t24.5 8.5zM980 259q7 10 16 4.5t14.5 -20
t3.5 -35.5t-17 -43q-33 -47 -67 -77t-67.5 -46.5t-67.5 -20t-67 1.5q-11 -20 -21 -39.5t-21 -37.5q-6 -10 -21 -5.5t-28.5 17.5t-21 32t2.5 38q3 6 6.5 12.5t6.5 12.5q-36 17 -69.5 37t-63.5 40q-28 -31 -57.5 -62t-61.5 -58.5t-67 -49t-73 -34.5q-34 -11 -68 -8t-63.5 16
t-51.5 35t-31.5 50t-3 60.5t34.5 66.5q34 42 76 67.5t89 36.5t97 7.5t100 -19.5q21 -6 38 -15q29 33 58.5 66t59.5 65q35 38 73 81.5t78 87t80.5 84t81.5 72.5q35 28 72 32.5t69 -36.5q11 -14 11.5 -33t-5.5 -40.5t-17 -44.5t-22.5 -44t-22 -39t-16.5 -29
q-42 -80 -91.5 -172t-98.5 -182q41 0 72 16t55.5 40.5t45.5 54t41 57.5zM220 10q55 35 103 78.5t93 91.5q-8 4 -15.5 7.5t-14.5 5.5q-32 9 -66.5 5.5t-67.5 -16.5t-62 -34.5t-50 -49.5q-21 -30 -28 -58t2 -44t35 -15t71 29zM923 588q-16 -13 -48.5 -46.5t-72.5 -76.5
t-83.5 -90t-80.5 -88t-64 -71t-34 -38q29 -18 58.5 -35t64.5 -30z" />
    <glyph glyph-name="Adieresis" unicode="&#xc4;" horiz-adv-x="905" 
d="M980 259q7 10 16 4.5t14.5 -20t3.5 -35.5t-17 -43q-33 -47 -67 -77t-67.5 -46.5t-67.5 -20t-67 1.5q-11 -20 -21 -39.5t-21 -37.5q-6 -10 -21 -5.5t-28.5 17.5t-21 32t2.5 38q3 6 6.5 12.5t6.5 12.5q-36 17 -69.5 37t-63.5 40q-28 -31 -57.5 -62t-61.5 -58.5t-67 -49
t-73 -34.5q-34 -11 -68 -8t-63.5 16t-51.5 35t-31.5 50t-3 60.5t34.5 66.5q34 42 76 67.5t89 36.5t97 7.5t100 -19.5q21 -6 38 -15q29 33 58.5 66t59.5 65q35 38 73 81.5t78 87t80.5 84t81.5 72.5q35 28 72 32.5t69 -36.5q11 -14 11.5 -33t-5.5 -40.5t-17 -44.5t-22.5 -44
t-22 -39t-16.5 -29q-42 -80 -91.5 -172t-98.5 -182q41 0 72 16t55.5 40.5t45.5 54t41 57.5zM220 10q55 35 103 78.5t93 91.5q-8 4 -15.5 7.5t-14.5 5.5q-32 9 -66.5 5.5t-67.5 -16.5t-62 -34.5t-50 -49.5q-21 -30 -28 -58t2 -44t35 -15t71 29zM923 588q-16 -13 -48.5 -46.5
t-72.5 -76.5t-83.5 -90t-80.5 -88t-64 -71t-34 -38q29 -18 58.5 -35t64.5 -30zM1046 875q15 -10 17 -30t-10 -39q-13 -19 -32 -25t-34 4q-16 10 -18 30t11 39q12 19 31 25t35 -4zM1156 814q15 -10 17 -30t-10 -39q-13 -19 -32 -25.5t-34 3.5q-16 11 -18 30.5t11 39.5
q12 19 31 25t35 -4z" />
    <glyph glyph-name="Aring" unicode="&#xc5;" horiz-adv-x="905" 
d="M1097 895q31 -17 36.5 -46t-6.5 -61q-7 -14 -17.5 -26.5t-23 -19.5t-27 -7.5t-30.5 8.5q-29 17 -36.5 46.5t6.5 59.5q7 15 17 27t23 19t27.5 8t30.5 -8zM1036 764q9 -4 23 10.5t24 35.5q9 19 11.5 38t-5.5 24q-8 4 -21.5 -9.5t-22.5 -31.5q-5 -10 -8 -21t-4.5 -21
t-0.5 -17t4 -8zM980 259q7 10 16 4.5t14.5 -20t3.5 -35.5t-17 -43q-33 -47 -67 -77t-67.5 -46.5t-67.5 -20t-67 1.5q-11 -20 -21 -39.5t-21 -37.5q-6 -10 -21 -5.5t-28.5 17.5t-21 32t2.5 38q3 6 6.5 12.5t6.5 12.5q-36 17 -69.5 37t-63.5 40q-28 -31 -57.5 -62t-61.5 -58.5
t-67 -49t-73 -34.5q-34 -11 -68 -8t-63.5 16t-51.5 35t-31.5 50t-3 60.5t34.5 66.5q34 42 76 67.5t89 36.5t97 7.5t100 -19.5q21 -6 38 -15q29 33 58.5 66t59.5 65q35 38 73 81.5t78 87t80.5 84t81.5 72.5q35 28 72 32.5t69 -36.5q11 -14 11.5 -33t-5.5 -40.5t-17 -44.5
t-22.5 -44t-22 -39t-16.5 -29q-42 -80 -91.5 -172t-98.5 -182q41 0 72 16t55.5 40.5t45.5 54t41 57.5zM220 10q55 35 103 78.5t93 91.5q-8 4 -15.5 7.5t-14.5 5.5q-32 9 -66.5 5.5t-67.5 -16.5t-62 -34.5t-50 -49.5q-21 -30 -28 -58t2 -44t35 -15t71 29zM923 588
q-16 -13 -48.5 -46.5t-72.5 -76.5t-83.5 -90t-80.5 -88t-64 -71t-34 -38q29 -18 58.5 -35t64.5 -30z" />
    <glyph glyph-name="AE" unicode="&#xc6;" horiz-adv-x="1336" 
d="M1418 269q8 13 17.5 9.5t14.5 -17.5t2.5 -37t-18.5 -49q-24 -39 -63.5 -84.5t-90 -85.5t-108.5 -67.5t-118.5 -29.5t-121 27.5t-115.5 103.5q-7 9 -10 16l-18 -32q-11 -20 -21.5 -39.5t-21.5 -37.5q-5 -10 -20 -5.5t-29 17.5t-21.5 31.5t2.5 37.5q3 7 6.5 13t6.5 13
q-36 17 -69.5 37t-63.5 40q-28 -31 -57.5 -62t-61.5 -58.5t-67 -49.5t-73 -34q-34 -11 -68 -8.5t-63.5 16t-51.5 35.5t-31.5 50t-3 60.5t34.5 66.5q34 42 76.5 67.5t89.5 36.5t96.5 7.5t99.5 -19.5q21 -6 38 -15q30 33 59 66t59 65q36 38 74 81.5t77.5 87t80.5 84t82 72.5
q17 14 35 23t36 9.5t35.5 -7.5t34.5 -29q7 -8 8 -17q39 22 81 35t84 13.5t82 -12.5t75 -43q29 -24 34.5 -55t-7 -62t-41 -59t-67.5 -46q-18 -9 -42.5 -10t-43 3.5t-26.5 13t7 18.5q51 36 80.5 63t43.5 48t15.5 36.5t-3.5 27.5q-4 10 -20 14t-41.5 0.5t-59 -15t-71.5 -32.5
q-36 -20 -69.5 -47.5t-58 -57t-37.5 -59t-7.5 -55t32 -44t81.5 -26.5q19 -3 26 -12t6.5 -20.5t-5 -23.5t-6.5 -19q-7 -20 -12.5 -24t-11.5 -6q-85 -18 -133 -44t-69 -53t-21 -51t12 -39q16 -21 49.5 -29.5t78.5 -1.5t99.5 30t113.5 66q45 33 89 79.5t84 109.5zM280 10
q55 35 103 78.5t93 91.5q-8 4 -15.5 7.5t-14.5 5.5q-31 9 -65.5 5.5t-68 -16.5t-62.5 -35t-50 -50q-21 -30 -28 -57.5t2 -43.5t35 -15t71 29zM894 216q23 14 48.5 24t51.5 18q-16 11 -28 24t-22 27q-12 -23 -24.5 -46.5t-25.5 -46.5zM983 588q-16 -13 -48.5 -46.5
t-72.5 -76.5t-83.5 -90t-80.5 -88t-64 -71t-34 -38q29 -18 58.5 -35t64.5 -30z" />
    <glyph glyph-name="Ccedilla" unicode="&#xc7;" horiz-adv-x="683" 
d="M408 -146q12 -25 4.5 -44.5t-25.5 -32.5t-41 -19t-42 -5q-18 1 -29.5 8.5t-17 16t-4 15t10.5 6.5q12 0 30.5 2t36.5 7.5t30 14t10 20.5q-2 7 -8.5 9t-14.5 0.5t-15 -4t-9 -3.5q-6 -3 -17 0t-21.5 9t-18 14t-4.5 16q3 9 8.5 20.5t10.5 23.5q-32 16 -62.5 42.5t-57.5 66.5
q-17 26 -23 59.5t-3 71t14 77t26 77.5q-28 28 -41 64t-13 74.5t10.5 76t30.5 67.5q25 39 56.5 58.5t57 25.5t38.5 0.5t1 -15.5q-29 -24 -58.5 -61t-49 -77.5t-23.5 -81t18 -72.5q12 23 24.5 43.5t25.5 37.5q32 45 78.5 91t100 83.5t111 60t112.5 20.5q31 -1 61.5 -11.5
t52.5 -30t30.5 -48.5t-4.5 -66q-17 -49 -47 -94.5t-70 -83t-87.5 -65t-98.5 -39.5q-72 -17 -127 -18t-97 10q-37 -80 -43 -149t25 -108q16 -21 49.5 -29.5t78.5 -1.5t99 30t113 66q45 32 89 79t85 110q8 13 16.5 8.5t12 -21t0 -40.5t-19.5 -50q-33 -55 -81 -105.5
t-103.5 -87.5t-116.5 -55.5t-120 -10.5q-2 -5 -4 -10.5t-4 -10.5q20 4 38 -5t26 -26zM501 561q-66 -51 -117.5 -112t-87.5 -124q31 -6 65 -3t68 13t66.5 25.5t59.5 35.5q26 18 54 43.5t52 55t40.5 61.5t19.5 64q2 24 -9 32.5t-30.5 5.5t-44 -13.5t-50 -25.5t-48.5 -30.5
t-38 -27.5z" />
    <glyph glyph-name="Egrave" unicode="&#xc8;" horiz-adv-x="561" 
d="M479 758q-5 7 -13 19.5t-17.5 28t-19.5 32t-19 30.5q-5 7 4 12t22.5 5.5t28 -4t21.5 -15.5q17 -27 32.5 -56t31.5 -58q5 -10 -3 -14t-21 -2.5t-27 7t-20 15.5zM366 302q9 -1 11 -16t-2.5 -33t-13 -33.5t-20.5 -17.5q-85 -18 -133 -44t-69 -52.5t-20.5 -50.5t12.5 -39
q16 -21 49.5 -29.5t78 -2t98.5 29.5t113 66q45 33 89 79.5t84 109.5q8 13 17 9t13.5 -19.5t1.5 -39t-19 -49.5q-24 -39 -63.5 -84t-89 -84.5t-106.5 -66t-117 -28.5t-120.5 28t-115.5 104q-26 34 -18.5 68t36 63t71.5 52t88 35q-55 41 -70 91t-1 103q-41 37 -56.5 84
t10.5 94q16 30 36.5 41.5t37.5 12t26.5 -7t2.5 -15.5q-33 -40 -37.5 -75.5t10.5 -64.5q22 36 55 69t72.5 58t83 40t88 17.5t87 -10.5t79.5 -44q32 -27 35.5 -61t-14 -68t-52 -65.5t-79 -54.5t-94.5 -33.5t-99 -3.5q-30 5 -58.5 13.5t-54.5 20.5q-1 -16 5.5 -31.5t22.5 -28
t42.5 -22.5t66.5 -14zM403 594q-46 -26 -87 -62t-64 -74q11 -5 23 -8.5t24 -5.5q45 -7 86.5 0t76.5 22t62.5 36.5t45.5 44t25 44t0 37.5q-4 9 -20.5 13t-42 0.5t-58.5 -15t-71 -32.5z" />
    <glyph glyph-name="Eacute" unicode="&#xc9;" horiz-adv-x="561" 
d="M487 767q-11 -3 -25.5 2t-25 12.5t-14 15.5t6.5 12q31 11 62 22.5t63 20.5q12 3 25.5 -3t23.5 -15.5t13 -19t-5 -11.5q-15 -5 -33.5 -10t-36 -10.5t-32 -9.5t-22.5 -6zM366 302q9 -1 11 -16t-2.5 -33t-13 -33.5t-20.5 -17.5q-85 -18 -133 -44t-69 -52.5t-20.5 -50.5
t12.5 -39q16 -21 49.5 -29.5t78 -2t98.5 29.5t113 66q45 33 89 79.5t84 109.5q8 13 17 9t13.5 -19.5t1.5 -39t-19 -49.5q-24 -39 -63.5 -84t-89 -84.5t-106.5 -66t-117 -28.5t-120.5 28t-115.5 104q-26 34 -18.5 68t36 63t71.5 52t88 35q-55 41 -70 91t-1 103
q-41 37 -56.5 84t10.5 94q16 30 36.5 41.5t37.5 12t26.5 -7t2.5 -15.5q-33 -40 -37.5 -75.5t10.5 -64.5q22 36 55 69t72.5 58t83 40t88 17.5t87 -10.5t79.5 -44q32 -27 35.5 -61t-14 -68t-52 -65.5t-79 -54.5t-94.5 -33.5t-99 -3.5q-30 5 -58.5 13.5t-54.5 20.5
q-1 -16 5.5 -31.5t22.5 -28t42.5 -22.5t66.5 -14zM403 594q-46 -26 -87 -62t-64 -74q11 -5 23 -8.5t24 -5.5q45 -7 86.5 0t76.5 22t62.5 36.5t45.5 44t25 44t0 37.5q-4 9 -20.5 13t-42 0.5t-58.5 -15t-71 -32.5z" />
    <glyph glyph-name="Ecircumflex" unicode="&#xca;" horiz-adv-x="561" 
d="M731 826q11 -22 21 -41.5t21 -41.5q4 -8 -3 -10.5t-17.5 -1.5t-21.5 5.5t-15 12.5q-5 7 -15 22.5t-19 31.5h-20.5h-23h-21h-14.5q-9 1 -18 5.5t-14.5 10.5t-6 11t7.5 6q25 3 57.5 6.5t57.5 5.5q12 1 25.5 -5.5t18.5 -16.5zM366 302q9 -1 11 -16t-2.5 -33t-13 -33.5
t-20.5 -17.5q-85 -18 -133 -44t-69 -52.5t-20.5 -50.5t12.5 -39q16 -21 49.5 -29.5t78 -2t98.5 29.5t113 66q45 33 89 79.5t84 109.5q8 13 17 9t13.5 -19.5t1.5 -39t-19 -49.5q-24 -39 -63.5 -84t-89 -84.5t-106.5 -66t-117 -28.5t-120.5 28t-115.5 104q-26 34 -18.5 68
t36 63t71.5 52t88 35q-55 41 -70 91t-1 103q-41 37 -56.5 84t10.5 94q16 30 36.5 41.5t37.5 12t26.5 -7t2.5 -15.5q-33 -40 -37.5 -75.5t10.5 -64.5q22 36 55 69t72.5 58t83 40t88 17.5t87 -10.5t79.5 -44q32 -27 35.5 -61t-14 -68t-52 -65.5t-79 -54.5t-94.5 -33.5
t-99 -3.5q-30 5 -58.5 13.5t-54.5 20.5q-1 -16 5.5 -31.5t22.5 -28t42.5 -22.5t66.5 -14zM403 594q-46 -26 -87 -62t-64 -74q11 -5 23 -8.5t24 -5.5q45 -7 86.5 0t76.5 22t62.5 36.5t45.5 44t25 44t0 37.5q-4 9 -20.5 13t-42 0.5t-58.5 -15t-71 -32.5z" />
    <glyph glyph-name="Edieresis" unicode="&#xcb;" horiz-adv-x="561" 
d="M514 851q15 -10 17 -30t-10 -39q-13 -19 -32 -25t-34 4q-16 10 -18 30t11 39q12 19 31 25t35 -4zM676 840q15 -10 17 -30t-10 -39q-13 -19 -32 -25.5t-34 3.5q-16 11 -18 30.5t11 39.5q12 19 31 25t35 -4zM366 302q9 -1 11 -16t-2.5 -33t-13 -33.5t-20.5 -17.5
q-85 -18 -133 -44t-69 -52.5t-20.5 -50.5t12.5 -39q16 -21 49.5 -29.5t78 -2t98.5 29.5t113 66q45 33 89 79.5t84 109.5q8 13 17 9t13.5 -19.5t1.5 -39t-19 -49.5q-24 -39 -63.5 -84t-89 -84.5t-106.5 -66t-117 -28.5t-120.5 28t-115.5 104q-26 34 -18.5 68t36 63t71.5 52
t88 35q-55 41 -70 91t-1 103q-41 37 -56.5 84t10.5 94q16 30 36.5 41.5t37.5 12t26.5 -7t2.5 -15.5q-33 -40 -37.5 -75.5t10.5 -64.5q22 36 55 69t72.5 58t83 40t88 17.5t87 -10.5t79.5 -44q32 -27 35.5 -61t-14 -68t-52 -65.5t-79 -54.5t-94.5 -33.5t-99 -3.5
q-30 5 -58.5 13.5t-54.5 20.5q-1 -16 5.5 -31.5t22.5 -28t42.5 -22.5t66.5 -14zM403 594q-46 -26 -87 -62t-64 -74q11 -5 23 -8.5t24 -5.5q45 -7 86.5 0t76.5 22t62.5 36.5t45.5 44t25 44t0 37.5q-4 9 -20.5 13t-42 0.5t-58.5 -15t-71 -32.5z" />
    <glyph glyph-name="Igrave" unicode="&#xcc;" horiz-adv-x="577" 
d="M828 789q-5 7 -13 19.5t-17.5 28t-19.5 32t-19 30.5q-5 7 4 12t22.5 5.5t28 -4t21.5 -15.5q17 -27 32.5 -56t31.5 -58q5 -10 -3 -14t-21 -2.5t-27 7t-20 15.5zM875 680q2 -17 -5.5 -29t-20.5 -19.5t-28 -11.5t-28 -7q-8 -2 -21.5 -3.5t-32.5 -3.5q-32 -47 -60 -96
t-49 -84q-29 -49 -59 -97t-59 -97q-39 -65 -79.5 -126.5t-96.5 -115.5q-29 -28 -58 -40t-58.5 -12t-60.5 10.5t-64 28.5q-35 19 -52 46t-19 56t9 60t31.5 58.5t49 49.5t61.5 36q35 15 69.5 16t56.5 -4.5t26 -15.5t-22 -18q-75 -23 -119.5 -59.5t-64.5 -74.5t-19 -71t18 -48
q13 -12 33.5 -11t42 9.5t41.5 22t32 26.5q29 30 53.5 62t47.5 67q37 58 72 116.5t70 117.5q21 35 49 81.5t57 91.5q-34 -6 -64 -14t-47.5 -19.5t-19.5 -26.5t21 -34q7 -6 5 -10.5t-8.5 -7t-17 -2.5t-20.5 3q-15 4 -30 14.5t-24 25.5t-9.5 35t12.5 43q13 22 40 34.5t61 18.5
t72.5 8t75.5 3l12 18q7 10 16.5 24t20.5 27t24 22.5t28 10.5q16 1 35 -5t34.5 -18t26.5 -28t13 -33z" />
    <glyph glyph-name="Iacute" unicode="&#xcd;" horiz-adv-x="577" 
d="M832 792q-11 -3 -25.5 2t-25 12.5t-14 15.5t6.5 12q31 11 62 22.5t63 20.5q12 3 25.5 -3t23.5 -15.5t13 -19t-5 -11.5q-15 -5 -33.5 -10t-36 -10.5t-32 -9.5t-22.5 -6zM875 680q2 -17 -5.5 -29t-20.5 -19.5t-28 -11.5t-28 -7q-8 -2 -21.5 -3.5t-32.5 -3.5
q-32 -47 -60 -96t-49 -84q-29 -49 -59 -97t-59 -97q-39 -65 -79.5 -126.5t-96.5 -115.5q-29 -28 -58 -40t-58.5 -12t-60.5 10.5t-64 28.5q-35 19 -52 46t-19 56t9 60t31.5 58.5t49 49.5t61.5 36q35 15 69.5 16t56.5 -4.5t26 -15.5t-22 -18q-75 -23 -119.5 -59.5t-64.5 -74.5
t-19 -71t18 -48q13 -12 33.5 -11t42 9.5t41.5 22t32 26.5q29 30 53.5 62t47.5 67q37 58 72 116.5t70 117.5q21 35 49 81.5t57 91.5q-34 -6 -64 -14t-47.5 -19.5t-19.5 -26.5t21 -34q7 -6 5 -10.5t-8.5 -7t-17 -2.5t-20.5 3q-15 4 -30 14.5t-24 25.5t-9.5 35t12.5 43
q13 22 40 34.5t61 18.5t72.5 8t75.5 3l12 18q7 10 16.5 24t20.5 27t24 22.5t28 10.5q16 1 35 -5t34.5 -18t26.5 -28t13 -33z" />
    <glyph glyph-name="Icircumflex" unicode="&#xce;" horiz-adv-x="577" 
d="M838 879q20 -16 36 -30t35 -30q6 -6 1 -11t-15 -8t-22 -3t-19 5t-22.5 15.5t-29.5 21.5q-8 -3 -18.5 -8t-21 -9.5t-19.5 -8.5t-14 -5q-9 -3 -19 -2t-17.5 4t-9.5 7.5t5 9.5q22 12 50.5 28t50.5 27q11 5 26 4.5t23 -7.5zM875 680q2 -17 -5.5 -29t-20.5 -19.5t-28 -11.5
t-28 -7q-8 -2 -21.5 -3.5t-32.5 -3.5q-32 -47 -60 -96t-49 -84q-29 -49 -59 -97t-59 -97q-39 -65 -79.5 -126.5t-96.5 -115.5q-29 -28 -58 -40t-58.5 -12t-60.5 10.5t-64 28.5q-35 19 -52 46t-19 56t9 60t31.5 58.5t49 49.5t61.5 36q35 15 69.5 16t56.5 -4.5t26 -15.5
t-22 -18q-75 -23 -119.5 -59.5t-64.5 -74.5t-19 -71t18 -48q13 -12 33.5 -11t42 9.5t41.5 22t32 26.5q29 30 53.5 62t47.5 67q37 58 72 116.5t70 117.5q21 35 49 81.5t57 91.5q-34 -6 -64 -14t-47.5 -19.5t-19.5 -26.5t21 -34q7 -6 5 -10.5t-8.5 -7t-17 -2.5t-20.5 3
q-15 4 -30 14.5t-24 25.5t-9.5 35t12.5 43q13 22 40 34.5t61 18.5t72.5 8t75.5 3l12 18q7 10 16.5 24t20.5 27t24 22.5t28 10.5q16 1 35 -5t34.5 -18t26.5 -28t13 -33z" />
    <glyph glyph-name="Idieresis" unicode="&#xcf;" horiz-adv-x="577" 
d="M875 680q2 -17 -5.5 -29t-20.5 -19.5t-28 -11.5t-28 -7q-8 -2 -21.5 -3.5t-32.5 -3.5q-32 -47 -60 -96t-49 -84q-29 -49 -59 -97t-59 -97q-39 -65 -79.5 -126.5t-96.5 -115.5q-29 -28 -58 -40t-58.5 -12t-60.5 10.5t-64 28.5q-35 19 -52 46t-19 56t9 60t31.5 58.5
t49 49.5t61.5 36q35 15 69.5 16t56.5 -4.5t26 -15.5t-22 -18q-75 -23 -119.5 -59.5t-64.5 -74.5t-19 -71t18 -48q13 -12 33.5 -11t42 9.5t41.5 22t32 26.5q29 30 53.5 62t47.5 67q37 58 72 116.5t70 117.5q21 35 49 81.5t57 91.5q-34 -6 -64 -14t-47.5 -19.5t-19.5 -26.5
t21 -34q7 -6 5 -10.5t-8.5 -7t-17 -2.5t-20.5 3q-15 4 -30 14.5t-24 25.5t-9.5 35t12.5 43q13 22 40 34.5t61 18.5t72.5 8t75.5 3l12 18q7 10 16.5 24t20.5 27t24 22.5t28 10.5q16 1 35 -5t34.5 -18t26.5 -28t13 -33zM837 931q15 -10 17 -30t-10 -39q-13 -19 -32 -25t-34 4
q-16 10 -18 30t11 39q12 19 31 25t35 -4zM947 870q15 -10 17 -30t-10 -39q-13 -19 -32 -25.5t-34 3.5q-16 11 -18 30.5t11 39.5q12 19 31 25t35 -4z" />
    <glyph glyph-name="Eth" unicode="&#xd0;" horiz-adv-x="643" 
d="M361 727q66 0 123 -20t100.5 -55t72 -82t38.5 -102t0.5 -114.5t-42.5 -119.5q-39 -71 -96.5 -126t-126.5 -89.5t-145.5 -45t-153.5 7.5q-25 6 -48 20.5t-38.5 33.5t-20.5 39.5t6 37.5l34 53q-15 3 -29.5 14.5t-24 24t-11 23t9.5 11.5q18 2 45.5 3.5t59.5 3.5l17 28
q-82 54 -106.5 121t7.5 136q24 51 61.5 88t82 61t92.5 36t93 12zM590 366q10 46 8 98.5t-21.5 96.5t-59 73.5t-104.5 29.5q-46 1 -92 -12.5t-84 -36.5q-21 -13 -45 -34.5t-44.5 -49t-35 -57.5t-16.5 -60t10.5 -57t46.5 -48q40 66 79.5 133t79.5 134q8 13 22 8t25 -19.5
t16.5 -33.5t-2.5 -34l-145 -247q14 1 26 1h22q16 0 34 -11.5t30 -25.5t15 -25.5t-10 -10.5l-165 -9l-73 -125q53 -11 107.5 -4.5t105.5 27.5t96.5 53.5t79.5 73.5q31 38 57 81t37 91z" />
    <glyph glyph-name="Ntilde" unicode="&#xd1;" horiz-adv-x="663" 
d="M703 798q4 3 7 -1t4 -10.5t-2 -15.5t-12 -16q-23 -17 -46.5 -20.5t-48.5 12.5q-12 7 -24 15.5t-24.5 13.5t-25.5 5t-26 -10q-13 -9 -16 -5t-1 13.5t8 20t12 14.5q24 17 49 21.5t52 -11.5q10 -6 21.5 -14.5t23.5 -14t24.5 -6t24.5 8.5zM98 -55q-9 -8 -23.5 -3t-27 16
t-19.5 24.5t-2 24.5q2 3 14.5 24.5t30.5 52t38 65t37 63.5q25 44 56.5 92t63.5 95t61.5 90t51 77t31.5 56.5t4 27.5q-12 10 -32.5 0t-43 -29.5t-44 -43.5t-34.5 -43q-18 -25 -32 -47.5t-26 -45.5t-22.5 -47.5t-20.5 -52.5q-8 -20 -18.5 -13.5t-18.5 27.5t-10 52t9 61
q31 85 79.5 138.5t98.5 79t93.5 25t63.5 -24.5q25 -30 28 -58t-5 -53.5t-23 -49t-26 -42.5q-10 -18 -34 -56t-52.5 -83.5t-58 -91.5t-50.5 -79q67 64 134.5 132.5t133 137.5t127.5 137t116 131q6 7 21 3t30 -13.5t24.5 -21t5.5 -20.5q-65 -114 -134.5 -224t-132.5 -225
q-8 -14 -20 -35.5t-25 -44.5t-24.5 -46.5t-17 -42.5t-4 -30.5t15.5 -11.5q2 0 6.5 0.5t13 5t22 14.5t33.5 30q54 53 99.5 105t85.5 115q8 13 16.5 8t12.5 -21.5t0 -41t-20 -49.5q-32 -49 -68 -89.5t-72 -69.5t-68.5 -45t-56.5 -16q-37 0 -58 17.5t-29 44.5t-4.5 60t16.5 65
q27 69 62 134t74 129q-110 -120 -224 -235t-228 -215z" />
    <glyph glyph-name="Ograve" unicode="&#xd2;" horiz-adv-x="600" 
d="M528 758q-5 7 -13 19.5t-17.5 28t-19.5 32t-19 30.5q-5 7 4 12t22.5 5.5t28 -4t21.5 -15.5q17 -27 32.5 -56t31.5 -58q5 -10 -3 -14t-21 -2.5t-27 7t-20 15.5zM683 268q7 12 17 7.5t14.5 -20.5t1 -40.5t-22.5 -51.5q-33 -50 -73 -85t-83.5 -57.5t-89 -32t-90.5 -7.5
q-65 -38 -134.5 -44t-135.5 32q-29 16 -44 42t-18.5 57.5t3 67.5t20.5 74q-12 34 -18 74q-6 43 -2.5 80t13.5 69.5t25.5 61t33.5 55.5q23 33 56 66t72.5 59.5t84.5 42.5t91 15.5t91.5 -21.5t86.5 -69q48 -56 57 -132t-11.5 -157t-66 -159t-106.5 -138q59 24 117.5 76
t110.5 135zM120 11q14 -10 40 -10t61 14q-38 18 -70 44.5t-57 61.5q-9 -44 0.5 -71t25.5 -39zM282 46q41 26 84.5 68t85.5 103q43 63 68.5 126t35.5 117.5t5 95.5t-21 61q-21 25 -52.5 34.5t-66 6.5t-69.5 -17t-64 -35q-30 -22 -59.5 -52.5t-53.5 -66.5t-41 -75t-21 -78
q33 49 72.5 89t77.5 62q19 12 38 14t32 -1.5t19 -10t0 -12.5q-62 -54 -106 -102.5t-75 -92.5q-13 -17 -23.5 -34t-18.5 -32q21 -66 61 -108.5t92 -59.5z" />
    <glyph glyph-name="Oacute" unicode="&#xd3;" horiz-adv-x="600" 
d="M428 794q-11 -3 -25.5 2t-25 12.5t-14 15.5t6.5 12q31 11 62 22.5t63 20.5q12 3 25.5 -3t23.5 -15.5t13 -19t-5 -11.5q-15 -5 -33.5 -10t-36 -10.5t-32 -9.5t-22.5 -6zM683 268q7 12 17 7.5t14.5 -20.5t1 -40.5t-22.5 -51.5q-33 -50 -73 -85t-83.5 -57.5t-89 -32
t-90.5 -7.5q-65 -38 -134.5 -44t-135.5 32q-29 16 -44 42t-18.5 57.5t3 67.5t20.5 74q-12 34 -18 74q-6 43 -2.5 80t13.5 69.5t25.5 61t33.5 55.5q23 33 56 66t72.5 59.5t84.5 42.5t91 15.5t91.5 -21.5t86.5 -69q48 -56 57 -132t-11.5 -157t-66 -159t-106.5 -138
q59 24 117.5 76t110.5 135zM120 11q14 -10 40 -10t61 14q-38 18 -70 44.5t-57 61.5q-9 -44 0.5 -71t25.5 -39zM282 46q41 26 84.5 68t85.5 103q43 63 68.5 126t35.5 117.5t5 95.5t-21 61q-21 25 -52.5 34.5t-66 6.5t-69.5 -17t-64 -35q-30 -22 -59.5 -52.5t-53.5 -66.5
t-41 -75t-21 -78q33 49 72.5 89t77.5 62q19 12 38 14t32 -1.5t19 -10t0 -12.5q-62 -54 -106 -102.5t-75 -92.5q-13 -17 -23.5 -34t-18.5 -32q21 -66 61 -108.5t92 -59.5z" />
    <glyph glyph-name="Ocircumflex" unicode="&#xd4;" horiz-adv-x="600" 
d="M631 838q11 -22 21 -41.5t21 -41.5q4 -8 -3 -10.5t-17.5 -1.5t-21.5 5.5t-15 12.5q-5 7 -15 22.5t-19 31.5h-20.5h-23h-21h-14.5q-9 1 -18 5.5t-14.5 10.5t-6 11t7.5 6q25 3 57.5 6.5t57.5 5.5q12 1 25.5 -5.5t18.5 -16.5zM683 268q7 12 17 7.5t14.5 -20.5t1 -40.5
t-22.5 -51.5q-33 -50 -73 -85t-83.5 -57.5t-89 -32t-90.5 -7.5q-65 -38 -134.5 -44t-135.5 32q-29 16 -44 42t-18.5 57.5t3 67.5t20.5 74q-12 34 -18 74q-6 43 -2.5 80t13.5 69.5t25.5 61t33.5 55.5q23 33 56 66t72.5 59.5t84.5 42.5t91 15.5t91.5 -21.5t86.5 -69
q48 -56 57 -132t-11.5 -157t-66 -159t-106.5 -138q59 24 117.5 76t110.5 135zM120 11q14 -10 40 -10t61 14q-38 18 -70 44.5t-57 61.5q-9 -44 0.5 -71t25.5 -39zM282 46q41 26 84.5 68t85.5 103q43 63 68.5 126t35.5 117.5t5 95.5t-21 61q-21 25 -52.5 34.5t-66 6.5
t-69.5 -17t-64 -35q-30 -22 -59.5 -52.5t-53.5 -66.5t-41 -75t-21 -78q33 49 72.5 89t77.5 62q19 12 38 14t32 -1.5t19 -10t0 -12.5q-62 -54 -106 -102.5t-75 -92.5q-13 -17 -23.5 -34t-18.5 -32q21 -66 61 -108.5t92 -59.5z" />
    <glyph glyph-name="Otilde" unicode="&#xd5;" horiz-adv-x="600" 
d="M599 833q4 3 7 -1t4 -10.5t-2 -15.5t-12 -16q-23 -17 -46.5 -20.5t-48.5 12.5q-12 7 -24 15.5t-24.5 13.5t-25.5 5t-26 -10q-13 -9 -16 -5t-1 13.5t8 20t12 14.5q24 17 49 21.5t52 -11.5q10 -6 21.5 -14.5t23.5 -14t24.5 -6t24.5 8.5zM683 268q7 12 17 7.5t14.5 -20.5
t1 -40.5t-22.5 -51.5q-33 -50 -73 -85t-83.5 -57.5t-89 -32t-90.5 -7.5q-65 -38 -134.5 -44t-135.5 32q-29 16 -44 42t-18.5 57.5t3 67.5t20.5 74q-12 34 -18 74q-6 43 -2.5 80t13.5 69.5t25.5 61t33.5 55.5q23 33 56 66t72.5 59.5t84.5 42.5t91 15.5t91.5 -21.5t86.5 -69
q48 -56 57 -132t-11.5 -157t-66 -159t-106.5 -138q59 24 117.5 76t110.5 135zM120 11q14 -10 40 -10t61 14q-38 18 -70 44.5t-57 61.5q-9 -44 0.5 -71t25.5 -39zM282 46q41 26 84.5 68t85.5 103q43 63 68.5 126t35.5 117.5t5 95.5t-21 61q-21 25 -52.5 34.5t-66 6.5
t-69.5 -17t-64 -35q-30 -22 -59.5 -52.5t-53.5 -66.5t-41 -75t-21 -78q33 49 72.5 89t77.5 62q19 12 38 14t32 -1.5t19 -10t0 -12.5q-62 -54 -106 -102.5t-75 -92.5q-13 -17 -23.5 -34t-18.5 -32q21 -66 61 -108.5t92 -59.5z" />
    <glyph glyph-name="Odieresis" unicode="&#xd6;" horiz-adv-x="600" 
d="M495 894q15 -10 17 -30t-10 -39q-13 -19 -32 -25t-34 4q-16 10 -18 30t11 39q12 19 31 25t35 -4zM668 855q15 -10 17 -30t-10 -39q-13 -19 -32 -25.5t-34 3.5q-16 11 -18 30.5t11 39.5q12 19 31 25t35 -4zM683 268q7 12 17 7.5t14.5 -20.5t1 -40.5t-22.5 -51.5
q-33 -50 -73 -85t-83.5 -57.5t-89 -32t-90.5 -7.5q-65 -38 -134.5 -44t-135.5 32q-29 16 -44 42t-18.5 57.5t3 67.5t20.5 74q-12 34 -18 74q-6 43 -2.5 80t13.5 69.5t25.5 61t33.5 55.5q23 33 56 66t72.5 59.5t84.5 42.5t91 15.5t91.5 -21.5t86.5 -69q48 -56 57 -132
t-11.5 -157t-66 -159t-106.5 -138q59 24 117.5 76t110.5 135zM120 11q14 -10 40 -10t61 14q-38 18 -70 44.5t-57 61.5q-9 -44 0.5 -71t25.5 -39zM282 46q41 26 84.5 68t85.5 103q43 63 68.5 126t35.5 117.5t5 95.5t-21 61q-21 25 -52.5 34.5t-66 6.5t-69.5 -17t-64 -35
q-30 -22 -59.5 -52.5t-53.5 -66.5t-41 -75t-21 -78q33 49 72.5 89t77.5 62q19 12 38 14t32 -1.5t19 -10t0 -12.5q-62 -54 -106 -102.5t-75 -92.5q-13 -17 -23.5 -34t-18.5 -32q21 -66 61 -108.5t92 -59.5z" />
    <glyph glyph-name="multiply" unicode="&#xd7;" horiz-adv-x="300" 
d="M318 329q7 5 13.5 -4t9.5 -23t2 -28t-8 -18q-18 -11 -44 -29t-55 -38l24 -27q11 -12 15.5 -30.5t3.5 -34.5t-7 -24t-15 3l-72 78q-37 -26 -68 -49t-47 -36q-6 -5 -12 3.5t-9 22t-2.5 27.5t6.5 20q14 14 35.5 30.5t46.5 34.5l-9 10q-12 10 -16.5 28t-3.5 34t7 24.5t16 0.5
q15 -14 30 -29t29 -32q38 26 72.5 48.5z" />
    <glyph glyph-name="Oslash" unicode="&#xd8;" horiz-adv-x="600" 
d="M631 788q7 9 17.5 1.5t19.5 -22.5t13.5 -31.5t-1.5 -25.5q-8 -11 -26.5 -39t-44.5 -68q32 -58 32.5 -130t-22.5 -146t-66 -144.5t-98 -125.5q59 24 117.5 76t110.5 135q7 12 17 7.5t14.5 -20.5t1 -40.5t-22.5 -51.5q-33 -50 -73 -85t-83.5 -57.5t-89 -32t-90.5 -7.5
q-42 -24 -86.5 -36t-89.5 -7q-16 -26 -29 -46t-19 -29q-9 -13 -19 -6.5t-18.5 22t-12.5 34t1 28.5q2 5 13 23l-10 5q-29 16 -44 42t-18.5 57.5t3 67.5t20.5 74q-12 34 -18 74q-6 43 -2.5 80t13.5 69.5t25.5 61t33.5 55.5q21 31 52 62.5t67.5 57t78.5 42.5t85 20t86.5 -10.5
t83.5 -49.5q32 48 52.5 78.5t25.5 37.5zM288 606q-30 -22 -59.5 -52.5t-53.5 -66.5t-41 -75t-21 -78q33 49 72.5 89t77.5 62q19 12 38 14t32 -1.5t19 -10t0 -12.5q-62 -54 -106 -102.5t-75 -92.5q-13 -17 -23.5 -34t-18.5 -32q19 -63 59 -106q36 57 80 124.5t89 137.5
t88.5 137t80.5 123q-23 19 -53 25t-62 1.5t-64 -18t-59 -32.5zM282 46q41 26 84.5 68t85.5 103q58 85 84.5 168.5t25.5 145.5l-305 -475q10 -5 25 -10zM124 8l31 48q-17 14 -32.5 30t-28.5 35q-9 -44 0.5 -71t25.5 -39z" />
    <glyph glyph-name="Ugrave" unicode="&#xd9;" horiz-adv-x="606" 
d="M526 758q-5 7 -13 19.5t-17.5 28t-19.5 32t-19 30.5q-5 7 4 12t22.5 5.5t28 -4t21.5 -15.5q17 -27 32.5 -56t31.5 -58q5 -10 -3 -14t-21 -2.5t-27 7t-20 15.5zM754 618q-26 -53 -53 -101.5t-55.5 -94t-59 -89t-63.5 -88.5q-5 -8 -10 -17l-10 -18q-8 -14 -20 -35.5
t-25 -44.5t-24.5 -46.5t-17 -42.5t-3.5 -30.5t16 -11.5q2 0 6 0.5t12.5 4.5t22 14t34.5 30q53 53 98.5 105t85.5 116q8 13 17 7.5t13 -22t0 -41t-20 -49.5q-32 -49 -68.5 -89t-72.5 -69t-68.5 -45t-56.5 -16q-46 0 -67.5 25.5t-24.5 63.5q-12 -13 -22.5 -23t-17.5 -16
q-24 -19 -56.5 -36t-68 -20.5t-70.5 13t-63 64.5q-14 23 -15 48.5t5 51t17.5 50t23.5 46.5q25 44 56 92t63 94.5t62 89t51.5 76.5t32 56.5t3.5 29.5q-11 10 -31.5 0.5t-43.5 -29t-45 -44.5t-35 -44q-17 -25 -31 -47.5t-26 -45.5t-22.5 -47.5t-21.5 -52.5q-7 -20 -18 -13.5
t-18.5 28t-9.5 52.5t9 60q31 85 78.5 140.5t97 81.5t93 23t64.5 -33q22 -32 27 -60t-1 -52.5t-18.5 -47t-23.5 -41.5q-7 -12 -19 -31t-27 -41.5t-31.5 -47t-32.5 -48.5q-38 -56 -82 -119q-10 -17 -26.5 -43t-29.5 -54t-17.5 -52.5t10.5 -38.5q13 -12 47 3t82 58t105.5 112.5
t117.5 167.5q6 8 8 12q53 90 109.5 176t105.5 176q6 10 21 4t28.5 -21t21 -35t-1.5 -38z" />
    <glyph glyph-name="Uacute" unicode="&#xda;" horiz-adv-x="606" 
d="M519 767q-11 -3 -25.5 2t-25 12.5t-14 15.5t6.5 12q31 11 62 22.5t63 20.5q12 3 25.5 -3t23.5 -15.5t13 -19t-5 -11.5q-15 -5 -33.5 -10t-36 -10.5t-32 -9.5t-22.5 -6zM754 618q-26 -53 -53 -101.5t-55.5 -94t-59 -89t-63.5 -88.5q-5 -8 -10 -17l-10 -18
q-8 -14 -20 -35.5t-25 -44.5t-24.5 -46.5t-17 -42.5t-3.5 -30.5t16 -11.5q2 0 6 0.5t12.5 4.5t22 14t34.5 30q53 53 98.5 105t85.5 116q8 13 17 7.5t13 -22t0 -41t-20 -49.5q-32 -49 -68.5 -89t-72.5 -69t-68.5 -45t-56.5 -16q-46 0 -67.5 25.5t-24.5 63.5
q-12 -13 -22.5 -23t-17.5 -16q-24 -19 -56.5 -36t-68 -20.5t-70.5 13t-63 64.5q-14 23 -15 48.5t5 51t17.5 50t23.5 46.5q25 44 56 92t63 94.5t62 89t51.5 76.5t32 56.5t3.5 29.5q-11 10 -31.5 0.5t-43.5 -29t-45 -44.5t-35 -44q-17 -25 -31 -47.5t-26 -45.5t-22.5 -47.5
t-21.5 -52.5q-7 -20 -18 -13.5t-18.5 28t-9.5 52.5t9 60q31 85 78.5 140.5t97 81.5t93 23t64.5 -33q22 -32 27 -60t-1 -52.5t-18.5 -47t-23.5 -41.5q-7 -12 -19 -31t-27 -41.5t-31.5 -47t-32.5 -48.5q-38 -56 -82 -119q-10 -17 -26.5 -43t-29.5 -54t-17.5 -52.5t10.5 -38.5
q13 -12 47 3t82 58t105.5 112.5t117.5 167.5q6 8 8 12q53 90 109.5 176t105.5 176q6 10 21 4t28.5 -21t21 -35t-1.5 -38z" />
    <glyph glyph-name="Ucircumflex" unicode="&#xdb;" horiz-adv-x="606" 
d="M627 879q20 -16 36 -30t35 -30q6 -6 1 -11t-15 -8t-22 -3t-19 5t-22.5 15.5t-29.5 21.5q-8 -3 -18.5 -8t-21 -9.5t-19.5 -8.5t-14 -5q-9 -3 -19 -2t-17.5 4t-9.5 7.5t5 9.5q22 12 50.5 28t50.5 27q11 5 26 4.5t23 -7.5zM754 618q-26 -53 -53 -101.5t-55.5 -94t-59 -89
t-63.5 -88.5q-5 -8 -10 -17l-10 -18q-8 -14 -20 -35.5t-25 -44.5t-24.5 -46.5t-17 -42.5t-3.5 -30.5t16 -11.5q2 0 6 0.5t12.5 4.5t22 14t34.5 30q53 53 98.5 105t85.5 116q8 13 17 7.5t13 -22t0 -41t-20 -49.5q-32 -49 -68.5 -89t-72.5 -69t-68.5 -45t-56.5 -16
q-46 0 -67.5 25.5t-24.5 63.5q-12 -13 -22.5 -23t-17.5 -16q-24 -19 -56.5 -36t-68 -20.5t-70.5 13t-63 64.5q-14 23 -15 48.5t5 51t17.5 50t23.5 46.5q25 44 56 92t63 94.5t62 89t51.5 76.5t32 56.5t3.5 29.5q-11 10 -31.5 0.5t-43.5 -29t-45 -44.5t-35 -44
q-17 -25 -31 -47.5t-26 -45.5t-22.5 -47.5t-21.5 -52.5q-7 -20 -18 -13.5t-18.5 28t-9.5 52.5t9 60q31 85 78.5 140.5t97 81.5t93 23t64.5 -33q22 -32 27 -60t-1 -52.5t-18.5 -47t-23.5 -41.5q-7 -12 -19 -31t-27 -41.5t-31.5 -47t-32.5 -48.5q-38 -56 -82 -119
q-10 -17 -26.5 -43t-29.5 -54t-17.5 -52.5t10.5 -38.5q13 -12 47 3t82 58t105.5 112.5t117.5 167.5q6 8 8 12q53 90 109.5 176t105.5 176q6 10 21 4t28.5 -21t21 -35t-1.5 -38z" />
    <glyph glyph-name="Udieresis" unicode="&#xdc;" horiz-adv-x="606" 
d="M535 863q15 -10 17 -30t-10 -39q-13 -19 -32 -25t-34 4q-16 10 -18 30t11 39q12 19 31 25t35 -4zM697 852q15 -10 17 -30t-10 -39q-13 -19 -32 -25.5t-34 3.5q-16 11 -18 30.5t11 39.5q12 19 31 25t35 -4zM754 618q-26 -53 -53 -101.5t-55.5 -94t-59 -89t-63.5 -88.5
q-5 -8 -10 -17l-10 -18q-8 -14 -20 -35.5t-25 -44.5t-24.5 -46.5t-17 -42.5t-3.5 -30.5t16 -11.5q2 0 6 0.5t12.5 4.5t22 14t34.5 30q53 53 98.5 105t85.5 116q8 13 17 7.5t13 -22t0 -41t-20 -49.5q-32 -49 -68.5 -89t-72.5 -69t-68.5 -45t-56.5 -16q-46 0 -67.5 25.5
t-24.5 63.5q-12 -13 -22.5 -23t-17.5 -16q-24 -19 -56.5 -36t-68 -20.5t-70.5 13t-63 64.5q-14 23 -15 48.5t5 51t17.5 50t23.5 46.5q25 44 56 92t63 94.5t62 89t51.5 76.5t32 56.5t3.5 29.5q-11 10 -31.5 0.5t-43.5 -29t-45 -44.5t-35 -44q-17 -25 -31 -47.5t-26 -45.5
t-22.5 -47.5t-21.5 -52.5q-7 -20 -18 -13.5t-18.5 28t-9.5 52.5t9 60q31 85 78.5 140.5t97 81.5t93 23t64.5 -33q22 -32 27 -60t-1 -52.5t-18.5 -47t-23.5 -41.5q-7 -12 -19 -31t-27 -41.5t-31.5 -47t-32.5 -48.5q-38 -56 -82 -119q-10 -17 -26.5 -43t-29.5 -54t-17.5 -52.5
t10.5 -38.5q13 -12 47 3t82 58t105.5 112.5t117.5 167.5q6 8 8 12q53 90 109.5 176t105.5 176q6 10 21 4t28.5 -21t21 -35t-1.5 -38z" />
    <glyph glyph-name="Yacute" unicode="&#xdd;" horiz-adv-x="595" 
d="M554 767q-11 -3 -25.5 2t-25 12.5t-14 15.5t6.5 12q31 11 62 22.5t63 20.5q12 3 25.5 -3t23.5 -15.5t13 -19t-5 -11.5q-15 -5 -33.5 -10t-36 -10.5t-32 -9.5t-22.5 -6zM682 696q8 13 22 5.5t27 -24t20 -36t2 -30.5q-26 -50 -59.5 -108t-62.5 -109q-40 -72 -90 -162.5
t-101.5 -187.5t-100.5 -194t-87 -181q-5 -9 -20.5 -4t-31 18t-25.5 29.5t-4 29.5q27 56 54 113t54 115q-24 -17 -55 -30.5t-64 -13.5t-64.5 17t-57.5 61q-14 23 -15 48.5t5.5 51t17.5 50t23 46.5q25 44 56 92t63 94.5t62 89t52 76.5t32.5 56.5t3.5 29.5q-11 10 -31.5 0.5
t-43.5 -29t-45 -44.5t-35 -44q-17 -25 -31 -47.5t-26 -45.5t-22.5 -47.5t-21.5 -52.5q-8 -20 -18.5 -13.5t-18.5 28t-10 52.5t9 60q31 85 79 140.5t97.5 81.5t92.5 23t65 -33q22 -32 27 -60t-1 -52.5t-18.5 -47t-23.5 -41.5q-7 -12 -19 -31t-27 -41.5t-31.5 -47t-32.5 -48.5
q-38 -56 -82 -119q-10 -17 -27 -43.5t-30 -54t-17.5 -52.5t10.5 -38q13 -12 47 3t82 58t106 112.5t118 167.5q4 6 15.5 24.5t28 45.5t36 59t39.5 65q47 77 104 170z" />
    <glyph glyph-name="Thorn" unicode="&#xde;" horiz-adv-x="662" 
d="M564 695q43 -20 79.5 -50.5t62 -68.5t36.5 -81.5t4 -89.5q-5 -28 -19 -63.5t-40.5 -72t-68 -71t-101 -59.5t-139.5 -38t-183 -6q-10 -17 -23 -38.5t-25.5 -42.5t-23 -38.5t-15.5 -24.5q-6 -10 -22 -7t-31.5 12.5t-25.5 22t-5 21.5t18 30t30 49t36 59t37 59.5t32.5 51.5
t22.5 34q-43 29 -68.5 60t-36.5 63.5t-8.5 65t16.5 63.5q27 59 69.5 97.5t91 60t100.5 28t99 2.5q2 0 4.5 -0.5t4.5 -0.5q23 37 43 70t36 58t25.5 41t11.5 19q7 12 20.5 5.5t25 -21.5t17.5 -33t-1 -30q-13 -19 -35 -54.5t-51 -81.5zM309 623q-19 -11 -41.5 -31.5t-43.5 -46
t-36.5 -55t-19 -59.5t8 -59t45.5 -53q11 17 33.5 53t51.5 83t62.5 101t66.5 107q-34 -2 -66.5 -12.5t-60.5 -27.5zM229 149q97 2 180 35.5t142 86t88.5 117t19.5 129.5q-10 56 -42.5 89t-77.5 47q-28 -45 -59 -95t-61.5 -100t-60 -98t-55 -89t-44.5 -72.5t-30 -49.5z" />
    <glyph glyph-name="germandbls" unicode="&#xdf;" horiz-adv-x="462" 
d="M559 662q31 -36 29 -73t-25.5 -71.5t-64 -65t-86.5 -52.5q40 -27 55 -68t8 -88t-33.5 -95.5t-70.5 -89.5q-22 -20 -47.5 -35t-52.5 -21t-55 -2t-54 21q-30 20 -41 43t-8 46t18.5 44.5t38.5 39.5q22 17 47.5 23t44.5 4t26 -9.5t-9 -17.5q-22 -15 -42.5 -35t-35.5 -39.5
t-22 -35.5t-2 -22q8 -9 29 -2.5t46 23t49.5 40.5t40.5 48q13 20 26.5 43t22.5 46.5t12 45.5t-4 40q-5 12 -15 18t-23 7.5t-28 0t-29 -4.5q-6 -2 -14.5 7t-15.5 20q-46 -69 -94.5 -141.5t-95 -142t-88.5 -132t-74 -110.5q-6 -9 -18.5 -2.5t-23 21t-16 32t3.5 31.5
q21 32 48.5 74t58.5 89t63.5 96t63.5 96q72 109 151 227q16 24 37 51.5t46 52.5t52.5 44t56.5 25.5t58 -3t56 -41.5zM306 443q66 23 109.5 54t67.5 60t29 52t-5 31t-29 -1.5t-42 -29.5t-47.5 -48.5t-44.5 -58.5q-9 -13 -12 -18t-5.5 -9t-6.5 -10.5t-14 -21.5z" />
    <glyph glyph-name="agrave" unicode="&#xe0;" horiz-adv-x="430" 
d="M370 439q-5 7 -13 19.5t-17.5 28t-19.5 32t-19 30.5q-5 7 4 12t22.5 5.5t28 -4t21.5 -15.5q17 -27 32.5 -56t31.5 -58q5 -10 -3 -14t-21 -2.5t-27 7t-20 15.5zM483 226q4 7 13.5 2.5t16 -17t6.5 -31t-14 -39.5q-35 -53 -69 -84.5t-64.5 -45.5t-56 -13t-43.5 14
q-17 12 -23.5 28t-7.5 35q-21 -25 -44 -44t-46.5 -27.5t-48 -3t-49.5 30.5q-24 25 -32 51.5t-2 57t24 66.5t47 79q30 46 69 81t71 52q27 14 47.5 10.5t44.5 -22.5q7 -5 15.5 -10.5t16 -11.5t13 -13.5t5.5 -17.5q10 -4 20 -11t16.5 -14.5t9.5 -15t0 -12.5q-7 -9 -27.5 -36.5
t-43.5 -63.5q-13 -20 -26 -43t-21.5 -44t-9.5 -38t10 -24q10 -7 32.5 9t49.5 44t54 61t47 61zM73 58q3 -5 14.5 -1.5t31 18.5t47.5 44t66 76l18 26q10 16 21.5 36.5t20.5 39.5t13 34.5t-2 20.5t-22.5 -3t-38.5 -27t-46.5 -47.5t-48.5 -63.5q-16 -23 -31 -47.5t-26 -46
t-16 -37.5t-1 -22z" />
    <glyph glyph-name="aacute" unicode="&#xe1;" horiz-adv-x="430" 
d="M385 460q-11 -3 -25.5 2t-25 12.5t-14 15.5t6.5 12q31 11 62 22.5t63 20.5q12 3 25.5 -3t23.5 -15.5t13 -19t-5 -11.5q-15 -5 -33.5 -10t-36 -10.5t-32 -9.5t-22.5 -6zM483 226q4 7 13.5 2.5t16 -17t6.5 -31t-14 -39.5q-35 -53 -69 -84.5t-64.5 -45.5t-56 -13t-43.5 14
q-17 12 -23.5 28t-7.5 35q-21 -25 -44 -44t-46.5 -27.5t-48 -3t-49.5 30.5q-24 25 -32 51.5t-2 57t24 66.5t47 79q30 46 69 81t71 52q27 14 47.5 10.5t44.5 -22.5q7 -5 15.5 -10.5t16 -11.5t13 -13.5t5.5 -17.5q10 -4 20 -11t16.5 -14.5t9.5 -15t0 -12.5q-7 -9 -27.5 -36.5
t-43.5 -63.5q-13 -20 -26 -43t-21.5 -44t-9.5 -38t10 -24q10 -7 32.5 9t49.5 44t54 61t47 61zM73 58q3 -5 14.5 -1.5t31 18.5t47.5 44t66 76l18 26q10 16 21.5 36.5t20.5 39.5t13 34.5t-2 20.5t-22.5 -3t-38.5 -27t-46.5 -47.5t-48.5 -63.5q-16 -23 -31 -47.5t-26 -46
t-16 -37.5t-1 -22z" />
    <glyph glyph-name="acircumflex" unicode="&#xe2;" horiz-adv-x="430" 
d="M461 514q11 -22 21 -41.5t21 -41.5q4 -8 -3 -10.5t-17.5 -1.5t-21.5 5.5t-15 12.5q-5 7 -15 22.5t-19 31.5h-20.5h-23h-21h-14.5q-9 1 -18 5.5t-14.5 10.5t-6 11t7.5 6q25 3 57.5 6.5t57.5 5.5q12 1 25.5 -5.5t18.5 -16.5zM483 226q4 7 13.5 2.5t16 -17t6.5 -31
t-14 -39.5q-35 -53 -69 -84.5t-64.5 -45.5t-56 -13t-43.5 14q-17 12 -23.5 28t-7.5 35q-21 -25 -44 -44t-46.5 -27.5t-48 -3t-49.5 30.5q-24 25 -32 51.5t-2 57t24 66.5t47 79q30 46 69 81t71 52q27 14 47.5 10.5t44.5 -22.5q7 -5 15.5 -10.5t16 -11.5t13 -13.5t5.5 -17.5
q10 -4 20 -11t16.5 -14.5t9.5 -15t0 -12.5q-7 -9 -27.5 -36.5t-43.5 -63.5q-13 -20 -26 -43t-21.5 -44t-9.5 -38t10 -24q10 -7 32.5 9t49.5 44t54 61t47 61zM73 58q3 -5 14.5 -1.5t31 18.5t47.5 44t66 76l18 26q10 16 21.5 36.5t20.5 39.5t13 34.5t-2 20.5t-22.5 -3
t-38.5 -27t-46.5 -47.5t-48.5 -63.5q-16 -23 -31 -47.5t-26 -46t-16 -37.5t-1 -22z" />
    <glyph glyph-name="atilde" unicode="&#xe3;" horiz-adv-x="430" 
d="M508 453q4 1 6 -3.5t0 -11t-7.5 -13.5t-16.5 -11q-27 -9 -50.5 -3.5t-41.5 28.5q-9 11 -17.5 23t-18 21t-22 13t-28.5 0q-15 -4 -16.5 1t4 12.5t14.5 15.5t16 10q29 8 53.5 3.5t44.5 -28.5q8 -10 16 -21.5t17 -21t20.5 -14.5t26.5 0zM483 226q4 7 13.5 2.5t16 -17
t6.5 -31t-14 -39.5q-35 -53 -69 -84.5t-64.5 -45.5t-56 -13t-43.5 14q-17 12 -23.5 28t-7.5 35q-21 -25 -44 -44t-46.5 -27.5t-48 -3t-49.5 30.5q-24 25 -32 51.5t-2 57t24 66.5t47 79q30 46 69 81t71 52q27 14 47.5 10.5t44.5 -22.5q7 -5 15.5 -10.5t16 -11.5t13 -13.5
t5.5 -17.5q10 -4 20 -11t16.5 -14.5t9.5 -15t0 -12.5q-7 -9 -27.5 -36.5t-43.5 -63.5q-13 -20 -26 -43t-21.5 -44t-9.5 -38t10 -24q10 -7 32.5 9t49.5 44t54 61t47 61zM73 58q3 -5 14.5 -1.5t31 18.5t47.5 44t66 76l18 26q10 16 21.5 36.5t20.5 39.5t13 34.5t-2 20.5
t-22.5 -3t-38.5 -27t-46.5 -47.5t-48.5 -63.5q-16 -23 -31 -47.5t-26 -46t-16 -37.5t-1 -22z" />
    <glyph glyph-name="adieresis" unicode="&#xe4;" horiz-adv-x="430" 
d="M404 589q15 -10 17 -30t-10 -39q-13 -19 -32 -25t-34 4q-16 10 -18 30t11 39q12 19 31 25t35 -4zM514 528q15 -10 17 -30t-10 -39q-13 -19 -32 -25.5t-34 3.5q-16 11 -18 30.5t11 39.5q12 19 31 25t35 -4zM483 226q4 7 13.5 2.5t16 -17t6.5 -31t-14 -39.5
q-35 -53 -69 -84.5t-64.5 -45.5t-56 -13t-43.5 14q-17 12 -23.5 28t-7.5 35q-21 -25 -44 -44t-46.5 -27.5t-48 -3t-49.5 30.5q-24 25 -32 51.5t-2 57t24 66.5t47 79q30 46 69 81t71 52q27 14 47.5 10.5t44.5 -22.5q7 -5 15.5 -10.5t16 -11.5t13 -13.5t5.5 -17.5
q10 -4 20 -11t16.5 -14.5t9.5 -15t0 -12.5q-7 -9 -27.5 -36.5t-43.5 -63.5q-13 -20 -26 -43t-21.5 -44t-9.5 -38t10 -24q10 -7 32.5 9t49.5 44t54 61t47 61zM73 58q3 -5 14.5 -1.5t31 18.5t47.5 44t66 76l18 26q10 16 21.5 36.5t20.5 39.5t13 34.5t-2 20.5t-22.5 -3
t-38.5 -27t-46.5 -47.5t-48.5 -63.5q-16 -23 -31 -47.5t-26 -46t-16 -37.5t-1 -22z" />
    <glyph glyph-name="aring" unicode="&#xe5;" horiz-adv-x="430" 
d="M462 579q31 -17 36.5 -46t-6.5 -61q-7 -14 -17.5 -26.5t-23 -19.5t-27 -7.5t-30.5 8.5q-29 17 -36.5 46.5t6.5 59.5q7 15 17 27t23 19t27.5 8t30.5 -8zM401 448q9 -4 23 10.5t24 35.5q9 19 11.5 38t-5.5 24q-8 4 -21.5 -9.5t-22.5 -31.5q-5 -10 -8 -21t-4.5 -21t-0.5 -17
t4 -8zM483 226q4 7 13.5 2.5t16 -17t6.5 -31t-14 -39.5q-35 -53 -69 -84.5t-64.5 -45.5t-56 -13t-43.5 14q-17 12 -23.5 28t-7.5 35q-21 -25 -44 -44t-46.5 -27.5t-48 -3t-49.5 30.5q-24 25 -32 51.5t-2 57t24 66.5t47 79q30 46 69 81t71 52q27 14 47.5 10.5t44.5 -22.5
q7 -5 15.5 -10.5t16 -11.5t13 -13.5t5.5 -17.5q10 -4 20 -11t16.5 -14.5t9.5 -15t0 -12.5q-7 -9 -27.5 -36.5t-43.5 -63.5q-13 -20 -26 -43t-21.5 -44t-9.5 -38t10 -24q10 -7 32.5 9t49.5 44t54 61t47 61zM73 58q3 -5 14.5 -1.5t31 18.5t47.5 44t66 76l18 26
q10 16 21.5 36.5t20.5 39.5t13 34.5t-2 20.5t-22.5 -3t-38.5 -27t-46.5 -47.5t-48.5 -63.5q-16 -23 -31 -47.5t-26 -46t-16 -37.5t-1 -22z" />
    <glyph glyph-name="ae" unicode="&#xe6;" horiz-adv-x="569" 
d="M245 89q-23 -29 -47.5 -51t-49.5 -31t-50 -4t-50 30q-24 25 -32 51.5t-2 57t24 66t47 78.5q30 46 68.5 80.5t70.5 51.5q27 14 47.5 11t44.5 -22q7 -5 15.5 -10.5t16 -11.5t13 -13.5t5.5 -17.5q10 -4 20 -11t16.5 -14.5t9.5 -15t0 -11.5q-4 -5 -11 -14t-16 -22
q-19 -27 -29.5 -51.5t-4.5 -28.5q6 -3 16 2t23 15t27 24.5t28 30.5q37 45 53.5 79t9.5 40q-7 5 -24 -3t-35 -24q-6 -5 -13 -0.5t-12.5 14.5t-8 23.5t1.5 26.5t16 24t35 16q35 7 60.5 -5.5t39.5 -36.5t15 -55.5t-12 -62.5q-28 -65 -72.5 -108.5t-97.5 -54.5q-20 -4 -40 8.5
t-33 24.5q-11 -33 -10 -62t16 -40q19 -13 53.5 -8.5t76 27t86 63t83.5 98.5q4 6 13.5 1t16 -17.5t6.5 -31t-15 -40.5q-27 -40 -68.5 -76t-90.5 -57t-100 -21.5t-97 29.5q-20 13 -33 26.5t-20 33.5zM244 222q10 16 21.5 36.5t20.5 39.5t13 34.5t-2 20.5t-22 -3t-38 -27
t-47 -47.5t-49 -63.5q-15 -23 -30 -47t-26 -45.5t-16 -37.5t-1 -22q3 -5 14.5 -1.5t31 18.5t47.5 43.5t65 75.5z" />
    <glyph glyph-name="ccedilla" unicode="&#xe7;" horiz-adv-x="357" 
d="M290 203q-5 -6 -15 1t-17.5 21t-9.5 32t8 36q23 40 29 55.5t3 18.5q-6 6 -38.5 -21t-79.5 -90q-24 -34 -39.5 -65.5t-22 -57.5t-3.5 -45t15 -28q19 -13 53.5 -8.5t76 27t86 63t83.5 99.5q4 6 13.5 1.5t16.5 -16t7.5 -30t-13.5 -40.5q-19 -30 -48 -58t-64.5 -50t-75 -35.5
t-78.5 -12.5l-9 -24q20 4 38 -5t26 -26q12 -25 4.5 -44.5t-25.5 -32.5t-41 -19t-42 -5q-18 1 -29.5 8.5t-17 16t-4 15t10.5 6.5q12 0 30.5 2t36.5 7.5t30 14t10 20.5q-2 7 -8.5 9t-14.5 0.5t-15 -4t-9 -3.5q-6 -3 -17 0t-21.5 9t-18 14t-4.5 16t8 19l10 22q-11 4 -22 12
q-24 15 -41.5 37.5t-17.5 66.5q0 27 10 59.5t27 65.5t39.5 65.5t47 58.5t49.5 44.5t48 24.5q11 4 25 1.5t22 -10.5q26 -25 41.5 -42.5t22 -34t4.5 -33.5t-11 -40q-11 -24 -23.5 -44.5t-35.5 -43.5z" />
    <glyph glyph-name="egrave" unicode="&#xe8;" horiz-adv-x="356" 
d="M348 439q-5 7 -13 19.5t-17.5 28t-19.5 32t-19 30.5q-5 7 4 12t22.5 5.5t28 -4t21.5 -15.5q17 -27 32.5 -56t31.5 -58q5 -10 -3 -14t-21 -2.5t-27 7t-20 15.5zM240 450q12 3 29 2.5t33 -12.5q29 -21 44.5 -37t21 -32.5t2 -35t-12.5 -42.5q-26 -66 -71.5 -109.5
t-99.5 -54.5q-20 -4 -39.5 9t-32.5 25q-11 -33 -10 -62.5t15 -39.5q19 -13 53.5 -8.5t76 27t86 62.5t84.5 99q4 6 13.5 2t16.5 -16t7 -30.5t-15 -41.5q-24 -38 -66 -74t-91.5 -58t-101.5 -23.5t-98 28.5q-15 9 -26 19t-19 22.5t-12 28.5t-4 38q0 26 10 58t26.5 65t38 64.5
t45.5 57.5t49 44.5t48 24.5zM170 257q-20 -27 -30 -47.5t-3 -24.5q6 -3 16 1.5t22.5 15t27 24.5t28.5 31q37 44 52.5 79t9.5 40q-7 5 -42.5 -25t-80.5 -94z" />
    <glyph glyph-name="eacute" unicode="&#xe9;" horiz-adv-x="356" 
d="M364 460q-11 -3 -25.5 2t-25 12.5t-14 15.5t6.5 12q31 11 62 22.5t63 20.5q12 3 25.5 -3t23.5 -15.5t13 -19t-5 -11.5q-15 -5 -33.5 -10t-36 -10.5t-32 -9.5t-22.5 -6zM240 450q12 3 29 2.5t33 -12.5q29 -21 44.5 -37t21 -32.5t2 -35t-12.5 -42.5q-26 -66 -71.5 -109.5
t-99.5 -54.5q-20 -4 -39.5 9t-32.5 25q-11 -33 -10 -62.5t15 -39.5q19 -13 53.5 -8.5t76 27t86 62.5t84.5 99q4 6 13.5 2t16.5 -16t7 -30.5t-15 -41.5q-24 -38 -66 -74t-91.5 -58t-101.5 -23.5t-98 28.5q-15 9 -26 19t-19 22.5t-12 28.5t-4 38q0 26 10 58t26.5 65t38 64.5
t45.5 57.5t49 44.5t48 24.5zM170 257q-20 -27 -30 -47.5t-3 -24.5q6 -3 16 1.5t22.5 15t27 24.5t28.5 31q37 44 52.5 79t9.5 40q-7 5 -42.5 -25t-80.5 -94z" />
    <glyph glyph-name="ecircumflex" unicode="&#xea;" horiz-adv-x="356" 
d="M415 514q11 -22 21 -41.5t21 -41.5q4 -8 -3 -10.5t-17.5 -1.5t-21.5 5.5t-15 12.5q-5 7 -15 22.5t-19 31.5h-20.5h-23h-21h-14.5q-9 1 -18 5.5t-14.5 10.5t-6 11t7.5 6q25 3 57.5 6.5t57.5 5.5q12 1 25.5 -5.5t18.5 -16.5zM240 450q12 3 29 2.5t33 -12.5q29 -21 44.5 -37
t21 -32.5t2 -35t-12.5 -42.5q-26 -66 -71.5 -109.5t-99.5 -54.5q-20 -4 -39.5 9t-32.5 25q-11 -33 -10 -62.5t15 -39.5q19 -13 53.5 -8.5t76 27t86 62.5t84.5 99q4 6 13.5 2t16.5 -16t7 -30.5t-15 -41.5q-24 -38 -66 -74t-91.5 -58t-101.5 -23.5t-98 28.5q-15 9 -26 19
t-19 22.5t-12 28.5t-4 38q0 26 10 58t26.5 65t38 64.5t45.5 57.5t49 44.5t48 24.5zM170 257q-20 -27 -30 -47.5t-3 -24.5q6 -3 16 1.5t22.5 15t27 24.5t28.5 31q37 44 52.5 79t9.5 40q-7 5 -42.5 -25t-80.5 -94z" />
    <glyph glyph-name="edieresis" unicode="&#xeb;" horiz-adv-x="356" 
d="M352 601q15 -10 17 -30t-10 -39q-13 -19 -32 -25t-34 4q-16 10 -18 30t11 39q12 19 31 25t35 -4zM462 540q15 -10 17 -30t-10 -39q-13 -19 -32 -25.5t-34 3.5q-16 11 -18 30.5t11 39.5q12 19 31 25t35 -4zM240 450q12 3 29 2.5t33 -12.5q29 -21 44.5 -37t21 -32.5t2 -35
t-12.5 -42.5q-26 -66 -71.5 -109.5t-99.5 -54.5q-20 -4 -39.5 9t-32.5 25q-11 -33 -10 -62.5t15 -39.5q19 -13 53.5 -8.5t76 27t86 62.5t84.5 99q4 6 13.5 2t16.5 -16t7 -30.5t-15 -41.5q-24 -38 -66 -74t-91.5 -58t-101.5 -23.5t-98 28.5q-15 9 -26 19t-19 22.5t-12 28.5
t-4 38q0 26 10 58t26.5 65t38 64.5t45.5 57.5t49 44.5t48 24.5zM170 257q-20 -27 -30 -47.5t-3 -24.5q6 -3 16 1.5t22.5 15t27 24.5t28.5 31q37 44 52.5 79t9.5 40q-7 5 -42.5 -25t-80.5 -94z" />
    <glyph glyph-name="igrave" unicode="&#xec;" horiz-adv-x="237" 
d="M259 439q-5 7 -13 19.5t-17.5 28t-19.5 32t-19 30.5q-5 7 4 12t22.5 5.5t28 -4t21.5 -15.5q17 -27 32.5 -56t31.5 -58q5 -10 -3 -14t-21 -2.5t-27 7t-20 15.5zM242 336q-7 -12 -17.5 -27.5t-22.5 -32t-23.5 -31.5t-19.5 -26q-15 -22 -29 -47t-23 -48t-11.5 -40.5
t4.5 -23.5q11 -9 35.5 6t53 42t57 60t48.5 61q4 6 13.5 1.5t16 -17t6.5 -30.5t-14 -39q-35 -53 -70 -85t-66.5 -46.5t-57 -13t-41.5 16.5q-42 39 -53.5 74.5t-3.5 69.5t29.5 67.5t45.5 67.5q29 42 50 67t25 30q9 10 22 5t24.5 -16t18.5 -24.5t3 -20.5z" />
    <glyph glyph-name="iacute" unicode="&#xed;" horiz-adv-x="237" 
d="M279 460q-11 -3 -25.5 2t-25 12.5t-14 15.5t6.5 12q31 11 62 22.5t63 20.5q12 3 25.5 -3t23.5 -15.5t13 -19t-5 -11.5q-15 -5 -33.5 -10t-36 -10.5t-32 -9.5t-22.5 -6zM242 336q-7 -12 -17.5 -27.5t-22.5 -32t-23.5 -31.5t-19.5 -26q-15 -22 -29 -47t-23 -48t-11.5 -40.5
t4.5 -23.5q11 -9 35.5 6t53 42t57 60t48.5 61q4 6 13.5 1.5t16 -17t6.5 -30.5t-14 -39q-35 -53 -70 -85t-66.5 -46.5t-57 -13t-41.5 16.5q-42 39 -53.5 74.5t-3.5 69.5t29.5 67.5t45.5 67.5q29 42 50 67t25 30q9 10 22 5t24.5 -16t18.5 -24.5t3 -20.5z" />
    <glyph glyph-name="icircumflex" unicode="&#xee;" horiz-adv-x="237" 
d="M242 336q-7 -12 -17.5 -27.5t-22.5 -32t-23.5 -31.5t-19.5 -26q-15 -22 -29 -47t-23 -48t-11.5 -40.5t4.5 -23.5q11 -9 35.5 6t53 42t57 60t48.5 61q4 6 13.5 1.5t16 -17t6.5 -30.5t-14 -39q-35 -53 -70 -85t-66.5 -46.5t-57 -13t-41.5 16.5q-42 39 -53.5 74.5t-3.5 69.5
t29.5 67.5t45.5 67.5q29 42 50 67t25 30q9 10 22 5t24.5 -16t18.5 -24.5t3 -20.5zM344 514q11 -22 21 -41.5t21 -41.5q4 -8 -3 -10.5t-17.5 -1.5t-21.5 5.5t-15 12.5q-5 7 -15 22.5t-19 31.5h-20.5h-23h-21h-14.5q-9 1 -18 5.5t-14.5 10.5t-6 11t7.5 6q25 3 57.5 6.5
t57.5 5.5q12 1 25.5 -5.5t18.5 -16.5z" />
    <glyph glyph-name="idieresis" unicode="&#xef;" horiz-adv-x="237" 
d="M242 336q-7 -12 -17.5 -27.5t-22.5 -32t-23.5 -31.5t-19.5 -26q-15 -22 -29 -47t-23 -48t-11.5 -40.5t4.5 -23.5q11 -9 35.5 6t53 42t57 60t48.5 61q4 6 13.5 1.5t16 -17t6.5 -30.5t-14 -39q-35 -53 -70 -85t-66.5 -46.5t-57 -13t-41.5 16.5q-42 39 -53.5 74.5t-3.5 69.5
t29.5 67.5t45.5 67.5q29 42 50 67t25 30q9 10 22 5t24.5 -16t18.5 -24.5t3 -20.5zM291 605q15 -10 17 -30t-10 -39q-13 -19 -32 -25t-34 4q-16 10 -18 30t11 39q12 19 31 25t35 -4zM401 544q15 -10 17 -30t-10 -39q-13 -19 -32 -25.5t-34 3.5q-16 11 -18 30.5t11 39.5
q12 19 31 25t35 -4z" />
    <glyph glyph-name="eth" unicode="&#xf0;" horiz-adv-x="382" 
d="M309 497q-15 -2 -31.5 6.5t-28 19.5t-14 21t10.5 12q17 2 34.5 4t34.5 4q-19 79 -59 156q-6 10 4.5 14t26.5 2t32.5 -9t22.5 -18q37 -70 55 -139q8 0 15.5 0.5t15.5 0.5q16 1 33 -8t28.5 -20.5t13.5 -20.5t-12 -9l-82 -7q4 -33 4.5 -71.5t-4 -79t-15 -81.5t-28.5 -80
q-8 -18 -22 -42.5t-31 -49.5t-37 -47.5t-39 -35.5q-29 -19 -53.5 -24t-43.5 -2t-32.5 10.5t-19.5 12.5t-18.5 12.5t-23.5 19.5t-18.5 29.5t-3.5 42.5q2 49 19.5 93t43 79.5t55.5 60.5t58 36t51 9t37.5 -9.5t18.5 -17.5t-5 -14q-8 -3 -23.5 -11t-35.5 -22.5t-41.5 -37
t-41.5 -54.5q-15 -24 -27 -52.5t-19 -54t-7 -44.5t9 -26q10 -8 29.5 3.5t41 33t41.5 49.5t33 53q19 37 34 72t23.5 72t10.5 76.5t-3 84.5z" />
    <glyph glyph-name="ntilde" unicode="&#xf1;" horiz-adv-x="433" 
d="M445 525q4 3 7 -1t4 -10.5t-2 -15.5t-12 -16q-23 -17 -46.5 -20.5t-48.5 12.5q-12 7 -24 15.5t-24.5 13.5t-25.5 5t-26 -10q-13 -9 -16 -5t-1 13.5t8 20t12 14.5q24 17 49 21.5t52 -11.5q10 -6 21.5 -14.5t23.5 -14t24.5 -6t24.5 8.5zM-48 57q5 10 22 39.5t40 68t48.5 82
t48.5 81t40 65.5t23 37q7 10 20.5 6t24.5 -17.5t16 -32.5t-4 -37q-9 -19 -23 -44t-30 -53t-33 -56.5t-32 -53.5q38 37 78 76t77.5 77.5t71 73t59.5 62.5q7 9 24 6.5t32 -12t23 -23t-2 -27.5q-18 -26 -42.5 -60t-49 -70t-46 -70.5t-34.5 -61.5q-11 -23 -18 -41t1 -25
q4 -4 24 6.5t49 34t63.5 60t68.5 85.5q5 8 14 3t15.5 -18t6.5 -32t-13 -38q-47 -70 -95 -105t-89 -42t-71 10.5t-41 53.5q-4 13 -2.5 31t6.5 36.5t12 36.5t15 33l9 15q-32 -32 -65.5 -64.5t-64.5 -61t-57 -51.5t-43 -37q-7 -5 -22 -1.5t-29 12.5t-23 20.5t-3 22.5z" />
    <glyph glyph-name="ograve" unicode="&#xf2;" horiz-adv-x="419" 
d="M348 439q-5 7 -13 19.5t-17.5 28t-19.5 32t-19 30.5q-5 7 4 12t22.5 5.5t28 -4t21.5 -15.5q17 -27 32.5 -56t31.5 -58q5 -10 -3 -14t-21 -2.5t-27 7t-20 15.5zM475 236q3 5 12.5 1t16.5 -16t8 -30t-14 -41q-14 -20 -36.5 -41.5t-48.5 -33t-53.5 -8.5t-51.5 32
q-17 -24 -36.5 -45.5t-38.5 -33.5q-29 -20 -53.5 -24.5t-43.5 -1.5t-32.5 10.5t-19.5 12.5t-17.5 12t-22.5 19t-18.5 29.5t-5.5 42.5q4 49 21.5 93t40.5 80t47 62.5t41 41.5q35 30 62 34t55 -12q40 -23 61.5 -46t28.5 -49.5t1.5 -58t-18.5 -71.5q-3 -8 -7 -16.5t-9 -18.5
q3 -8 7 -15t9 -9q16 -6 46 16t69 85zM113 55q10 -8 28 3t38 31.5t39 44.5t31 43l6 10t7 11q-11 30 -18 67t-2 68q-19 -15 -40.5 -39.5t-44.5 -61.5q-15 -24 -27.5 -52.5t-19 -54t-6.5 -44.5t9 -26z" />
    <glyph glyph-name="oacute" unicode="&#xf3;" horiz-adv-x="419" 
d="M312 460q-11 -3 -25.5 2t-25 12.5t-14 15.5t6.5 12q31 11 62 22.5t63 20.5q12 3 25.5 -3t23.5 -15.5t13 -19t-5 -11.5q-15 -5 -33.5 -10t-36 -10.5t-32 -9.5t-22.5 -6zM475 236q3 5 12.5 1t16.5 -16t8 -30t-14 -41q-14 -20 -36.5 -41.5t-48.5 -33t-53.5 -8.5t-51.5 32
q-17 -24 -36.5 -45.5t-38.5 -33.5q-29 -20 -53.5 -24.5t-43.5 -1.5t-32.5 10.5t-19.5 12.5t-17.5 12t-22.5 19t-18.5 29.5t-5.5 42.5q4 49 21.5 93t40.5 80t47 62.5t41 41.5q35 30 62 34t55 -12q40 -23 61.5 -46t28.5 -49.5t1.5 -58t-18.5 -71.5q-3 -8 -7 -16.5t-9 -18.5
q3 -8 7 -15t9 -9q16 -6 46 16t69 85zM113 55q10 -8 28 3t38 31.5t39 44.5t31 43l6 10t7 11q-11 30 -18 67t-2 68q-19 -15 -40.5 -39.5t-44.5 -61.5q-15 -24 -27.5 -52.5t-19 -54t-6.5 -44.5t9 -26z" />
    <glyph glyph-name="ocircumflex" unicode="&#xf4;" horiz-adv-x="419" 
d="M423 514q11 -22 21 -41.5t21 -41.5q4 -8 -3 -10.5t-17.5 -1.5t-21.5 5.5t-15 12.5q-5 7 -15 22.5t-19 31.5h-20.5h-23h-21h-14.5q-9 1 -18 5.5t-14.5 10.5t-6 11t7.5 6q25 3 57.5 6.5t57.5 5.5q12 1 25.5 -5.5t18.5 -16.5zM475 236q3 5 12.5 1t16.5 -16t8 -30t-14 -41
q-14 -20 -36.5 -41.5t-48.5 -33t-53.5 -8.5t-51.5 32q-17 -24 -36.5 -45.5t-38.5 -33.5q-29 -20 -53.5 -24.5t-43.5 -1.5t-32.5 10.5t-19.5 12.5t-17.5 12t-22.5 19t-18.5 29.5t-5.5 42.5q4 49 21.5 93t40.5 80t47 62.5t41 41.5q35 30 62 34t55 -12q40 -23 61.5 -46
t28.5 -49.5t1.5 -58t-18.5 -71.5q-3 -8 -7 -16.5t-9 -18.5q3 -8 7 -15t9 -9q16 -6 46 16t69 85zM113 55q10 -8 28 3t38 31.5t39 44.5t31 43l6 10t7 11q-11 30 -18 67t-2 68q-19 -15 -40.5 -39.5t-44.5 -61.5q-15 -24 -27.5 -52.5t-19 -54t-6.5 -44.5t9 -26z" />
    <glyph glyph-name="otilde" unicode="&#xf5;" horiz-adv-x="419" 
d="M469 453q4 1 6 -3.5t0 -11t-7.5 -13.5t-16.5 -11q-27 -9 -50.5 -3.5t-41.5 28.5q-9 11 -17.5 23t-18 21t-22 13t-28.5 0q-15 -4 -16.5 1t4 12.5t14.5 15.5t16 10q29 8 53.5 3.5t44.5 -28.5q8 -10 16 -21.5t17 -21t20.5 -14.5t26.5 0zM475 236q3 5 12.5 1t16.5 -16t8 -30
t-14 -41q-14 -20 -36.5 -41.5t-48.5 -33t-53.5 -8.5t-51.5 32q-17 -24 -36.5 -45.5t-38.5 -33.5q-29 -20 -53.5 -24.5t-43.5 -1.5t-32.5 10.5t-19.5 12.5t-17.5 12t-22.5 19t-18.5 29.5t-5.5 42.5q4 49 21.5 93t40.5 80t47 62.5t41 41.5q35 30 62 34t55 -12q40 -23 61.5 -46
t28.5 -49.5t1.5 -58t-18.5 -71.5q-3 -8 -7 -16.5t-9 -18.5q3 -8 7 -15t9 -9q16 -6 46 16t69 85zM113 55q10 -8 28 3t38 31.5t39 44.5t31 43l6 10t7 11q-11 30 -18 67t-2 68q-19 -15 -40.5 -39.5t-44.5 -61.5q-15 -24 -27.5 -52.5t-19 -54t-6.5 -44.5t9 -26z" />
    <glyph glyph-name="odieresis" unicode="&#xf6;" horiz-adv-x="419" 
d="M357 572q15 -10 17 -30t-10 -39q-13 -19 -32 -25t-34 4q-16 10 -18 30t11 39q12 19 31 25t35 -4zM467 511q15 -10 17 -30t-10 -39q-13 -19 -32 -25.5t-34 3.5q-16 11 -18 30.5t11 39.5q12 19 31 25t35 -4zM475 236q3 5 12.5 1t16.5 -16t8 -30t-14 -41
q-14 -20 -36.5 -41.5t-48.5 -33t-53.5 -8.5t-51.5 32q-17 -24 -36.5 -45.5t-38.5 -33.5q-29 -20 -53.5 -24.5t-43.5 -1.5t-32.5 10.5t-19.5 12.5t-17.5 12t-22.5 19t-18.5 29.5t-5.5 42.5q4 49 21.5 93t40.5 80t47 62.5t41 41.5q35 30 62 34t55 -12q40 -23 61.5 -46
t28.5 -49.5t1.5 -58t-18.5 -71.5q-3 -8 -7 -16.5t-9 -18.5q3 -8 7 -15t9 -9q16 -6 46 16t69 85zM113 55q10 -8 28 3t38 31.5t39 44.5t31 43l6 10t7 11q-11 30 -18 67t-2 68q-19 -15 -40.5 -39.5t-44.5 -61.5q-15 -24 -27.5 -52.5t-19 -54t-6.5 -44.5t9 -26z" />
    <glyph glyph-name="divide" unicode="&#xf7;" horiz-adv-x="540" 
d="M193 182q-17 -2 -35.5 8t-31 22t-15 23t11.5 13q31 3 76 6t91 5.5t87 3.5t65 1q18 0 37.5 -10.5t32 -22.5t14.5 -22.5t-13 -10.5q-29 0 -73.5 -2t-91.5 -4.5t-89 -5t-66 -4.5zM367 390q15 -10 17 -30t-10 -39q-13 -19 -32 -25t-34 4q-16 10 -18 30t11 39q12 19 31 25
t35 -4zM309 150q15 -10 17 -30t-10 -39q-13 -19 -32 -25t-34 4q-16 10 -18 30t11 39q12 19 31 25t35 -4z" />
    <glyph glyph-name="oslash" unicode="&#xf8;" horiz-adv-x="419" 
d="M64 5q-7 -8 -18 -5t-19 7q-5 2 -10.5 5.5t-9.5 8.5q-2 2 -4.5 6t-0.5 7l31 35q-5 10 -8 22.5t-1 28.5q4 49 21.5 93t40.5 80t47 62.5t41 41.5q35 30 62 34t55 -12q37 -23 59 -44q10 8 20 15.5t21 15.5q3 2 8.5 2t9.5 -1q12 -3 24 -10q2 -2 6.5 -5t7.5 -6.5t4 -7.5t-3 -7
q-17 -12 -33.5 -24.5t-33.5 -26.5q6 -26 1 -57t-18 -69q-3 -8 -7 -16.5t-9 -18.5q3 -8 7 -15t9 -9q16 -6 46 16t69 85q3 5 12.5 1t16.5 -16t8 -30t-14 -41q-14 -20 -36.5 -41.5t-48.5 -33t-53.5 -8.5t-51.5 32q-17 -24 -36.5 -45.5t-38.5 -33.5q-29 -20 -53.5 -24.5
t-43.5 -1.5t-32.5 10.5t-19.5 12.5l-9 5zM117 55q10 -8 28 3t38 31.5t39 44.5t31 43l13 21l-5 13q-29 -28 -56.5 -55.5t-54.5 -56.5l3 3q-21 -21 -40 -43q1 -1 1.5 -2t2.5 -2zM161 232q-9 -14 -17 -29.5t-14 -31.5l39 39l37.5 37.5t38.5 36.5q-3 28 1 49
q-19 -15 -40.5 -39.5t-44.5 -61.5z" />
    <glyph glyph-name="ugrave" unicode="&#xf9;" 
d="M276 439q-5 7 -13 19.5t-17.5 28t-19.5 32t-19 30.5q-5 7 4 12t22.5 5.5t28 -4t21.5 -15.5q17 -27 32.5 -56t31.5 -58q5 -10 -3 -14t-21 -2.5t-27 7t-20 15.5zM384 252l-17 -25.5t-23 -36.5t-23.5 -41.5t-18 -41t-7 -34.5t9.5 -22t32.5 9t49.5 43.5t54 60.5t46 61
q5 7 14.5 2t16 -17.5t6.5 -30.5t-14 -39q-35 -52 -69 -83.5t-64.5 -45.5t-56 -13t-43.5 14q-17 12 -27 26t-16 31q-22 -23 -45 -40t-46.5 -24.5t-47.5 -3t-46 25.5q-45 42 -30 110t73 153q20 30 35 51.5t26.5 36t20 24t15.5 16.5q11 10 25.5 5.5t26.5 -15.5t18 -25t0 -23
l-108 -148q-16 -23 -31 -47t-25.5 -45.5t-15.5 -37.5t-1 -22q3 -5 14.5 -1.5t31 18.5t47.5 44t66 76l153 222q10 7 25 2t28 -15t20.5 -21.5t2.5 -18.5q-2 -3 -9.5 -13t-19 -25.5t-25.5 -35t-28 -40.5z" />
    <glyph glyph-name="uacute" unicode="&#xfa;" 
d="M333 460q-11 -3 -25.5 2t-25 12.5t-14 15.5t6.5 12q31 11 62 22.5t63 20.5q12 3 25.5 -3t23.5 -15.5t13 -19t-5 -11.5q-15 -5 -33.5 -10t-36 -10.5t-32 -9.5t-22.5 -6zM384 252l-17 -25.5t-23 -36.5t-23.5 -41.5t-18 -41t-7 -34.5t9.5 -22t32.5 9t49.5 43.5t54 60.5
t46 61q5 7 14.5 2t16 -17.5t6.5 -30.5t-14 -39q-35 -52 -69 -83.5t-64.5 -45.5t-56 -13t-43.5 14q-17 12 -27 26t-16 31q-22 -23 -45 -40t-46.5 -24.5t-47.5 -3t-46 25.5q-45 42 -30 110t73 153q20 30 35 51.5t26.5 36t20 24t15.5 16.5q11 10 25.5 5.5t26.5 -15.5t18 -25
t0 -23l-108 -148q-16 -23 -31 -47t-25.5 -45.5t-15.5 -37.5t-1 -22q3 -5 14.5 -1.5t31 18.5t47.5 44t66 76l153 222q10 7 25 2t28 -15t20.5 -21.5t2.5 -18.5q-2 -3 -9.5 -13t-19 -25.5t-25.5 -35t-28 -40.5z" />
    <glyph glyph-name="ucircumflex" unicode="&#xfb;" 
d="M383 548q20 -16 36 -30t35 -30q6 -6 1 -11t-15 -8t-22 -3t-19 5t-22.5 15.5t-29.5 21.5q-8 -3 -18.5 -8t-21 -9.5t-19.5 -8.5t-14 -5q-9 -3 -19 -2t-17.5 4t-9.5 7.5t5 9.5q22 12 50.5 28t50.5 27q11 5 26 4.5t23 -7.5zM384 252l-17 -25.5t-23 -36.5t-23.5 -41.5t-18 -41
t-7 -34.5t9.5 -22t32.5 9t49.5 43.5t54 60.5t46 61q5 7 14.5 2t16 -17.5t6.5 -30.5t-14 -39q-35 -52 -69 -83.5t-64.5 -45.5t-56 -13t-43.5 14q-17 12 -27 26t-16 31q-22 -23 -45 -40t-46.5 -24.5t-47.5 -3t-46 25.5q-45 42 -30 110t73 153q20 30 35 51.5t26.5 36t20 24
t15.5 16.5q11 10 25.5 5.5t26.5 -15.5t18 -25t0 -23l-108 -148q-16 -23 -31 -47t-25.5 -45.5t-15.5 -37.5t-1 -22q3 -5 14.5 -1.5t31 18.5t47.5 44t66 76l153 222q10 7 25 2t28 -15t20.5 -21.5t2.5 -18.5q-2 -3 -9.5 -13t-19 -25.5t-25.5 -35t-28 -40.5z" />
    <glyph glyph-name="udieresis" unicode="&#xfc;" 
d="M342 572q15 -10 17 -30t-10 -39q-13 -19 -32 -25t-34 4q-16 10 -18 30t11 39q12 19 31 25t35 -4zM504 561q15 -10 17 -30t-10 -39q-13 -19 -32 -25.5t-34 3.5q-16 11 -18 30.5t11 39.5q12 19 31 25t35 -4zM384 252l-17 -25.5t-23 -36.5t-23.5 -41.5t-18 -41t-7 -34.5
t9.5 -22t32.5 9t49.5 43.5t54 60.5t46 61q5 7 14.5 2t16 -17.5t6.5 -30.5t-14 -39q-35 -52 -69 -83.5t-64.5 -45.5t-56 -13t-43.5 14q-17 12 -27 26t-16 31q-22 -23 -45 -40t-46.5 -24.5t-47.5 -3t-46 25.5q-45 42 -30 110t73 153q20 30 35 51.5t26.5 36t20 24t15.5 16.5
q11 10 25.5 5.5t26.5 -15.5t18 -25t0 -23l-108 -148q-16 -23 -31 -47t-25.5 -45.5t-15.5 -37.5t-1 -22q3 -5 14.5 -1.5t31 18.5t47.5 44t66 76l153 222q10 7 25 2t28 -15t20.5 -21.5t2.5 -18.5q-2 -3 -9.5 -13t-19 -25.5t-25.5 -35t-28 -40.5z" />
    <glyph glyph-name="yacute" unicode="&#xfd;" horiz-adv-x="442" 
d="M335 460q-11 -3 -25.5 2t-25 12.5t-14 15.5t6.5 12q31 11 62 22.5t63 20.5q12 3 25.5 -3t23.5 -15.5t13 -19t-5 -11.5q-15 -5 -33.5 -10t-36 -10.5t-32 -9.5t-22.5 -6zM495 226q5 7 14 2t15.5 -17.5t6.5 -30.5t-13 -39q-26 -38 -51 -64t-54 -46q-37 -25 -90.5 -46.5
t-107.5 -41.5q-21 -32 -44.5 -69.5t-46.5 -73t-43.5 -65.5t-35.5 -48q-15 -19 -28 -23.5t-22.5 -1.5t-17 11t-11.5 14q-14 18 -6.5 53t28.5 77q11 21 23 39.5t27.5 35t35.5 32.5t46 31q3 5 15 20t27 35q-27 -13 -54.5 -10.5t-53.5 27.5q-44 41 -29.5 109.5t72.5 153.5
q21 30 36 51t26.5 35.5t20 24t14.5 16.5q10 11 24.5 6.5t26.5 -15.5t18.5 -25.5t0.5 -22.5l-107 -148q-16 -23 -31 -47t-26 -45.5t-16 -37.5t-1 -22q4 -5 15 -1.5t30.5 18.5t47.5 43.5t65 75.5l154 222q4 8 18.5 5t29 -12t24 -21.5t3.5 -24.5q-7 -11 -20.5 -32.5t-30 -48.5
t-33.5 -55t-31 -51q-5 -9 -15.5 -25.5t-23.5 -37t-27.5 -44t-27.5 -45.5q14 7 29.5 14t20.5 10q9 4 21.5 11t25.5 16t25.5 19t22.5 20q25 26 48.5 55.5t40.5 54.5z" />
    <glyph glyph-name="thorn" unicode="&#xfe;" horiz-adv-x="379" 
d="M199 437q35 51 67 97.5t57 83t41.5 60.5t21.5 30q7 9 18.5 3t21 -19t13.5 -29.5t-3 -28.5q-6 -10 -19 -29.5t-31 -46t-40 -59t-47 -68.5q18 -2 32.5 -7.5t27.5 -13.5q18 -12 34.5 -27t20 -42t-10.5 -69.5t-57 -109.5q-13 -21 -41 -51.5t-63.5 -57.5t-73 -43t-70.5 -6
q-20 5 -32.5 16.5t-20.5 25.5q-25 -41 -54.5 -89t-60 -95t-60.5 -89t-55 -72q-15 -18 -27 -19t-20 7t-12.5 20.5t-4.5 20.5q-1 10 9.5 36t26 57t32.5 61.5t29 50.5q10 16 26.5 39.5t37.5 51.5zM328 382q-9 7 -29.5 -6.5t-44.5 -37.5t-48.5 -53.5t-42.5 -56.5
q-46 -66 -64 -111.5t-5 -54.5q16 -11 42.5 6.5t56 50.5t58.5 75t50 81t29.5 69t-2.5 38z" />
    <glyph glyph-name="ydieresis" unicode="&#xff;" horiz-adv-x="442" 
d="M342 572q15 -10 17 -30t-10 -39q-13 -19 -32 -25t-34 4q-16 10 -18 30t11 39q12 19 31 25t35 -4zM504 561q15 -10 17 -30t-10 -39q-13 -19 -32 -25.5t-34 3.5q-16 11 -18 30.5t11 39.5q12 19 31 25t35 -4zM495 226q5 7 14 2t15.5 -17.5t6.5 -30.5t-13 -39
q-26 -38 -51 -64t-54 -46q-37 -25 -90.5 -46.5t-107.5 -41.5q-21 -32 -44.5 -69.5t-46.5 -73t-43.5 -65.5t-35.5 -48q-15 -19 -28 -23.5t-22.5 -1.5t-17 11t-11.5 14q-14 18 -6.5 53t28.5 77q11 21 23 39.5t27.5 35t35.5 32.5t46 31q3 5 15 20t27 35q-27 -13 -54.5 -10.5
t-53.5 27.5q-44 41 -29.5 109.5t72.5 153.5q21 30 36 51t26.5 35.5t20 24t14.5 16.5q10 11 24.5 6.5t26.5 -15.5t18.5 -25.5t0.5 -22.5l-107 -148q-16 -23 -31 -47t-26 -45.5t-16 -37.5t-1 -22q4 -5 15 -1.5t30.5 18.5t47.5 43.5t65 75.5l154 222q4 8 18.5 5t29 -12
t24 -21.5t3.5 -24.5q-7 -11 -20.5 -32.5t-30 -48.5t-33.5 -55t-31 -51q-5 -9 -15.5 -25.5t-23.5 -37t-27.5 -44t-27.5 -45.5q14 7 29.5 14t20.5 10q9 4 21.5 11t25.5 16t25.5 19t22.5 20q25 26 48.5 55.5t40.5 54.5z" />
    <glyph glyph-name="Amacron" unicode="&#x100;" horiz-adv-x="905" 
d="M912 756q-14 -1 -29.5 7t-25.5 18t-12 18.5t10 9.5q22 1 51.5 1t60 -0.5t60 -2t51.5 -2.5q16 -2 30.5 -10t23 -17.5t8 -16.5t-13.5 -6zM980 259q7 10 16 4.5t14.5 -20t3.5 -35.5t-17 -43q-33 -47 -67 -77t-67.5 -46.5t-67.5 -20t-67 1.5q-11 -20 -21 -39.5t-21 -37.5
q-6 -10 -21 -5.5t-28.5 17.5t-21 32t2.5 38q3 6 6.5 12.5t6.5 12.5q-36 17 -69.5 37t-63.5 40q-28 -31 -57.5 -62t-61.5 -58.5t-67 -49t-73 -34.5q-34 -11 -68 -8t-63.5 16t-51.5 35t-31.5 50t-3 60.5t34.5 66.5q34 42 76 67.5t89 36.5t97 7.5t100 -19.5q21 -6 38 -15
q29 33 58.5 66t59.5 65q35 38 73 81.5t78 87t80.5 84t81.5 72.5q35 28 72 32.5t69 -36.5q11 -14 11.5 -33t-5.5 -40.5t-17 -44.5t-22.5 -44t-22 -39t-16.5 -29q-42 -80 -91.5 -172t-98.5 -182q41 0 72 16t55.5 40.5t45.5 54t41 57.5zM220 10q55 35 103 78.5t93 91.5
q-8 4 -15.5 7.5t-14.5 5.5q-32 9 -66.5 5.5t-67.5 -16.5t-62 -34.5t-50 -49.5q-21 -30 -28 -58t2 -44t35 -15t71 29zM923 588q-16 -13 -48.5 -46.5t-72.5 -76.5t-83.5 -90t-80.5 -88t-64 -71t-34 -38q29 -18 58.5 -35t64.5 -30z" />
    <glyph glyph-name="amacron" unicode="&#x101;" horiz-adv-x="430" 
d="M231 493q-14 -1 -29.5 7t-25.5 18t-12 18.5t10 9.5q22 1 51.5 1t60 -0.5t60 -2t51.5 -2.5q16 -2 30.5 -10t23 -17.5t8 -16.5t-13.5 -6zM483 226q4 7 13.5 2.5t16 -17t6.5 -31t-14 -39.5q-35 -53 -69 -84.5t-64.5 -45.5t-56 -13t-43.5 14q-17 12 -23.5 28t-7.5 35
q-21 -25 -44 -44t-46.5 -27.5t-48 -3t-49.5 30.5q-24 25 -32 51.5t-2 57t24 66.5t47 79q30 46 69 81t71 52q27 14 47.5 10.5t44.5 -22.5q7 -5 15.5 -10.5t16 -11.5t13 -13.5t5.5 -17.5q10 -4 20 -11t16.5 -14.5t9.5 -15t0 -12.5q-7 -9 -27.5 -36.5t-43.5 -63.5
q-13 -20 -26 -43t-21.5 -44t-9.5 -38t10 -24q10 -7 32.5 9t49.5 44t54 61t47 61zM73 58q3 -5 14.5 -1.5t31 18.5t47.5 44t66 76l18 26q10 16 21.5 36.5t20.5 39.5t13 34.5t-2 20.5t-22.5 -3t-38.5 -27t-46.5 -47.5t-48.5 -63.5q-16 -23 -31 -47.5t-26 -46t-16 -37.5t-1 -22z
" />
    <glyph glyph-name="Abreve" unicode="&#x102;" horiz-adv-x="905" 
d="M980 259q7 10 16 4.5t14.5 -20t3.5 -35.5t-17 -43q-33 -47 -67 -77t-67.5 -46.5t-67.5 -20t-67 1.5q-11 -20 -21 -39.5t-21 -37.5q-6 -10 -21 -5.5t-28.5 17.5t-21 32t2.5 38q3 6 6.5 12.5t6.5 12.5q-36 17 -69.5 37t-63.5 40q-28 -31 -57.5 -62t-61.5 -58.5t-67 -49
t-73 -34.5q-34 -11 -68 -8t-63.5 16t-51.5 35t-31.5 50t-3 60.5t34.5 66.5q34 42 76 67.5t89 36.5t97 7.5t100 -19.5q21 -6 38 -15q29 33 58.5 66t59.5 65q35 38 73 81.5t78 87t80.5 84t81.5 72.5q35 28 72 32.5t69 -36.5q11 -14 11.5 -33t-5.5 -40.5t-17 -44.5t-22.5 -44
t-22 -39t-16.5 -29q-42 -80 -91.5 -172t-98.5 -182q41 0 72 16t55.5 40.5t45.5 54t41 57.5zM220 10q55 35 103 78.5t93 91.5q-8 4 -15.5 7.5t-14.5 5.5q-32 9 -66.5 5.5t-67.5 -16.5t-62 -34.5t-50 -49.5q-21 -30 -28 -58t2 -44t35 -15t71 29zM923 588q-16 -13 -48.5 -46.5
t-72.5 -76.5t-83.5 -90t-80.5 -88t-64 -71t-34 -38q29 -18 58.5 -35t64.5 -30z" />
    <glyph glyph-name="abreve" unicode="&#x103;" horiz-adv-x="430" 
d="M396 567q-2 -10 -1.5 -27.5t12 -31t40 -15.5t83.5 20q9 4 10.5 -4t-3.5 -20t-15 -24.5t-23 -16.5q-53 -19 -85 -11t-47 29t-16 47.5t7 44.5q4 9 11 14.5t13.5 7t10.5 -1.5t3 -11zM483 226q4 7 13.5 2.5t16 -17t6.5 -31t-14 -39.5q-35 -53 -69 -84.5t-64.5 -45.5t-56 -13
t-43.5 14q-17 12 -23.5 28t-7.5 35q-21 -25 -44 -44t-46.5 -27.5t-48 -3t-49.5 30.5q-24 25 -32 51.5t-2 57t24 66.5t47 79q30 46 69 81t71 52q27 14 47.5 10.5t44.5 -22.5q7 -5 15.5 -10.5t16 -11.5t13 -13.5t5.5 -17.5q10 -4 20 -11t16.5 -14.5t9.5 -15t0 -12.5
q-7 -9 -27.5 -36.5t-43.5 -63.5q-13 -20 -26 -43t-21.5 -44t-9.5 -38t10 -24q10 -7 32.5 9t49.5 44t54 61t47 61zM73 58q3 -5 14.5 -1.5t31 18.5t47.5 44t66 76l18 26q10 16 21.5 36.5t20.5 39.5t13 34.5t-2 20.5t-22.5 -3t-38.5 -27t-46.5 -47.5t-48.5 -63.5
q-16 -23 -31 -47.5t-26 -46t-16 -37.5t-1 -22z" />
    <glyph glyph-name="Aogonek" unicode="&#x104;" horiz-adv-x="905" 
d="M980 259q7 10 16 4.5t14.5 -20t3.5 -35.5t-17 -43q-33 -47 -67 -77t-67.5 -46.5t-67.5 -20t-67 1.5q-10 -19 -19.5 -36.5t-19.5 -34.5q-17 -33 -24.5 -52t-1.5 -32q5 -11 19 -7.5t30 13.5t31 23.5t23 22.5q5 6 11 2.5t9 -13t1 -23t-12 -27.5q-3 -4 -6.5 -8t-10.5 -10
q-14 -11 -30 -18.5t-33.5 -8.5t-34 6.5t-29.5 26.5q-23 32 -19 61.5t23 50.5q-14 14 -20.5 32t3.5 37l13 25q-36 17 -69.5 37t-63.5 40q-28 -31 -57.5 -62t-61.5 -58.5t-67 -49t-73 -34.5q-34 -11 -68 -8t-63.5 16t-51.5 35t-31.5 50t-3 60.5t34.5 66.5q34 42 76 67.5
t89 36.5t97 7.5t100 -19.5q21 -6 38 -15q29 33 58.5 66t59.5 65q35 38 73 81.5t78 87t80.5 84t81.5 72.5q35 28 72 32.5t69 -36.5q11 -14 11.5 -33t-5.5 -40.5t-17 -44.5t-22.5 -44t-22 -39t-16.5 -29q-42 -80 -91.5 -172t-98.5 -182q41 0 72 16t55.5 40.5t45.5 54t41 57.5z
M923 588q-16 -13 -48.5 -46.5t-72.5 -76.5t-83.5 -90t-80.5 -88t-64 -71t-34 -38q29 -18 58.5 -35t64.5 -30zM220 10q55 35 103 78.5t93 91.5q-8 4 -15.5 7.5t-14.5 5.5q-32 9 -66.5 5.5t-67.5 -16.5t-62 -34.5t-50 -49.5q-21 -30 -28 -58t2 -44t35 -15t71 29z" />
    <glyph glyph-name="aogonek" unicode="&#x105;" horiz-adv-x="430" 
d="M483 226q4 7 13.5 2.5t16 -17t6.5 -31t-14 -39.5q-44 -66 -85.5 -98.5t-76.5 -41.5q-35 -26 -48 -54.5t-1 -40.5q9 -9 23 -5t29.5 13.5t29 22t21.5 21.5q5 6 11.5 3t9.5 -12.5t1 -23.5t-13 -28l-17 -18q-13 -11 -29.5 -19t-33.5 -8.5t-34 7t-30 26.5q-26 36 -18.5 69.5
t33.5 53.5l-5 4q-17 12 -23.5 28t-7.5 35q-21 -25 -44 -44t-46.5 -27.5t-48 -3t-49.5 30.5q-24 25 -32 51.5t-2 57t24 66.5t47 79q30 46 69 81t71 52q27 14 47.5 10.5t44.5 -22.5q7 -5 15.5 -10.5t16 -11.5t13 -13.5t5.5 -17.5q10 -4 20 -11t16.5 -14.5t9.5 -15t0 -12.5
q-7 -9 -27.5 -36.5t-43.5 -63.5q-13 -20 -26 -43t-21.5 -44t-9.5 -38t10 -24q10 -7 32.5 9t49.5 44t54 61t47 61zM73 58q3 -5 14.5 -1.5t31 18.5t47.5 44t66 76l18 26q10 16 21.5 36.5t20.5 39.5t13 34.5t-2 20.5t-22.5 -3t-38.5 -27t-46.5 -47.5t-48.5 -63.5
q-16 -23 -31 -47.5t-26 -46t-16 -37.5t-1 -22z" />
    <glyph glyph-name="Cacute" unicode="&#x106;" horiz-adv-x="683" 
d="M722 767q-11 -3 -25.5 2t-25 12.5t-14 15.5t6.5 12q31 11 62 22.5t63 20.5q12 3 25.5 -3t23.5 -15.5t13 -19t-5 -11.5q-15 -5 -33.5 -10t-36 -10.5t-32 -9.5t-22.5 -6zM764 268q8 13 16.5 8.5t12 -21t0 -40.5t-19.5 -50q-32 -53 -77 -101.5t-98 -85t-111 -57.5
t-115 -17.5t-111 35t-99 98.5q-17 26 -23 59.5t-3 71t14 77t26 77.5q-28 28 -41 64t-13 74.5t10.5 76t30.5 67.5q25 39 56.5 58.5t57 25.5t38.5 0.5t1 -15.5q-29 -24 -58.5 -61t-49 -77.5t-23.5 -81t18 -72.5q12 23 24.5 43.5t25.5 37.5q32 45 78.5 91t100 83.5t111 60
t112.5 20.5q31 -1 61.5 -11.5t52.5 -30t30.5 -48.5t-4.5 -66q-17 -49 -47 -94.5t-70 -83t-87.5 -65t-98.5 -39.5q-72 -17 -127 -18t-97 10q-37 -80 -43 -149t25 -108q16 -21 49.5 -29.5t78.5 -1.5t99 30t113 66q45 32 89 79t85 110zM501 561q-66 -51 -117.5 -112t-87.5 -124
q31 -6 65 -3t68 13t66.5 25.5t59.5 35.5q26 18 54 43.5t52 55t40.5 61.5t19.5 64q2 24 -9 32.5t-30.5 5.5t-44 -13.5t-50 -25.5t-48.5 -30.5t-38 -27.5z" />
    <glyph glyph-name="cacute" unicode="&#x107;" horiz-adv-x="357" 
d="M321 460q-11 -3 -25.5 2t-25 12.5t-14 15.5t6.5 12q31 11 62 22.5t63 20.5q12 3 25.5 -3t23.5 -15.5t13 -19t-5 -11.5q-15 -5 -33.5 -10t-36 -10.5t-32 -9.5t-22.5 -6zM290 203q-5 -6 -15 1t-17.5 21t-9.5 32t8 36q23 40 29 55.5t3 18.5q-6 6 -38.5 -21t-79.5 -90
q-24 -34 -39.5 -65.5t-22 -57.5t-3.5 -45t15 -28q19 -13 53.5 -8.5t76 27t86 63t83.5 99.5q4 6 13.5 1.5t16.5 -16t7.5 -30t-13.5 -40.5q-24 -39 -66 -75t-92 -57.5t-103 -23.5t-99 28q-24 15 -41.5 37.5t-17.5 66.5q0 27 10 59.5t27 65.5t39.5 65.5t47 58.5t49.5 44.5
t48 24.5q11 4 25 1.5t22 -10.5q26 -25 41.5 -42.5t22 -34t4.5 -33.5t-11 -40q-11 -24 -23.5 -44.5t-35.5 -43.5z" />
    <glyph glyph-name="Ccircumflex" unicode="&#x108;" horiz-adv-x="683" 
d="M842 826q11 -22 21 -41.5t21 -41.5q4 -8 -3 -10.5t-17.5 -1.5t-21.5 5.5t-15 12.5q-5 7 -15 22.5t-19 31.5h-20.5h-23h-21h-14.5q-9 1 -18 5.5t-14.5 10.5t-6 11t7.5 6q25 3 57.5 6.5t57.5 5.5q12 1 25.5 -5.5t18.5 -16.5zM764 268q8 13 16.5 8.5t12 -21t0 -40.5
t-19.5 -50q-32 -53 -77 -101.5t-98 -85t-111 -57.5t-115 -17.5t-111 35t-99 98.5q-17 26 -23 59.5t-3 71t14 77t26 77.5q-28 28 -41 64t-13 74.5t10.5 76t30.5 67.5q25 39 56.5 58.5t57 25.5t38.5 0.5t1 -15.5q-29 -24 -58.5 -61t-49 -77.5t-23.5 -81t18 -72.5
q12 23 24.5 43.5t25.5 37.5q32 45 78.5 91t100 83.5t111 60t112.5 20.5q31 -1 61.5 -11.5t52.5 -30t30.5 -48.5t-4.5 -66q-17 -49 -47 -94.5t-70 -83t-87.5 -65t-98.5 -39.5q-72 -17 -127 -18t-97 10q-37 -80 -43 -149t25 -108q16 -21 49.5 -29.5t78.5 -1.5t99 30t113 66
q45 32 89 79t85 110zM501 561q-66 -51 -117.5 -112t-87.5 -124q31 -6 65 -3t68 13t66.5 25.5t59.5 35.5q26 18 54 43.5t52 55t40.5 61.5t19.5 64q2 24 -9 32.5t-30.5 5.5t-44 -13.5t-50 -25.5t-48.5 -30.5t-38 -27.5z" />
    <glyph glyph-name="ccircumflex" unicode="&#x109;" horiz-adv-x="357" 
d="M402 514q11 -22 21 -41.5t21 -41.5q4 -8 -3 -10.5t-17.5 -1.5t-21.5 5.5t-15 12.5q-5 7 -15 22.5t-19 31.5h-20.5h-23h-21h-14.5q-9 1 -18 5.5t-14.5 10.5t-6 11t7.5 6q25 3 57.5 6.5t57.5 5.5q12 1 25.5 -5.5t18.5 -16.5zM290 203q-5 -6 -15 1t-17.5 21t-9.5 32t8 36
q23 40 29 55.5t3 18.5q-6 6 -38.5 -21t-79.5 -90q-24 -34 -39.5 -65.5t-22 -57.5t-3.5 -45t15 -28q19 -13 53.5 -8.5t76 27t86 63t83.5 99.5q4 6 13.5 1.5t16.5 -16t7.5 -30t-13.5 -40.5q-24 -39 -66 -75t-92 -57.5t-103 -23.5t-99 28q-24 15 -41.5 37.5t-17.5 66.5
q0 27 10 59.5t27 65.5t39.5 65.5t47 58.5t49.5 44.5t48 24.5q11 4 25 1.5t22 -10.5q26 -25 41.5 -42.5t22 -34t4.5 -33.5t-11 -40q-11 -24 -23.5 -44.5t-35.5 -43.5z" />
    <glyph glyph-name="Cdotaccent" unicode="&#x10a;" horiz-adv-x="683" 
d="M824 862q20 -13 23 -40t-14 -52q-8 -13 -19 -21.5t-23 -12.5t-24 -3t-22 8q-20 13 -23 40t14 52q16 26 42 34t46 -5zM764 268q8 13 16.5 8.5t12 -21t0 -40.5t-19.5 -50q-32 -53 -77 -101.5t-98 -85t-111 -57.5t-115 -17.5t-111 35t-99 98.5q-17 26 -23 59.5t-3 71t14 77
t26 77.5q-28 28 -41 64t-13 74.5t10.5 76t30.5 67.5q25 39 56.5 58.5t57 25.5t38.5 0.5t1 -15.5q-29 -24 -58.5 -61t-49 -77.5t-23.5 -81t18 -72.5q12 23 24.5 43.5t25.5 37.5q32 45 78.5 91t100 83.5t111 60t112.5 20.5q31 -1 61.5 -11.5t52.5 -30t30.5 -48.5t-4.5 -66
q-17 -49 -47 -94.5t-70 -83t-87.5 -65t-98.5 -39.5q-72 -17 -127 -18t-97 10q-37 -80 -43 -149t25 -108q16 -21 49.5 -29.5t78.5 -1.5t99 30t113 66q45 32 89 79t85 110zM501 561q-66 -51 -117.5 -112t-87.5 -124q31 -6 65 -3t68 13t66.5 25.5t59.5 35.5q26 18 54 43.5
t52 55t40.5 61.5t19.5 64q2 24 -9 32.5t-30.5 5.5t-44 -13.5t-50 -25.5t-48.5 -30.5t-38 -27.5z" />
    <glyph glyph-name="cdotaccent" unicode="&#x10b;" horiz-adv-x="357" 
d="M436 586q20 -13 23 -40t-14 -52q-8 -13 -19 -21.5t-23 -12.5t-24 -3t-22 8q-20 13 -23 40t14 52q16 26 42 34t46 -5zM290 203q-5 -6 -15 1t-17.5 21t-9.5 32t8 36q23 40 29 55.5t3 18.5q-6 6 -38.5 -21t-79.5 -90q-24 -34 -39.5 -65.5t-22 -57.5t-3.5 -45t15 -28
q19 -13 53.5 -8.5t76 27t86 63t83.5 99.5q4 6 13.5 1.5t16.5 -16t7.5 -30t-13.5 -40.5q-24 -39 -66 -75t-92 -57.5t-103 -23.5t-99 28q-24 15 -41.5 37.5t-17.5 66.5q0 27 10 59.5t27 65.5t39.5 65.5t47 58.5t49.5 44.5t48 24.5q11 4 25 1.5t22 -10.5q26 -25 41.5 -42.5
t22 -34t4.5 -33.5t-11 -40q-11 -24 -23.5 -44.5t-35.5 -43.5z" />
    <glyph glyph-name="Ccaron" unicode="&#x10c;" horiz-adv-x="683" 
d="M738 777q-12 23 -22.5 42.5t-21.5 42.5q-4 8 3 11t18 2t22 -6t16 -13q4 -7 14.5 -23t19.5 -32q19 0 39.5 0.5t30.5 -0.5q9 -1 18 -6t15 -11t6.5 -11t-7.5 -6q-26 -3 -53.5 -6.5t-53.5 -5.5q-12 -2 -25.5 4.5t-18.5 17.5zM764 268q8 13 16.5 8.5t12 -21t0 -40.5t-19.5 -50
q-32 -53 -77 -101.5t-98 -85t-111 -57.5t-115 -17.5t-111 35t-99 98.5q-17 26 -23 59.5t-3 71t14 77t26 77.5q-28 28 -41 64t-13 74.5t10.5 76t30.5 67.5q25 39 56.5 58.5t57 25.5t38.5 0.5t1 -15.5q-29 -24 -58.5 -61t-49 -77.5t-23.5 -81t18 -72.5q12 23 24.5 43.5
t25.5 37.5q32 45 78.5 91t100 83.5t111 60t112.5 20.5q31 -1 61.5 -11.5t52.5 -30t30.5 -48.5t-4.5 -66q-17 -49 -47 -94.5t-70 -83t-87.5 -65t-98.5 -39.5q-72 -17 -127 -18t-97 10q-37 -80 -43 -149t25 -108q16 -21 49.5 -29.5t78.5 -1.5t99 30t113 66q45 32 89 79t85 110
zM501 561q-66 -51 -117.5 -112t-87.5 -124q31 -6 65 -3t68 13t66.5 25.5t59.5 35.5q26 18 54 43.5t52 55t40.5 61.5t19.5 64q2 24 -9 32.5t-30.5 5.5t-44 -13.5t-50 -25.5t-48.5 -30.5t-38 -27.5z" />
    <glyph glyph-name="ccaron" unicode="&#x10d;" horiz-adv-x="357" 
d="M338 497q-12 23 -22.5 42.5t-21.5 42.5q-4 8 3 11t18 2t22 -6t16 -13q4 -7 14.5 -23t19.5 -32q19 0 39.5 0.5t30.5 -0.5q9 -1 18 -6t15 -11t6.5 -11t-7.5 -6q-26 -3 -53.5 -6.5t-53.5 -5.5q-12 -2 -25.5 4.5t-18.5 17.5zM290 203q-5 -6 -15 1t-17.5 21t-9.5 32t8 36
q23 40 29 55.5t3 18.5q-6 6 -38.5 -21t-79.5 -90q-24 -34 -39.5 -65.5t-22 -57.5t-3.5 -45t15 -28q19 -13 53.5 -8.5t76 27t86 63t83.5 99.5q4 6 13.5 1.5t16.5 -16t7.5 -30t-13.5 -40.5q-24 -39 -66 -75t-92 -57.5t-103 -23.5t-99 28q-24 15 -41.5 37.5t-17.5 66.5
q0 27 10 59.5t27 65.5t39.5 65.5t47 58.5t49.5 44.5t48 24.5q11 4 25 1.5t22 -10.5q26 -25 41.5 -42.5t22 -34t4.5 -33.5t-11 -40q-11 -24 -23.5 -44.5t-35.5 -43.5z" />
    <glyph glyph-name="Dcaron" unicode="&#x10e;" horiz-adv-x="643" 
d="M571 777q-12 23 -22.5 42.5t-21.5 42.5q-4 8 3 11t18 2t22 -6t16 -13q4 -7 14.5 -23t19.5 -32q19 0 39.5 0.5t30.5 -0.5q9 -1 18 -6t15 -11t6.5 -11t-7.5 -6q-26 -3 -53.5 -6.5t-53.5 -5.5q-12 -2 -25.5 4.5t-18.5 17.5zM361 727q66 0 123 -20t100.5 -55t72 -82
t38.5 -102t0.5 -114.5t-42.5 -119.5q-39 -71 -96.5 -126t-126.5 -89.5t-145.5 -45t-153.5 7.5q-25 6 -48 20.5t-38.5 33.5t-20.5 39.5t6 37.5q26 39 51 79.5t50 81.5q-82 54 -106.5 121t7.5 136q24 51 61.5 88t82 61t92.5 36t93 12zM590 366q10 46 8 98.5t-21.5 96.5
t-59 73.5t-104.5 29.5q-46 1 -92 -12.5t-84 -36.5q-21 -13 -45 -34.5t-44.5 -49t-35 -57.5t-16.5 -60t10.5 -57t46.5 -48q40 66 79.5 133t79.5 134q8 13 22 8t25 -19.5t16.5 -33.5t-2.5 -34l-266 -453q53 -11 107.5 -4.5t105.5 27.5t96.5 53.5t79.5 73.5q31 38 57 81t37 91z
" />
    <glyph glyph-name="dcaron" unicode="&#x10f;" horiz-adv-x="672" 
d="M402 281q-3 -5 -7 -9q-3 -5 -7.5 -10t-8.5 -11q-9 -13 -26.5 -39.5t-32.5 -55.5t-22 -55.5t5 -40.5q13 -15 39.5 -1t56.5 42.5t59 64t49 63.5q4 7 13.5 2t16 -17.5t6.5 -30.5t-14 -39q-35 -53 -71 -86t-69.5 -47.5t-62.5 -11t-50 24.5q-25 27 -30 58q-22 -26 -45 -46.5
t-47.5 -30t-50 -4.5t-50.5 31q-24 24 -32 50.5t-2 57t24 66.5t47 79q30 46 68.5 80.5t71.5 51.5q26 14 46.5 11t44.5 -22q8 -6 17 -11.5t17 -12.5q11 17 30.5 46t43.5 64.5t50 73.5t50.5 72t44.5 61t32 40q8 9 25 4t34 -29q15 -20 13.5 -42.5t-11.5 -41.5q-5 -11 -29 -46.5
t-60.5 -84.5t-82 -106.5t-93.5 -111.5zM234 199q30 39 45.5 67t21.5 46t5 27.5t-4 12.5q-6 5 -22.5 -3.5t-38 -27.5t-46.5 -47.5t-49 -62.5q-15 -23 -30 -47.5t-26 -46t-16 -37.5t-1 -21q3 -5 15 -1.5t32 18.5t48.5 44.5t65.5 78.5zM758 559q-7 -9 -19 -14.5t-23 -6t-17 4
t0 13.5q17 28 33.5 56.5t35.5 54.5q7 10 20 14t24.5 2.5t18 -6.5t1.5 -12q-9 -13 -20 -29t-21.5 -31t-19 -27.5t-13.5 -18.5z" />
    <glyph glyph-name="Dcroat" unicode="&#x110;" horiz-adv-x="643" 
d="M361 727q66 0 123 -20t100.5 -55t72 -82t38.5 -102t0.5 -114.5t-42.5 -119.5q-39 -71 -96.5 -126t-126.5 -89.5t-145.5 -45t-153.5 7.5q-25 6 -48 20.5t-38.5 33.5t-20.5 39.5t6 37.5l34 53q-15 3 -29.5 14.5t-24 24t-11 23t9.5 11.5q18 2 45.5 3.5t59.5 3.5l17 28
q-82 54 -106.5 121t7.5 136q24 51 61.5 88t82 61t92.5 36t93 12zM590 366q10 46 8 98.5t-21.5 96.5t-59 73.5t-104.5 29.5q-46 1 -92 -12.5t-84 -36.5q-21 -13 -45 -34.5t-44.5 -49t-35 -57.5t-16.5 -60t10.5 -57t46.5 -48q40 66 79.5 133t79.5 134q8 13 22 8t25 -19.5
t16.5 -33.5t-2.5 -34l-145 -247q14 1 26 1h22q16 0 34 -11.5t30 -25.5t15 -25.5t-10 -10.5l-165 -9l-73 -125q53 -11 107.5 -4.5t105.5 27.5t96.5 53.5t79.5 73.5q31 38 57 81t37 91z" />
    <glyph glyph-name="dcroat" unicode="&#x111;" horiz-adv-x="450" 
d="M402 281q-3 -5 -7 -9q-3 -5 -7.5 -10t-8.5 -11q-9 -13 -26.5 -39.5t-32.5 -55.5t-22 -55.5t5 -40.5q13 -15 39.5 -1t56.5 42.5t59 64t49 63.5q4 7 13.5 2t16 -17.5t6.5 -30.5t-14 -39q-35 -53 -71 -86t-69.5 -47.5t-62.5 -11t-50 24.5q-25 27 -30 58q-22 -26 -45 -46.5
t-47.5 -30t-50 -4.5t-50.5 31q-24 24 -32 50.5t-2 57t24 66.5t47 79q30 46 68.5 80.5t71.5 51.5q26 14 46.5 11t44.5 -22q8 -6 17 -11.5t17 -12.5l54 81q-15 3 -30 13t-24.5 21t-10.5 20t11 11q26 3 52.5 6t52.5 5q21 31 43 62t41.5 58t35.5 48t26 32q8 9 25 4t34 -29
q15 -20 13.5 -42.5t-11.5 -41.5q-5 -9 -22 -35t-43 -63q12 -7 22 -16.5t15 -17.5t3.5 -13.5t-12.5 -5.5l-72 -6q-35 -45 -74.5 -94.5t-81.5 -97.5zM234 199q30 39 45.5 67t21.5 46t5 27.5t-4 12.5q-6 5 -22.5 -3.5t-38 -27.5t-46.5 -47.5t-49 -62.5q-15 -23 -30 -47.5
t-26 -46t-16 -37.5t-1 -21q3 -5 15 -1.5t32 18.5t48.5 44.5t65.5 78.5z" />
    <glyph glyph-name="Emacron" unicode="&#x112;" horiz-adv-x="561" 
d="M497 828q-14 -1 -29.5 7t-25.5 18t-12 18.5t10 9.5q22 1 51.5 1t60 -0.5t60 -2t51.5 -2.5q16 -2 30.5 -10t23 -17.5t8 -16.5t-13.5 -6zM366 302q9 -1 11 -16t-2.5 -33t-13 -33.5t-20.5 -17.5q-85 -18 -133 -44t-69 -52.5t-20.5 -50.5t12.5 -39q16 -21 49.5 -29.5t78 -2
t98.5 29.5t113 66q45 33 89 79.5t84 109.5q8 13 17 9t13.5 -19.5t1.5 -39t-19 -49.5q-24 -39 -63.5 -84t-89 -84.5t-106.5 -66t-117 -28.5t-120.5 28t-115.5 104q-26 34 -18.5 68t36 63t71.5 52t88 35q-55 41 -70 91t-1 103q-41 37 -56.5 84t10.5 94q16 30 36.5 41.5
t37.5 12t26.5 -7t2.5 -15.5q-33 -40 -37.5 -75.5t10.5 -64.5q22 36 55 69t72.5 58t83 40t88 17.5t87 -10.5t79.5 -44q32 -27 35.5 -61t-14 -68t-52 -65.5t-79 -54.5t-94.5 -33.5t-99 -3.5q-30 5 -58.5 13.5t-54.5 20.5q-1 -16 5.5 -31.5t22.5 -28t42.5 -22.5t66.5 -14z
M403 594q-46 -26 -87 -62t-64 -74q11 -5 23 -8.5t24 -5.5q45 -7 86.5 0t76.5 22t62.5 36.5t45.5 44t25 44t0 37.5q-4 9 -20.5 13t-42 0.5t-58.5 -15t-71 -32.5z" />
    <glyph glyph-name="emacron" unicode="&#x113;" horiz-adv-x="355" 
d="M232 487q-14 -1 -29.5 7t-25.5 18t-12 18.5t10 9.5q22 1 51.5 1t60 -0.5t60 -2t51.5 -2.5q16 -2 30.5 -10t23 -17.5t8 -16.5t-13.5 -6zM240 450q12 3 29 2.5t33 -12.5q29 -21 44.5 -37t21 -32.5t2 -35t-12.5 -42.5q-26 -66 -71.5 -109.5t-99.5 -54.5q-20 -4 -39.5 9
t-32.5 25q-11 -33 -10 -62.5t15 -39.5q19 -13 53.5 -8.5t76 27t86 62.5t84.5 99q4 6 13.5 2t16.5 -16t7 -30.5t-15 -41.5q-24 -38 -66 -74t-91.5 -58t-101.5 -23.5t-98 28.5q-15 9 -26 19t-19 22.5t-12 28.5t-4 38q0 26 10 58t26.5 65t38 64.5t45.5 57.5t49 44.5t48 24.5z
M170 257q-20 -27 -30 -47.5t-3 -24.5q6 -3 16 1.5t22.5 15t27 24.5t28.5 31q37 44 52.5 79t9.5 40q-7 5 -42.5 -25t-80.5 -94z" />
    <glyph glyph-name="Ebreve" unicode="&#x114;" horiz-adv-x="561" 
d="M538 865q-2 -10 -1.5 -27.5t12 -31t40 -15.5t83.5 20q9 4 10.5 -4t-3.5 -20t-15 -24.5t-23 -16.5q-53 -19 -85 -11t-47 29t-16 47.5t7 44.5q4 9 11 14.5t13.5 7t10.5 -1.5t3 -11zM366 302q9 -1 11 -16t-2.5 -33t-13 -33.5t-20.5 -17.5q-85 -18 -133 -44t-69 -52.5
t-20.5 -50.5t12.5 -39q16 -21 49.5 -29.5t78 -2t98.5 29.5t113 66q45 33 89 79.5t84 109.5q8 13 17 9t13.5 -19.5t1.5 -39t-19 -49.5q-24 -39 -63.5 -84t-89 -84.5t-106.5 -66t-117 -28.5t-120.5 28t-115.5 104q-26 34 -18.5 68t36 63t71.5 52t88 35q-55 41 -70 91t-1 103
q-41 37 -56.5 84t10.5 94q16 30 36.5 41.5t37.5 12t26.5 -7t2.5 -15.5q-33 -40 -37.5 -75.5t10.5 -64.5q22 36 55 69t72.5 58t83 40t88 17.5t87 -10.5t79.5 -44q32 -27 35.5 -61t-14 -68t-52 -65.5t-79 -54.5t-94.5 -33.5t-99 -3.5q-30 5 -58.5 13.5t-54.5 20.5
q-1 -16 5.5 -31.5t22.5 -28t42.5 -22.5t66.5 -14zM403 594q-46 -26 -87 -62t-64 -74q11 -5 23 -8.5t24 -5.5q45 -7 86.5 0t76.5 22t62.5 36.5t45.5 44t25 44t0 37.5q-4 9 -20.5 13t-42 0.5t-58.5 -15t-71 -32.5z" />
    <glyph glyph-name="ebreve" unicode="&#x115;" horiz-adv-x="355" 
d="M366 579q-2 -10 -1.5 -27.5t12 -31t40 -15.5t83.5 20q9 4 10.5 -4t-3.5 -20t-15 -24.5t-23 -16.5q-53 -19 -85 -11t-47 29t-16 47.5t7 44.5q4 9 11 14.5t13.5 7t10.5 -1.5t3 -11zM240 450q12 3 29 2.5t33 -12.5q29 -21 44.5 -37t21 -32.5t2 -35t-12.5 -42.5
q-26 -66 -71.5 -109.5t-99.5 -54.5q-20 -4 -39.5 9t-32.5 25q-11 -33 -10 -62.5t15 -39.5q19 -13 53.5 -8.5t76 27t86 62.5t84.5 99q4 6 13.5 2t16.5 -16t7 -30.5t-15 -41.5q-24 -38 -66 -74t-91.5 -58t-101.5 -23.5t-98 28.5q-15 9 -26 19t-19 22.5t-12 28.5t-4 38
q0 26 10 58t26.5 65t38 64.5t45.5 57.5t49 44.5t48 24.5zM170 257q-20 -27 -30 -47.5t-3 -24.5q6 -3 16 1.5t22.5 15t27 24.5t28.5 31q37 44 52.5 79t9.5 40q-7 5 -42.5 -25t-80.5 -94z" />
    <glyph glyph-name="Edotaccent" unicode="&#x116;" horiz-adv-x="561" 
d="M677 862q20 -13 23 -40t-14 -52q-8 -13 -19 -21.5t-23 -12.5t-24 -3t-22 8q-20 13 -23 40t14 52q16 26 42 34t46 -5zM366 302q9 -1 11 -16t-2.5 -33t-13 -33.5t-20.5 -17.5q-85 -18 -133 -44t-69 -52.5t-20.5 -50.5t12.5 -39q16 -21 49.5 -29.5t78 -2t98.5 29.5t113 66
q45 33 89 79.5t84 109.5q8 13 17 9t13.5 -19.5t1.5 -39t-19 -49.5q-24 -39 -63.5 -84t-89 -84.5t-106.5 -66t-117 -28.5t-120.5 28t-115.5 104q-26 34 -18.5 68t36 63t71.5 52t88 35q-55 41 -70 91t-1 103q-41 37 -56.5 84t10.5 94q16 30 36.5 41.5t37.5 12t26.5 -7
t2.5 -15.5q-33 -40 -37.5 -75.5t10.5 -64.5q22 36 55 69t72.5 58t83 40t88 17.5t87 -10.5t79.5 -44q32 -27 35.5 -61t-14 -68t-52 -65.5t-79 -54.5t-94.5 -33.5t-99 -3.5q-30 5 -58.5 13.5t-54.5 20.5q-1 -16 5.5 -31.5t22.5 -28t42.5 -22.5t66.5 -14zM403 594
q-46 -26 -87 -62t-64 -74q11 -5 23 -8.5t24 -5.5q45 -7 86.5 0t76.5 22t62.5 36.5t45.5 44t25 44t0 37.5q-4 9 -20.5 13t-42 0.5t-58.5 -15t-71 -32.5z" />
    <glyph glyph-name="edotaccent" unicode="&#x117;" horiz-adv-x="355" 
d="M436 586q20 -13 23 -40t-14 -52q-8 -13 -19 -21.5t-23 -12.5t-24 -3t-22 8q-20 13 -23 40t14 52q16 26 42 34t46 -5zM240 450q12 3 29 2.5t33 -12.5q29 -21 44.5 -37t21 -32.5t2 -35t-12.5 -42.5q-26 -66 -71.5 -109.5t-99.5 -54.5q-20 -4 -39.5 9t-32.5 25
q-11 -33 -10 -62.5t15 -39.5q19 -13 53.5 -8.5t76 27t86 62.5t84.5 99q4 6 13.5 2t16.5 -16t7 -30.5t-15 -41.5q-24 -38 -66 -74t-91.5 -58t-101.5 -23.5t-98 28.5q-15 9 -26 19t-19 22.5t-12 28.5t-4 38q0 26 10 58t26.5 65t38 64.5t45.5 57.5t49 44.5t48 24.5zM170 257
q-20 -27 -30 -47.5t-3 -24.5q6 -3 16 1.5t22.5 15t27 24.5t28.5 31q37 44 52.5 79t9.5 40q-7 5 -42.5 -25t-80.5 -94z" />
    <glyph glyph-name="Eogonek" unicode="&#x118;" horiz-adv-x="561" 
d="M366 302q9 -1 11 -16t-2.5 -33t-13 -33.5t-20.5 -17.5q-85 -18 -133 -44t-69 -52.5t-20.5 -50.5t12.5 -39q16 -21 49.5 -29.5t78 -2t98.5 29.5t113 66q45 33 89 79.5t84 109.5q8 13 17 9t13.5 -19.5t1.5 -39t-19 -49.5q-19 -30 -47.5 -65t-64 -68t-77 -61.5t-86.5 -46.5
q-29 -20 -46 -39t-10 -33q5 -11 19 -7.5t30 13.5t31 23.5t23 22.5q5 6 11 2.5t9 -13t1 -23t-12 -27.5q-3 -4 -6.5 -8t-10.5 -10q-14 -11 -30 -18.5t-33.5 -8.5t-34 6.5t-29.5 26.5q-14 20 -16 37.5t5 33.5q-61 -2 -121.5 27.5t-116.5 104.5q-26 34 -18.5 68t36 63t71.5 52
t88 35q-55 41 -70 91t-1 103q-41 37 -56.5 84t10.5 94q16 30 36.5 41.5t37.5 12t26.5 -7t2.5 -15.5q-33 -40 -37.5 -75.5t10.5 -64.5q22 36 55 69t72.5 58t83 40t88 17.5t87 -10.5t79.5 -44q32 -27 35.5 -61t-14 -68t-52 -65.5t-79 -54.5t-94.5 -33.5t-99 -3.5
q-30 5 -58.5 13.5t-54.5 20.5q-1 -16 5.5 -31.5t22.5 -28t42.5 -22.5t66.5 -14zM403 594q-46 -26 -87 -62t-64 -74q11 -5 23 -8.5t24 -5.5q45 -7 86.5 0t76.5 22t62.5 36.5t45.5 44t25 44t0 37.5q-4 9 -20.5 13t-42 0.5t-58.5 -15t-71 -32.5z" />
    <glyph glyph-name="eogonek" unicode="&#x119;" horiz-adv-x="355" 
d="M240 450q12 3 29 2.5t33 -12.5q29 -21 44.5 -37t21 -32.5t2 -35t-12.5 -42.5q-26 -66 -71.5 -109.5t-99.5 -54.5q-20 -4 -39.5 9t-32.5 25q-11 -33 -10 -62.5t15 -39.5q19 -13 53.5 -8.5t76 27t86 62.5t84.5 99q4 6 13.5 2t16.5 -16t7 -30.5t-15 -41.5q-16 -26 -40 -50.5
t-53.5 -45.5t-62 -36t-66.5 -21q-18 -13 -30.5 -27.5t-19 -27.5t-7 -24t5.5 -17q9 -9 23 -5t29.5 13.5t29 22t21.5 21.5q5 6 11 2.5t9 -13t1 -23t-12 -27.5q-3 -4 -6.5 -8t-10.5 -10q-14 -11 -30 -18.5t-33.5 -8.5t-34 6.5t-29.5 26.5q-25 34 -19.5 65.5t28.5 52.5
q-34 6 -61 25q-15 9 -26 19t-19 22.5t-12 28.5t-4 38q0 26 10 58t26.5 65t38 64.5t45.5 57.5t49 44.5t48 24.5zM170 257q-20 -27 -30 -47.5t-3 -24.5q6 -3 16 1.5t22.5 15t27 24.5t28.5 31q37 44 52.5 79t9.5 40q-7 5 -42.5 -25t-80.5 -94z" />
    <glyph glyph-name="Ecaron" unicode="&#x11a;" horiz-adv-x="561" 
d="M571 777q-12 23 -22.5 42.5t-21.5 42.5q-4 8 3 11t18 2t22 -6t16 -13q4 -7 14.5 -23t19.5 -32q19 0 39.5 0.5t30.5 -0.5q9 -1 18 -6t15 -11t6.5 -11t-7.5 -6q-26 -3 -53.5 -6.5t-53.5 -5.5q-12 -2 -25.5 4.5t-18.5 17.5zM366 302q9 -1 11 -16t-2.5 -33t-13 -33.5
t-20.5 -17.5q-85 -18 -133 -44t-69 -52.5t-20.5 -50.5t12.5 -39q16 -21 49.5 -29.5t78 -2t98.5 29.5t113 66q45 33 89 79.5t84 109.5q8 13 17 9t13.5 -19.5t1.5 -39t-19 -49.5q-24 -39 -63.5 -84t-89 -84.5t-106.5 -66t-117 -28.5t-120.5 28t-115.5 104q-26 34 -18.5 68
t36 63t71.5 52t88 35q-55 41 -70 91t-1 103q-41 37 -56.5 84t10.5 94q16 30 36.5 41.5t37.5 12t26.5 -7t2.5 -15.5q-33 -40 -37.5 -75.5t10.5 -64.5q22 36 55 69t72.5 58t83 40t88 17.5t87 -10.5t79.5 -44q32 -27 35.5 -61t-14 -68t-52 -65.5t-79 -54.5t-94.5 -33.5
t-99 -3.5q-30 5 -58.5 13.5t-54.5 20.5q-1 -16 5.5 -31.5t22.5 -28t42.5 -22.5t66.5 -14zM403 594q-46 -26 -87 -62t-64 -74q11 -5 23 -8.5t24 -5.5q45 -7 86.5 0t76.5 22t62.5 36.5t45.5 44t25 44t0 37.5q-4 9 -20.5 13t-42 0.5t-58.5 -15t-71 -32.5z" />
    <glyph glyph-name="ecaron" unicode="&#x11b;" horiz-adv-x="355" 
d="M338 497q-12 23 -22.5 42.5t-21.5 42.5q-4 8 3 11t18 2t22 -6t16 -13q4 -7 14.5 -23t19.5 -32q19 0 39.5 0.5t30.5 -0.5q9 -1 18 -6t15 -11t6.5 -11t-7.5 -6q-26 -3 -53.5 -6.5t-53.5 -5.5q-12 -2 -25.5 4.5t-18.5 17.5zM240 450q12 3 29 2.5t33 -12.5q29 -21 44.5 -37
t21 -32.5t2 -35t-12.5 -42.5q-26 -66 -71.5 -109.5t-99.5 -54.5q-20 -4 -39.5 9t-32.5 25q-11 -33 -10 -62.5t15 -39.5q19 -13 53.5 -8.5t76 27t86 62.5t84.5 99q4 6 13.5 2t16.5 -16t7 -30.5t-15 -41.5q-24 -38 -66 -74t-91.5 -58t-101.5 -23.5t-98 28.5q-15 9 -26 19
t-19 22.5t-12 28.5t-4 38q0 26 10 58t26.5 65t38 64.5t45.5 57.5t49 44.5t48 24.5zM170 257q-20 -27 -30 -47.5t-3 -24.5q6 -3 16 1.5t22.5 15t27 24.5t28.5 31q37 44 52.5 79t9.5 40q-7 5 -42.5 -25t-80.5 -94z" />
    <glyph glyph-name="Gcircumflex" unicode="&#x11c;" horiz-adv-x="667" 
d="M823 826q11 -22 21 -41.5t21 -41.5q4 -8 -3 -10.5t-17.5 -1.5t-21.5 5.5t-15 12.5q-5 7 -15 22.5t-19 31.5h-20.5h-23h-21h-14.5q-9 1 -18 5.5t-14.5 10.5t-6 11t7.5 6q25 3 57.5 6.5t57.5 5.5q12 1 25.5 -5.5t18.5 -16.5zM470 279q-71 -17 -126 -18t-97 10
q-18 -40 -29 -77.5t-14 -71t3 -61t21 -46.5q15 -20 45 -23.5t76 21.5t109.5 83.5t146.5 162.5q5 9 18.5 2t25.5 -21.5t18.5 -31.5t-1.5 -28q-58 -75 -134.5 -195.5t-159.5 -302.5q-4 -9 -18.5 -5t-28.5 15.5t-23.5 26.5t-3.5 28q35 73 59.5 121.5t45.5 87.5
q-34 -17 -68.5 -22.5t-67.5 3t-65 33t-61 68.5q-17 26 -23 59t-3 70.5t14 77t26 77.5q-28 28 -41 64t-13 74t10.5 75.5t30.5 67.5q25 39 56 58.5t56.5 25.5t38.5 1t1 -15q-28 -25 -57.5 -61.5t-49 -77.5t-23.5 -81.5t18 -72.5q24 47 49 82q32 44 78.5 90t100 83.5t111 60
t112.5 20.5q31 -1 61.5 -11.5t52 -30t30 -48.5t-4.5 -66q-17 -49 -47 -94t-70 -82.5t-87 -65t-98 -39.5zM479 561q-66 -51 -117 -112t-87 -124q31 -6 65 -3t67.5 13t66 25.5t59.5 34.5q26 18 54 43.5t51.5 55t40 61.5t19.5 64q2 24 -9 32.5t-30 6t-44 -13.5t-50 -25.5
t-48 -30t-38 -27.5z" />
    <glyph glyph-name="gcircumflex" unicode="&#x11d;" horiz-adv-x="426" 
d="M437 514q11 -22 21 -41.5t21 -41.5q4 -8 -3 -10.5t-17.5 -1.5t-21.5 5.5t-15 12.5q-5 7 -15 22.5t-19 31.5h-20.5h-23h-21h-14.5q-9 1 -18 5.5t-14.5 10.5t-6 11t7.5 6q25 3 57.5 6.5t57.5 5.5q12 1 25.5 -5.5t18.5 -16.5zM491 226q4 7 13.5 2t16 -17.5t6.5 -30.5
t-14 -39q-26 -38 -50.5 -64t-53.5 -46q-38 -25 -91.5 -46.5t-107.5 -41.5q-21 -32 -44.5 -69.5t-46.5 -73t-43.5 -65.5t-35.5 -48q-15 -19 -28 -23.5t-22.5 -1.5t-17 11t-11.5 14q-14 18 -6.5 53t28.5 77q11 21 23 39.5t27.5 35t35.5 32.5t46 31q3 4 13 17t23 30
q-20 -5 -41.5 2t-42.5 29q-24 24 -32 50.5t-2.5 57t24 66t46.5 78.5q31 46 69.5 80.5t70.5 51.5q26 14 47 11t45 -22q14 -11 31 -22t18 -31q10 -4 19.5 -10.5t16 -14t10 -15t0.5 -12.5q-4 -8 -24 -41.5t-46.5 -76t-53.5 -85t-44 -69.5q14 6 26.5 12.5t17.5 8.5q9 4 21.5 11
t25.5 16t25.5 19t22.5 20q25 26 48.5 55.5t41.5 54.5zM87 59q3 -4 14.5 -0.5t31 18.5t47.5 43.5t65 75.5l18 25q10 16 21.5 36.5t20.5 39.5t13 34.5t-2 20.5t-22.5 -3t-38.5 -27t-46.5 -47.5t-48.5 -63.5q-15 -23 -30 -47t-26 -45.5t-16.5 -37.5t-0.5 -22z" />
    <glyph glyph-name="Gbreve" unicode="&#x11e;" horiz-adv-x="667" 
d="M720 865q-2 -10 -1.5 -27.5t12 -31t40 -15.5t83.5 20q9 4 10.5 -4t-3.5 -20t-15 -24.5t-23 -16.5q-53 -19 -85 -11t-47 29t-16 47.5t7 44.5q4 9 11 14.5t13.5 7t10.5 -1.5t3 -11zM470 279q-71 -17 -126 -18t-97 10q-18 -40 -29 -77.5t-14 -71t3 -61t21 -46.5
q15 -20 45 -23.5t76 21.5t109.5 83.5t146.5 162.5q5 9 18.5 2t25.5 -21.5t18.5 -31.5t-1.5 -28q-58 -75 -134.5 -195.5t-159.5 -302.5q-4 -9 -18.5 -5t-28.5 15.5t-23.5 26.5t-3.5 28q35 73 59.5 121.5t45.5 87.5q-34 -17 -68.5 -22.5t-67.5 3t-65 33t-61 68.5
q-17 26 -23 59t-3 70.5t14 77t26 77.5q-28 28 -41 64t-13 74t10.5 75.5t30.5 67.5q25 39 56 58.5t56.5 25.5t38.5 1t1 -15q-28 -25 -57.5 -61.5t-49 -77.5t-23.5 -81.5t18 -72.5q24 47 49 82q32 44 78.5 90t100 83.5t111 60t112.5 20.5q31 -1 61.5 -11.5t52 -30t30 -48.5
t-4.5 -66q-17 -49 -47 -94t-70 -82.5t-87 -65t-98 -39.5zM479 561q-66 -51 -117 -112t-87 -124q31 -6 65 -3t67.5 13t66 25.5t59.5 34.5q26 18 54 43.5t51.5 55t40 61.5t19.5 64q2 24 -9 32.5t-30 6t-44 -13.5t-50 -25.5t-48 -30t-38 -27.5z" />
    <glyph glyph-name="gbreve" unicode="&#x11f;" horiz-adv-x="426" 
d="M396 567q-2 -10 -1.5 -27.5t12 -31t40 -15.5t83.5 20q9 4 10.5 -4t-3.5 -20t-15 -24.5t-23 -16.5q-53 -19 -85 -11t-47 29t-16 47.5t7 44.5q4 9 11 14.5t13.5 7t10.5 -1.5t3 -11zM491 226q4 7 13.5 2t16 -17.5t6.5 -30.5t-14 -39q-26 -38 -50.5 -64t-53.5 -46
q-38 -25 -91.5 -46.5t-107.5 -41.5q-21 -32 -44.5 -69.5t-46.5 -73t-43.5 -65.5t-35.5 -48q-15 -19 -28 -23.5t-22.5 -1.5t-17 11t-11.5 14q-14 18 -6.5 53t28.5 77q11 21 23 39.5t27.5 35t35.5 32.5t46 31q3 4 13 17t23 30q-20 -5 -41.5 2t-42.5 29q-24 24 -32 50.5
t-2.5 57t24 66t46.5 78.5q31 46 69.5 80.5t70.5 51.5q26 14 47 11t45 -22q14 -11 31 -22t18 -31q10 -4 19.5 -10.5t16 -14t10 -15t0.5 -12.5q-4 -8 -24 -41.5t-46.5 -76t-53.5 -85t-44 -69.5q14 6 26.5 12.5t17.5 8.5q9 4 21.5 11t25.5 16t25.5 19t22.5 20q25 26 48.5 55.5
t41.5 54.5zM87 59q3 -4 14.5 -0.5t31 18.5t47.5 43.5t65 75.5l18 25q10 16 21.5 36.5t20.5 39.5t13 34.5t-2 20.5t-22.5 -3t-38.5 -27t-46.5 -47.5t-48.5 -63.5q-15 -23 -30 -47t-26 -45.5t-16.5 -37.5t-0.5 -22z" />
    <glyph glyph-name="Gdotaccent" unicode="&#x120;" horiz-adv-x="667" 
d="M824 862q20 -13 23 -40t-14 -52q-8 -13 -19 -21.5t-23 -12.5t-24 -3t-22 8q-20 13 -23 40t14 52q16 26 42 34t46 -5zM470 279q-71 -17 -126 -18t-97 10q-18 -40 -29 -77.5t-14 -71t3 -61t21 -46.5q15 -20 45 -23.5t76 21.5t109.5 83.5t146.5 162.5q5 9 18.5 2t25.5 -21.5
t18.5 -31.5t-1.5 -28q-58 -75 -134.5 -195.5t-159.5 -302.5q-4 -9 -18.5 -5t-28.5 15.5t-23.5 26.5t-3.5 28q35 73 59.5 121.5t45.5 87.5q-34 -17 -68.5 -22.5t-67.5 3t-65 33t-61 68.5q-17 26 -23 59t-3 70.5t14 77t26 77.5q-28 28 -41 64t-13 74t10.5 75.5t30.5 67.5
q25 39 56 58.5t56.5 25.5t38.5 1t1 -15q-28 -25 -57.5 -61.5t-49 -77.5t-23.5 -81.5t18 -72.5q24 47 49 82q32 44 78.5 90t100 83.5t111 60t112.5 20.5q31 -1 61.5 -11.5t52 -30t30 -48.5t-4.5 -66q-17 -49 -47 -94t-70 -82.5t-87 -65t-98 -39.5zM479 561q-66 -51 -117 -112
t-87 -124q31 -6 65 -3t67.5 13t66 25.5t59.5 34.5q26 18 54 43.5t51.5 55t40 61.5t19.5 64q2 24 -9 32.5t-30 6t-44 -13.5t-50 -25.5t-48 -30t-38 -27.5z" />
    <glyph glyph-name="gdotaccent" unicode="&#x121;" horiz-adv-x="426" 
d="M458 560q20 -13 23 -40t-14 -52q-8 -13 -19 -21.5t-23 -12.5t-24 -3t-22 8q-20 13 -23 40t14 52q16 26 42 34t46 -5zM491 226q4 7 13.5 2t16 -17.5t6.5 -30.5t-14 -39q-26 -38 -50.5 -64t-53.5 -46q-38 -25 -91.5 -46.5t-107.5 -41.5q-21 -32 -44.5 -69.5t-46.5 -73
t-43.5 -65.5t-35.5 -48q-15 -19 -28 -23.5t-22.5 -1.5t-17 11t-11.5 14q-14 18 -6.5 53t28.5 77q11 21 23 39.5t27.5 35t35.5 32.5t46 31q3 4 13 17t23 30q-20 -5 -41.5 2t-42.5 29q-24 24 -32 50.5t-2.5 57t24 66t46.5 78.5q31 46 69.5 80.5t70.5 51.5q26 14 47 11t45 -22
q14 -11 31 -22t18 -31q10 -4 19.5 -10.5t16 -14t10 -15t0.5 -12.5q-4 -8 -24 -41.5t-46.5 -76t-53.5 -85t-44 -69.5q14 6 26.5 12.5t17.5 8.5q9 4 21.5 11t25.5 16t25.5 19t22.5 20q25 26 48.5 55.5t41.5 54.5zM87 59q3 -4 14.5 -0.5t31 18.5t47.5 43.5t65 75.5l18 25
q10 16 21.5 36.5t20.5 39.5t13 34.5t-2 20.5t-22.5 -3t-38.5 -27t-46.5 -47.5t-48.5 -63.5q-15 -23 -30 -47t-26 -45.5t-16.5 -37.5t-0.5 -22z" />
    <glyph glyph-name="uni0122" unicode="&#x122;" horiz-adv-x="667" 
d="M470 279q-71 -17 -126 -18t-97 10q-18 -40 -29 -77.5t-14 -71t3 -61t21 -46.5q15 -20 45 -23.5t76 21.5t109.5 83.5t146.5 162.5q5 9 18.5 2t25.5 -21.5t18.5 -31.5t-1.5 -28q-58 -75 -134.5 -195.5t-159.5 -302.5q-4 -9 -18.5 -5t-28.5 15.5t-23.5 26.5t-3.5 28
q35 73 59.5 121.5t45.5 87.5q-34 -17 -68.5 -22.5t-67.5 3t-65 33t-61 68.5q-17 26 -23 59t-3 70.5t14 77t26 77.5q-28 28 -41 64t-13 74t10.5 75.5t30.5 67.5q25 39 56 58.5t56.5 25.5t38.5 1t1 -15q-28 -25 -57.5 -61.5t-49 -77.5t-23.5 -81.5t18 -72.5q24 47 49 82
q32 44 78.5 90t100 83.5t111 60t112.5 20.5q31 -1 61.5 -11.5t52 -30t30 -48.5t-4.5 -66q-17 -49 -47 -94t-70 -82.5t-87 -65t-98 -39.5zM479 561q-66 -51 -117 -112t-87 -124q31 -6 65 -3t67.5 13t66 25.5t59.5 34.5q26 18 54 43.5t51.5 55t40 61.5t19.5 64q2 24 -9 32.5
t-30 6t-44 -13.5t-50 -25.5t-48 -30t-38 -27.5zM238 -227q-7 -9 -19 -14.5t-23 -6t-17 4t0 13.5q17 28 33.5 56.5t35.5 54.5q7 10 20 14t24.5 2.5t18 -6.5t1.5 -12q-9 -13 -20 -29t-21.5 -31t-19 -27.5t-13.5 -18.5z" />
    <glyph glyph-name="uni0123" unicode="&#x123;" horiz-adv-x="426" 
d="M480 226q4 7 13.5 2t16 -17.5t6.5 -30.5t-14 -39q-26 -38 -50.5 -64t-53.5 -46q-38 -25 -81.5 -45t-97.5 -40q-19 -38 -39 -77t-40 -76t-39.5 -69.5t-36.5 -57.5q-14 -20 -27.5 -24.5t-25.5 0t-21.5 13.5t-13.5 15q-14 18 -6.5 53t28.5 77q31 60 70.5 110t104.5 86
q4 8 7 15l6 14q-32 -24 -66 -26t-69 33q-19 19 -27.5 38t-9.5 41q-1 35 19 77.5t55 96.5q30 46 68.5 80.5t70.5 51.5q22 11 37 11q14 1 27 -5t28 -17q8 -6 17.5 -12t17 -12.5t12 -15t3.5 -19.5q16 -8 27.5 -20.5t6.5 -23.5q-7 -14 -26 -47.5t-39 -70.5q-11 -23 -24.5 -49
t-27.5 -54q-5 -11 -11 -22.5t-12 -24.5q8 4 16 7t16 8q9 4 21.5 11t25.5 16t25.5 19t22.5 20q25 26 48.5 55.5t41.5 54.5zM300 352q-5 3 -19 -2.5t-35 -22t-47 -45.5t-55 -71q-14 -21 -28 -44t-24.5 -43.5t-17 -36.5t-4.5 -24q0 -3 1 -4q3 -4 14 -1t30.5 18t47 43.5
t64.5 74.5l38 58q9 15 17.5 31t13.5 30t6.5 24.5t-2.5 14.5zM418 451q-7 -9 -19 -14.5t-23 -6t-17 4t0 13.5q17 28 33.5 56.5t35.5 54.5q7 10 20 14t24.5 2.5t18 -6.5t1.5 -12q-9 -13 -20 -29t-21.5 -31t-19 -27.5t-13.5 -18.5z" />
    <glyph glyph-name="Hcircumflex" unicode="&#x124;" horiz-adv-x="952" 
d="M1002 879q20 -16 36 -30t35 -30q6 -6 1 -11t-15 -8t-22 -3t-19 5t-22.5 15.5t-29.5 21.5q-8 -3 -18.5 -8t-21 -9.5t-19.5 -8.5t-14 -5q-9 -3 -19 -2t-17.5 4t-9.5 7.5t5 9.5q22 12 50.5 28t50.5 27q11 5 26 4.5t23 -7.5zM755 709q8 5 23.5 0.5t29.5 -14t22.5 -22
t1.5 -23.5q-30 -51 -66 -112t-74 -124t-75 -125t-70 -114q32 -20 65 -38t74 -31q91 150 180.5 298.5t180.5 301.5q6 9 20 3t26.5 -20t19 -33t-3.5 -36q-42 -70 -82.5 -136.5t-80.5 -132.5t-79.5 -131.5t-79.5 -132.5q40 0 73 12t61.5 34t53.5 53t50 69q6 9 15.5 4
t14.5 -19.5t3 -36t-18 -44.5q-36 -51 -73.5 -82.5t-75 -47.5t-75 -19t-73.5 4q-11 -17 -20.5 -34t-20.5 -34q-5 -9 -20 -4.5t-29.5 15.5t-23.5 26.5t-1 27.5q5 8 10 16.5t10 16.5q-37 17 -70.5 37.5t-64.5 40.5q-58 -83 -115 -128t-109 -62.5t-97.5 -13t-80 20.5t-57 38.5
t-27.5 41.5q-8 29 -2 61t34 66q34 42 76 67.5t89 36.5t97 7.5t100 -19.5q11 -4 21 -7.5t20 -8.5q22 36 47.5 77.5t51.5 85.5t53 89t53 89q-4 -2 -8 -4.5t-8 -4.5q-10 -6 -33.5 -19.5t-47.5 -30.5t-40.5 -35.5t-11.5 -34.5q2 -6 -8.5 -8t-25 1.5t-28 13.5t-18.5 28
q-6 23 5 42t30 34.5t41 28t38 21.5q50 31 101 57.5t102 56.5zM117 -4q10 -13 42.5 -11.5t77 21.5t95.5 61t98 107q-11 6 -21.5 11t-19.5 8q-32 9 -66.5 5.5t-67.5 -16.5t-62.5 -35t-49.5 -50q-22 -29 -30 -58t4 -43z" />
    <glyph glyph-name="hcircumflex" unicode="&#x125;" 
d="M520 847q11 -22 21 -41.5t21 -41.5q4 -8 -3 -10.5t-17.5 -1.5t-21.5 5.5t-15 12.5q-5 7 -15 22.5t-19 31.5h-20.5h-23h-21h-14.5q-9 1 -18 5.5t-14.5 10.5t-6 11t7.5 6q25 3 57.5 6.5t57.5 5.5q12 1 25.5 -5.5t18.5 -16.5zM395 739q8 9 25.5 4t34.5 -29
q14 -20 12.5 -42.5t-10.5 -41.5q-6 -11 -30 -46.5t-60.5 -85t-82.5 -107t-94 -111.5q-24 -41 -46 -78.5t-40 -69.5q39 37 80.5 77.5t81 80t74.5 76t62 65.5q5 5 9.5 5.5t7.5 1.5q8 0 21.5 -5t25 -13.5t16.5 -20t-4 -24.5q-18 -26 -42 -60t-48.5 -69.5t-46 -70.5t-34.5 -62
q-11 -23 -18 -41t1 -25q4 -4 23.5 6.5t48.5 34t63.5 60t68.5 85.5q5 8 14 3t15.5 -18t6.5 -31.5t-13 -37.5q-47 -70 -95 -105t-88.5 -42.5t-70.5 10t-41 53.5q-4 14 -2.5 31.5t6 36t12 36.5t15.5 33q2 4 4 7.5t4 7.5q-31 -31 -63.5 -61t-62.5 -57t-54.5 -50.5t-40.5 -39.5
q-6 -5 -12 -7.5t-15 -0.5q-11 3 -22.5 9t-21 14.5t-14.5 17t-1 15.5q5 9 19.5 33.5t34 57t41.5 70.5t43 75q8 15 29.5 49t49.5 77.5t60 92t63 93t57.5 80.5t43.5 54z" />
    <glyph glyph-name="Hbar" unicode="&#x126;" horiz-adv-x="952" 
d="M755 709q8 5 23.5 0.5t29.5 -14t22.5 -22t1.5 -23.5q-35 -61 -78 -133.5t-88 -147.5q49 2 96 2.5t85 0.5q51 84 100 166.5t100 167.5q6 9 20 3t26.5 -20t19 -33t-3.5 -36l-153 -253q15 -6 28.5 -16t21 -20t7 -17t-12.5 -7t-33.5 -0.5t-48.5 -0.5l-131 -219q40 0 73 12
t61.5 34t53.5 53t50 69q6 9 15.5 4t14.5 -19.5t3 -36t-18 -44.5q-36 -51 -73.5 -82.5t-75 -47.5t-75 -19t-73.5 4l-41 -68q-5 -9 -20 -4.5t-29.5 15.5t-23.5 26.5t-1 27.5q5 8 10 16.5t10 16.5q-37 17 -70.5 37.5t-64.5 40.5q-58 -83 -115 -128t-109 -62.5t-97.5 -13
t-80 20.5t-57 38.5t-27.5 41.5q-8 29 -2 61t34 66q34 42 76 67.5t89 36.5t97 7.5t100 -19.5q11 -4 21 -7.5t20 -8.5l45 73q-5 -1 -9 -1h-7q-17 -2 -35.5 8t-31 22t-15 23t11.5 13q18 2 52 3.5t77 3.5q29 48 58.5 98t58.5 98l-16 -9q-10 -6 -33.5 -19.5t-47.5 -30.5
t-40.5 -35.5t-11.5 -34.5q2 -6 -8.5 -8t-25 1.5t-28 13.5t-18.5 28q-6 23 5 42t30 34.5t41 28t38 21.5q50 31 101 57.5t102 56.5zM117 -4q10 -13 42.5 -11.5t77 21.5t95.5 61t98 107q-11 6 -21.5 11t-19.5 8q-32 9 -66.5 5.5t-67.5 -16.5t-62.5 -35t-49.5 -50
q-22 -29 -30 -58t4 -43zM623 299l-76 -124q32 -20 65 -38t74 -31l120 197z" />
    <glyph glyph-name="hbar" unicode="&#x127;" 
d="M494 233q5 8 14 3t15.5 -18t6.5 -31.5t-13 -37.5q-47 -70 -95 -105t-88.5 -42.5t-70.5 10t-41 53.5q-4 14 -2.5 31.5t6 36t12 36.5t15.5 33q2 4 4 7.5t4 7.5q-31 -31 -63.5 -61t-62.5 -57t-54.5 -50.5t-40.5 -39.5q-6 -5 -12 -7.5t-15 -0.5q-11 3 -22.5 9t-21 14.5
t-14.5 17t-1 15.5q5 9 19.5 33.5t34 57t41.5 70.5t43 75q11 19 39.5 65t66.5 103q-12 7 -22.5 16t-16.5 18t-5 15.5t11 8.5q20 2 38.5 4.5t38.5 4.5q22 33 44.5 65.5t42.5 60.5t37 50t29 35q8 9 25.5 4t34.5 -29q14 -20 12.5 -42.5t-10.5 -41.5q-5 -9 -22 -34.5t-44 -62.5
q16 -5 30.5 -16t23 -21.5t8.5 -18t-13 -7.5l-102 -9q-32 -43 -70 -89.5t-78 -91.5q-24 -41 -46 -78.5t-40 -69.5q39 37 80.5 77.5t81 80t74.5 76t62 65.5q5 5 9.5 5.5t7.5 1.5q8 0 21.5 -5t25 -13.5t16.5 -20t-4 -24.5q-18 -26 -42 -60t-48.5 -69.5t-46 -70.5t-34.5 -62
q-11 -23 -18 -41t1 -25q4 -4 23.5 6.5t48.5 34t63.5 60t68.5 85.5z" />
    <glyph glyph-name="Itilde" unicode="&#x128;" horiz-adv-x="577" 
d="M929 863q4 3 7 -1t4 -10.5t-2 -15.5t-12 -16q-23 -17 -46.5 -20.5t-48.5 12.5q-12 7 -24 15.5t-24.5 13.5t-25.5 5t-26 -10q-13 -9 -16 -5t-1 13.5t8 20t12 14.5q24 17 49 21.5t52 -11.5q10 -6 21.5 -14.5t23.5 -14t24.5 -6t24.5 8.5zM875 680q2 -17 -5.5 -29
t-20.5 -19.5t-28 -11.5t-28 -7q-8 -2 -21.5 -3.5t-32.5 -3.5q-32 -47 -60 -96t-49 -84q-29 -49 -59 -97t-59 -97q-39 -65 -79.5 -126.5t-96.5 -115.5q-29 -28 -58 -40t-58.5 -12t-60.5 10.5t-64 28.5q-35 19 -52 46t-19 56t9 60t31.5 58.5t49 49.5t61.5 36q35 15 69.5 16
t56.5 -4.5t26 -15.5t-22 -18q-75 -23 -119.5 -59.5t-64.5 -74.5t-19 -71t18 -48q13 -12 33.5 -11t42 9.5t41.5 22t32 26.5q29 30 53.5 62t47.5 67q37 58 72 116.5t70 117.5q21 35 49 81.5t57 91.5q-34 -6 -64 -14t-47.5 -19.5t-19.5 -26.5t21 -34q7 -6 5 -10.5t-8.5 -7
t-17 -2.5t-20.5 3q-15 4 -30 14.5t-24 25.5t-9.5 35t12.5 43q13 22 40 34.5t61 18.5t72.5 8t75.5 3l12 18q7 10 16.5 24t20.5 27t24 22.5t28 10.5q16 1 35 -5t34.5 -18t26.5 -28t13 -33z" />
    <glyph glyph-name="itilde" unicode="&#x129;" horiz-adv-x="237" 
d="M392 525q4 3 7 -1t4 -10.5t-2 -15.5t-12 -16q-23 -17 -46.5 -20.5t-48.5 12.5q-12 7 -24 15.5t-24.5 13.5t-25.5 5t-26 -10q-13 -9 -16 -5t-1 13.5t8 20t12 14.5q24 17 49 21.5t52 -11.5q10 -6 21.5 -14.5t23.5 -14t24.5 -6t24.5 8.5zM242 336q-7 -12 -17.5 -27.5
t-22.5 -32t-23.5 -31.5t-19.5 -26q-15 -22 -29 -47t-23 -48t-11.5 -40.5t4.5 -23.5q11 -9 35.5 6t53 42t57 60t48.5 61q4 6 13.5 1.5t16 -17t6.5 -30.5t-14 -39q-35 -53 -70 -85t-66.5 -46.5t-57 -13t-41.5 16.5q-42 39 -53.5 74.5t-3.5 69.5t29.5 67.5t45.5 67.5
q29 42 50 67t25 30q9 10 22 5t24.5 -16t18.5 -24.5t3 -20.5z" />
    <glyph glyph-name="Imacron" unicode="&#x12a;" horiz-adv-x="577" 
d="M733 828q-14 -1 -29.5 7t-25.5 18t-12 18.5t10 9.5q22 1 51.5 1t60 -0.5t60 -2t51.5 -2.5q16 -2 30.5 -10t23 -17.5t8 -16.5t-13.5 -6zM875 680q2 -17 -5.5 -29t-20.5 -19.5t-28 -11.5t-28 -7q-8 -2 -21.5 -3.5t-32.5 -3.5q-32 -47 -60 -96t-49 -84q-29 -49 -59 -97
t-59 -97q-39 -65 -79.5 -126.5t-96.5 -115.5q-29 -28 -58 -40t-58.5 -12t-60.5 10.5t-64 28.5q-35 19 -52 46t-19 56t9 60t31.5 58.5t49 49.5t61.5 36q35 15 69.5 16t56.5 -4.5t26 -15.5t-22 -18q-75 -23 -119.5 -59.5t-64.5 -74.5t-19 -71t18 -48q13 -12 33.5 -11t42 9.5
t41.5 22t32 26.5q29 30 53.5 62t47.5 67q37 58 72 116.5t70 117.5q21 35 49 81.5t57 91.5q-34 -6 -64 -14t-47.5 -19.5t-19.5 -26.5t21 -34q7 -6 5 -10.5t-8.5 -7t-17 -2.5t-20.5 3q-15 4 -30 14.5t-24 25.5t-9.5 35t12.5 43q13 22 40 34.5t61 18.5t72.5 8t75.5 3l12 18
q7 10 16.5 24t20.5 27t24 22.5t28 10.5q16 1 35 -5t34.5 -18t26.5 -28t13 -33z" />
    <glyph glyph-name="imacron" unicode="&#x12b;" horiz-adv-x="235" 
d="M184 485q-14 -1 -29.5 7t-25.5 18t-12 18.5t10 9.5q22 1 51.5 1t60 -0.5t60 -2t51.5 -2.5q16 -2 30.5 -10t23 -17.5t8 -16.5t-13.5 -6zM242 336q-7 -12 -17.5 -27.5t-22.5 -32t-23.5 -31.5t-19.5 -26q-15 -22 -29 -47t-23 -48t-11.5 -40.5t4.5 -23.5q11 -9 35.5 6t53 42
t57 60t48.5 61q4 6 13.5 1.5t16 -17t6.5 -30.5t-14 -39q-35 -53 -70 -85t-66.5 -46.5t-57 -13t-41.5 16.5q-42 39 -53.5 74.5t-3.5 69.5t29.5 67.5t45.5 67.5q29 42 50 67t25 30q9 10 22 5t24.5 -16t18.5 -24.5t3 -20.5z" />
    <glyph glyph-name="Iogonek" unicode="&#x12e;" horiz-adv-x="577" 
d="M875 680q2 -17 -5.5 -29t-20.5 -19.5t-28 -11.5t-28 -7q-8 -2 -21.5 -3.5t-32.5 -3.5q-32 -47 -60 -96t-49 -84l-118 -194q-39 -65 -79.5 -126.5t-96.5 -115.5l-23 -19q-38 -35 -52 -66.5t-6 -47.5q5 -11 19 -7.5t30 13.5t31 23.5t23 22.5q5 6 11 2.5t9 -13t1 -23
t-12 -27.5q-3 -4 -6.5 -8t-10.5 -10q-14 -11 -30 -18.5t-33.5 -8.5t-34 6.5t-29.5 26.5q-20 28 -19 55t15 47q-29 0 -60 10.5t-64 28.5q-35 19 -52 46t-19 56t9 60t31.5 58.5t49 49.5t61.5 36q35 15 69.5 16t56.5 -4.5t26 -15.5t-22 -18q-75 -23 -119.5 -59.5t-64.5 -74.5
t-19 -71t18 -48q13 -12 33.5 -11t42 9.5t41.5 22t32 26.5q29 30 53.5 62t47.5 67q37 58 72 116.5t70 117.5q21 35 49 81.5t57 91.5q-34 -6 -64 -14t-47.5 -19.5t-19.5 -26.5t21 -34q7 -6 5 -10.5t-8.5 -7t-17 -2.5t-20.5 3q-15 4 -30 14.5t-24 25.5t-9.5 35t12.5 43
q13 22 40 34.5t61 18.5t72.5 8t75.5 3l12 18q7 10 16.5 24t20.5 27t24 22.5t28 10.5q16 1 35 -5t34.5 -18t26.5 -28t13 -33z" />
    <glyph glyph-name="iogonek" unicode="&#x12f;" horiz-adv-x="237" 
d="M211 -103q-3 -4 -6.5 -8t-10.5 -10q-14 -11 -30 -18.5t-33.5 -8.5t-34 6.5t-29.5 26.5q-27 38 -18 72t37 54q-2 2 -3 2.5t-2 2.5q-42 39 -53.5 74.5t-3.5 69.5t29.5 67.5t45.5 67.5q29 42 50 67t25 30q9 10 22 5t24.5 -16t18.5 -24.5t3 -20.5q-7 -12 -17.5 -27.5
t-22.5 -32t-23.5 -31.5t-19.5 -26q-15 -22 -29 -47t-23 -48t-11.5 -40.5t4.5 -23.5q11 -9 35.5 6t53 42t57 60t48.5 61q4 6 13.5 1.5t16 -17t6.5 -30.5t-14 -39q-44 -66 -87.5 -100t-78.5 -42q-18 -13 -30.5 -27.5t-19 -27.5t-7 -24t5.5 -17q9 -9 23 -5t29.5 13.5t29 22
t21.5 21.5q5 6 11 2.5t9 -13t1 -23t-12 -27.5zM364 589q20 -13 23 -40t-14 -52q-8 -13 -19 -21.5t-23 -12.5t-24 -3t-22 8q-20 13 -23 40t14 52q16 26 42 34t46 -5z" />
    <glyph glyph-name="Idotaccent" unicode="&#x130;" horiz-adv-x="577" 
d="M907 905q20 -13 23 -40t-14 -52q-8 -13 -19 -21.5t-23 -12.5t-24 -3t-22 8q-20 13 -23 40t14 52q16 26 42 34t46 -5zM875 680q2 -17 -5.5 -29t-20.5 -19.5t-28 -11.5t-28 -7q-8 -2 -21.5 -3.5t-32.5 -3.5q-32 -47 -60 -96t-49 -84q-29 -49 -59 -97t-59 -97
q-39 -65 -79.5 -126.5t-96.5 -115.5q-29 -28 -58 -40t-58.5 -12t-60.5 10.5t-64 28.5q-35 19 -52 46t-19 56t9 60t31.5 58.5t49 49.5t61.5 36q35 15 69.5 16t56.5 -4.5t26 -15.5t-22 -18q-75 -23 -119.5 -59.5t-64.5 -74.5t-19 -71t18 -48q13 -12 33.5 -11t42 9.5t41.5 22
t32 26.5q29 30 53.5 62t47.5 67q37 58 72 116.5t70 117.5q21 35 49 81.5t57 91.5q-34 -6 -64 -14t-47.5 -19.5t-19.5 -26.5t21 -34q7 -6 5 -10.5t-8.5 -7t-17 -2.5t-20.5 3q-15 4 -30 14.5t-24 25.5t-9.5 35t12.5 43q13 22 40 34.5t61 18.5t72.5 8t75.5 3l12 18
q7 10 16.5 24t20.5 27t24 22.5t28 10.5q16 1 35 -5t34.5 -18t26.5 -28t13 -33z" />
    <glyph glyph-name="dotlessi" unicode="&#x131;" horiz-adv-x="237" 
d="M242 336q-7 -12 -17.5 -27.5t-22.5 -32t-23.5 -31.5t-19.5 -26q-15 -22 -29 -47t-23 -48t-11.5 -40.5t4.5 -23.5q11 -9 35.5 6t53 42t57 60t48.5 61q4 6 13.5 1.5t16 -17t6.5 -30.5t-14 -39q-35 -53 -70 -85t-66.5 -46.5t-57 -13t-41.5 16.5q-42 39 -53.5 74.5t-3.5 69.5
t29.5 67.5t45.5 67.5q29 42 50 67t25 30q9 10 22 5t24.5 -16t18.5 -24.5t3 -20.5z" />
    <glyph glyph-name="IJ" unicode="&#x132;" horiz-adv-x="1327" 
d="M875 680q2 -17 -5.5 -29t-20.5 -19.5t-28 -11.5t-28 -7q-8 -2 -21.5 -3.5t-32.5 -3.5q-32 -47 -60 -96t-49 -84q-29 -49 -59 -97t-59 -97q-39 -65 -79.5 -126.5t-96.5 -115.5q-29 -28 -58 -40t-58.5 -12t-60.5 10.5t-64 28.5q-35 19 -52 46t-19 56t9 60t31.5 58.5
t49 49.5t61.5 36q35 15 69.5 16t56.5 -4.5t26 -15.5t-22 -18q-75 -23 -119.5 -59.5t-64.5 -74.5t-19 -71t18 -48q13 -12 33.5 -11t42 9.5t41.5 22t32 26.5q29 30 53.5 62t47.5 67q37 58 72 116.5t70 117.5q21 35 49 81.5t57 91.5q-34 -6 -64 -14t-47.5 -19.5t-19.5 -26.5
t21 -34q7 -6 5 -10.5t-8.5 -7t-17 -2.5t-20.5 3q-15 4 -30 14.5t-24 25.5t-9.5 35t12.5 43q13 22 40 34.5t61 18.5t72.5 8t75.5 3l12 18q7 10 16.5 24t20.5 27t24 22.5t28 10.5q16 1 35 -5t34.5 -18t26.5 -28t13 -33zM1321 681q1 -17 -6.5 -29t-20 -19.5t-28 -11.5t-28.5 -7
q-7 -2 -21 -3.5t-32 -3.5q-21 -33 -39.5 -67t-36.5 -65q-11 -18 -38 -61.5t-62 -99t-72.5 -116.5t-69.5 -112q65 5 110 27t74 48.5t45 51t23 34.5q6 8 15 2.5t14.5 -19t5 -32t-12.5 -36.5q-36 -53 -74 -83t-78.5 -45t-82.5 -18.5t-85 -3.5q-8 -14 -15 -25t-11 -18
q-39 -65 -79.5 -126.5t-96.5 -115.5q-29 -28 -58 -40t-58.5 -12t-60.5 10.5t-64 28.5q-38 20 -52.5 53t-9.5 70t27 74.5t57 66.5q40 34 83.5 55t89 32t91.5 15t91 5q33 54 69.5 113t69.5 112t58.5 95t37.5 62q19 31 37 62t37 63q-34 -6 -64 -14t-48 -19t-20 -26.5t21 -34.5
q7 -6 5 -10.5t-8.5 -7t-17 -2.5t-20.5 3q-15 4 -30 14.5t-24 25.5t-10 35t13 43q13 22 39.5 34.5t61 18.5t73 8t75.5 3l12 18q7 10 16.5 24t21 27.5t24.5 23t27 10.5q16 1 35 -5.5t35 -18.5t27 -27.5t13 -33.5zM552 -208q29 30 53.5 62t47.5 67q8 13 22 35.5t33 51.5
q-67 -6 -124.5 -24t-99.5 -54q-24 -21 -39.5 -49t-23 -55.5t-6.5 -50.5t10 -32q14 -14 31 -13t34 10.5t33.5 24t28.5 27.5z" />
    <glyph glyph-name="ij" unicode="&#x133;" horiz-adv-x="455" 
d="M242 336q-7 -12 -17.5 -27.5t-22.5 -32t-23.5 -31.5t-19.5 -26q-15 -22 -29 -47t-23 -48t-11.5 -40.5t4.5 -23.5q11 -9 35.5 6t53 42t57 60t48.5 61q4 6 13.5 1.5t16 -17t6.5 -30.5t-14 -39q-35 -53 -70 -85t-66.5 -46.5t-57 -13t-41.5 16.5q-42 39 -53.5 74.5t-3.5 69.5
t29.5 67.5t45.5 67.5q14 21 28.5 39.5t26.5 32.5t20 23.5t10 11.5q8 9 19.5 2.5t21.5 -19.5t15.5 -27.5t1.5 -21.5zM357 581q18 -12 20.5 -36.5t-12.5 -47.5t-38.5 -30.5t-41.5 4.5q-19 11 -21 35.5t13 47.5q14 23 37.5 30.5t42.5 -3.5zM581 608q20 -13 23 -40t-14 -52
q-8 -13 -19 -21.5t-23 -12.5t-24 -3t-22 8q-20 13 -23 40t13 52q17 26 43 34t46 -5zM509 226q5 7 14 2.5t15.5 -17t6.5 -30.5t-13 -39q-26 -38 -51 -64.5t-54 -45.5q-36 -25 -78.5 -44.5t-94.5 -39.5q-20 -38 -40.5 -77.5t-41 -76t-40 -69.5t-37.5 -58q-14 -20 -27.5 -24
t-25.5 0t-21.5 13t-13.5 15q-14 19 -6.5 53.5t28.5 76.5q20 38 42.5 72t51.5 64l278 484q9 12 25.5 8.5t31.5 -15t23.5 -26.5t1.5 -27t-23 -38t-35.5 -57.5t-38 -62.5t-29.5 -52q-11 -20 -26 -49t-32 -64q7 3 13.5 6t12.5 6q9 4 21.5 11.5t25.5 16t25.5 18.5t22.5 21
q25 26 48.5 55t40.5 54z" />
    <glyph glyph-name="Jcircumflex" unicode="&#x134;" horiz-adv-x="750" 
d="M1075 862q11 -22 21 -41.5t21 -41.5q4 -8 -3 -10.5t-17.5 -1.5t-21.5 5.5t-15 12.5q-5 7 -15 22.5t-19 31.5h-20.5h-23h-21h-14.5q-9 1 -18 5.5t-14.5 10.5t-6 11t7.5 6q25 3 57.5 6.5t57.5 5.5q12 1 25.5 -5.5t18.5 -16.5zM1021 681q1 -17 -6.5 -29t-20 -19.5t-28 -11.5
t-28.5 -7q-7 -2 -21 -3.5t-32 -3.5q-21 -33 -39.5 -67t-36.5 -65q-11 -18 -38 -61.5t-62 -99t-72.5 -116.5t-69.5 -112q65 5 110 27t74 48.5t45 51t23 34.5q6 8 15 2.5t14.5 -19t5 -32t-12.5 -36.5q-36 -53 -74 -83t-78.5 -45t-82.5 -18.5t-85 -3.5q-8 -14 -15 -25t-11 -18
q-39 -65 -79.5 -126.5t-96.5 -115.5q-29 -28 -58 -40t-58.5 -12t-60.5 10.5t-64 28.5q-38 20 -52.5 53t-9.5 70t27 74.5t57 66.5q40 34 83.5 55t89 32t91.5 15t91 5q33 54 69.5 113t69.5 112t58.5 95t37.5 62q19 31 37 62t37 63q-34 -6 -64 -14t-48 -19t-20 -26.5t21 -34.5
q7 -6 5 -10.5t-8.5 -7t-17 -2.5t-20.5 3q-15 4 -30 14.5t-24 25.5t-10 35t13 43q13 22 39.5 34.5t61 18.5t73 8t75.5 3l12 18q7 10 16.5 24t21 27.5t24.5 23t27 10.5q16 1 35 -5.5t35 -18.5t27 -27.5t13 -33.5zM252 -208q29 30 53.5 62t47.5 67q8 13 22 35.5t33 51.5
q-67 -6 -124.5 -24t-99.5 -54q-24 -21 -39.5 -49t-23 -55.5t-6.5 -50.5t10 -32q14 -14 31 -13t34 10.5t33.5 24t28.5 27.5z" />
    <glyph glyph-name="jcircumflex" unicode="&#x135;" horiz-adv-x="218" 
d="M272 226q5 7 14 2.5t15.5 -17t6.5 -30.5t-13 -39q-26 -38 -51 -64.5t-54 -45.5q-36 -25 -78.5 -44.5t-94.5 -39.5q-20 -38 -40.5 -77.5t-41 -76t-40 -69.5t-37.5 -58q-14 -20 -27.5 -24t-25.5 0t-21.5 13t-13.5 15q-14 19 -6.5 53.5t28.5 76.5q20 38 42.5 72t51.5 64
l278 484q9 12 25.5 8.5t31.5 -15t23.5 -26.5t1.5 -27t-23 -38t-35.5 -57.5t-38 -62.5t-29.5 -52q-11 -20 -26 -49t-32 -64q7 3 13.5 6t12.5 6q9 4 21.5 11.5t25.5 16t25.5 18.5t22.5 21q25 26 48.5 55t40.5 54zM329 551q11 -22 21 -41.5t21 -41.5q4 -8 -3 -10.5t-17.5 -1.5
t-21.5 5.5t-15 12.5q-5 7 -15 22.5t-19 31.5h-20.5h-23h-21h-14.5q-9 1 -18 5.5t-14.5 10.5t-6 11t7.5 6q25 3 57.5 6.5t57.5 5.5q12 1 25.5 -5.5t18.5 -16.5z" />
    <glyph glyph-name="uni0136" unicode="&#x136;" horiz-adv-x="620" 
d="M165 -202q-7 -9 -19 -14.5t-23 -6t-17 4t0 13.5q17 28 33.5 56.5t35.5 54.5q7 10 20 14t24.5 2.5t18 -6.5t1.5 -12q-9 -13 -20 -29t-21.5 -31t-19 -27.5t-13.5 -18.5zM529 657q-52 -87 -119.5 -199t-151.5 -252l4 -6l4 -6q40 22 76 46q60 44 115 98t104.5 113t93.5 122
t84 126q9 15 18.5 6t14.5 -30t4 -48.5t-13 -49.5q-34 -66 -78.5 -129t-103 -121t-131.5 -109t-163 -92q10 -42 18.5 -69t17 -42.5t18 -21t22.5 -5.5q25 0 70.5 20.5t99.5 67.5q26 22 48 43t42 43.5t39 48t39 57.5q8 13 17 8t12.5 -21.5t0 -41.5t-19.5 -50q-33 -51 -78.5 -96
t-95.5 -76.5t-101.5 -45.5t-97.5 -4.5t-82.5 47t-55.5 110.5q-5 0 -7 1q-22 -37 -45 -75t-46 -79q-6 -9 -21 -4.5t-29.5 16t-23.5 26.5t-1 27q20 32 39 63.5t38 63.5q-16 8 -27.5 22t-0.5 35q20 35 46.5 48.5t53.5 11.5q48 81 96 160t96 160q-10 -5 -19.5 -10t-19.5 -11
q-14 -7 -41 -20t-53.5 -30t-46 -37t-16.5 -40q1 -9 -11.5 -8.5t-28.5 7t-30.5 17.5t-15.5 22q-3 22 13 42t39 36.5t47.5 30t39.5 21.5q55 31 111 58.5t113 55.5q8 4 23 -1t29 -14t23 -19t5 -17z" />
    <glyph glyph-name="uni0137" unicode="&#x137;" horiz-adv-x="466" 
d="M54 -202q-7 -9 -19 -14.5t-23 -6t-17 4t0 13.5q17 28 33.5 56.5t35.5 54.5q7 10 20 14t24.5 2.5t18 -6.5t1.5 -12q-9 -13 -20 -29t-21.5 -31t-19 -27.5t-13.5 -18.5zM37 199q20 35 49.5 84.5t63.5 103.5t70 109.5t69 104t60.5 85.5t44.5 54q8 8 25 3t34 -29
q15 -20 13.5 -42.5t-11.5 -41.5q-5 -10 -26.5 -39t-54 -68.5t-73.5 -87t-84 -93.5q41 35 75.5 60.5t52.5 35.5q20 10 32 13t20 0t13.5 -9.5t12.5 -14.5t9 -13q10 -7 20.5 -17.5t16 -23.5t5 -29t-11.5 -34q-11 -17 -32.5 -45.5t-52 -55.5t-69.5 -45.5t-84 -15.5
q0 -33 16.5 -58.5t34.5 -33.5q16 -7 41.5 -1.5t72.5 34.5q38 24 71.5 61.5t68.5 90.5q4 6 14.5 3t18.5 -13t9 -27.5t-14 -40.5q-23 -38 -57.5 -77t-83.5 -61q-52 -23 -103.5 -25t-97.5 32q-32 23 -49 54.5t-23 65.5q-32 -41 -56.5 -78t-41.5 -62q-10 -14 -20 -11.5t-15 6.5
q-16 12 -21 29.5t-3 37.5t9 40t15.5 37t16 30t10.5 18zM289 310q-24 -22 -47.5 -45.5t-41.5 -43.5q24 5 50 14.5t61 37.5q48 38 62 63.5t8 30.5q-2 2 -10.5 -1.5t-21.5 -11t-28.5 -19t-31.5 -25.5z" />
    <glyph glyph-name="kgreenlandic" unicode="&#x138;" horiz-adv-x="466" 
d="M37 199q20 35 49.5 84.5t63.5 103.5t70 109.5t69 104t60.5 85.5t44.5 54q8 8 25 3t34 -29q15 -20 13.5 -42.5t-11.5 -41.5q-5 -10 -26.5 -39t-54 -68.5t-73.5 -87t-84 -93.5q41 35 75.5 60.5t52.5 35.5q20 10 32 13t20 0t13.5 -9.5t12.5 -14.5t9 -13q10 -7 20.5 -17.5
t16 -23.5t5 -29t-11.5 -34q-11 -17 -32.5 -45.5t-52 -55.5t-69.5 -45.5t-84 -15.5q0 -33 16.5 -58.5t34.5 -33.5q16 -7 41.5 -1.5t72.5 34.5q38 24 71.5 61.5t68.5 90.5q4 6 14.5 3t18.5 -13t9 -27.5t-14 -40.5q-23 -38 -57.5 -77t-83.5 -61q-52 -23 -103.5 -25t-97.5 32
q-32 23 -49 54.5t-23 65.5q-32 -41 -56.5 -78t-41.5 -62q-10 -14 -20 -11.5t-15 6.5q-16 12 -21 29.5t-3 37.5t9 40t15.5 37t16 30t10.5 18zM289 310q-24 -22 -47.5 -45.5t-41.5 -43.5q24 5 50 14.5t61 37.5q48 38 62 63.5t8 30.5q-2 2 -10.5 -1.5t-21.5 -11t-28.5 -19
t-31.5 -25.5z" />
    <glyph glyph-name="Lacute" unicode="&#x139;" horiz-adv-x="674" 
d="M690 767q-11 -3 -25.5 2t-25 12.5t-14 15.5t6.5 12q31 11 62 22.5t63 20.5q12 3 25.5 -3t23.5 -15.5t13 -19t-5 -11.5q-15 -5 -33.5 -10t-36 -10.5t-32 -9.5t-22.5 -6zM779 300q8 13 17 8t13 -21.5t0 -41.5t-20 -50q-30 -46 -70 -87.5t-85 -72.5t-92 -49t-91 -17.5
t-82 22t-64 69.5q-27 -37 -61 -67t-80 -40q-26 -5 -52 3t-46.5 25t-32.5 40t-10 47q2 31 14.5 64.5t33.5 64.5t49 56t60 39q42 19 75.5 6t62.5 -48q11 19 22 37.5t22 38.5q-23 11 -47 31q-35 29 -53.5 61t-23 66t3 70t24.5 72q10 22 27.5 37t36.5 24.5t37.5 13t31 2.5
t16.5 -7t-5 -15q-23 -23 -43 -49.5t-33 -56.5t-17 -62.5t5 -66.5q10 -35 26.5 -52t37.5 -22q13 26 25 52.5t23 53.5q13 33 29 74t36.5 78.5t47 65.5t61.5 35q14 3 31 -3t33 -16.5t29 -23t19 -22.5q15 -27 12.5 -62t-14.5 -69.5t-30.5 -65t-35.5 -50.5q-41 -47 -89.5 -77.5
t-101.5 -35.5q-21 -40 -44.5 -79t-49.5 -77q10 -40 18 -65t16.5 -39.5t18 -20t22.5 -5.5q24 0 69.5 20.5t99.5 67.5q26 22 48 43t42 43.5t39 48t39 57.5zM652 655q-8 4 -19 -7.5t-24 -33t-27.5 -50t-28.5 -58.5t-26.5 -58.5t-21.5 -50.5q42 25 74 66.5t51.5 82.5t25 72.5
t-3.5 36.5zM105 8q10 -3 26.5 8t37.5 33t45.5 53.5t50.5 67.5q-13 26 -30.5 34t-48.5 -17q-22 -18 -46 -48q-26 -34 -35.5 -58.5t-10.5 -40t3.5 -23.5t7.5 -9z" />
    <glyph glyph-name="lacute" unicode="&#x13a;" horiz-adv-x="239" 
d="M430 772q-11 -3 -25.5 2t-25 12.5t-14 15.5t6.5 12q31 11 62 22.5t63 20.5q12 3 25.5 -3t23.5 -15.5t13 -19t-5 -11.5q-15 -5 -33.5 -10t-36 -10.5t-32 -9.5t-22.5 -6zM387 737q8 9 25 4t34 -29q14 -20 13 -42.5t-11 -41.5q-5 -11 -28.5 -45.5t-59 -82.5t-80 -104
t-91.5 -110q-11 -14 -19 -24t-9 -12l-16 -24t-21.5 -33.5t-22 -38t-17 -38t-7.5 -33.5t7 -24q13 -15 39.5 -1.5t56.5 42t59 64t49 63.5q4 7 13.5 2t16 -17.5t6.5 -30.5t-14 -39q-35 -52 -71 -85t-69.5 -47.5t-62 -11t-49.5 24.5q-11 11 -17 22t-10 22q-11 29 -12 64.5
t15 67.5q11 22 37 65.5t59.5 97.5t71.5 113t73.5 111.5t65 93t46.5 57.5z" />
    <glyph glyph-name="uni013B" unicode="&#x13b;" horiz-adv-x="674" 
d="M237 -202q-7 -9 -19 -14.5t-23 -6t-17 4t0 13.5q17 28 33.5 56.5t35.5 54.5q7 10 20 14t24.5 2.5t18 -6.5t1.5 -12q-9 -13 -20 -29t-21.5 -31t-19 -27.5t-13.5 -18.5zM779 300q8 13 17 8t13 -21.5t0 -41.5t-20 -50q-30 -46 -70 -87.5t-85 -72.5t-92 -49t-91 -17.5t-82 22
t-64 69.5q-27 -37 -61 -67t-80 -40q-26 -5 -52 3t-46.5 25t-32.5 40t-10 47q2 31 14.5 64.5t33.5 64.5t49 56t60 39q42 19 75.5 6t62.5 -48q11 19 22 37.5t22 38.5q-23 11 -47 31q-35 29 -53.5 61t-23 66t3 70t24.5 72q10 22 27.5 37t36.5 24.5t37.5 13t31 2.5t16.5 -7
t-5 -15q-23 -23 -43 -49.5t-33 -56.5t-17 -62.5t5 -66.5q10 -35 26.5 -52t37.5 -22q13 26 25 52.5t23 53.5q13 33 29 74t36.5 78.5t47 65.5t61.5 35q14 3 31 -3t33 -16.5t29 -23t19 -22.5q15 -27 12.5 -62t-14.5 -69.5t-30.5 -65t-35.5 -50.5q-41 -47 -89.5 -77.5
t-101.5 -35.5q-21 -40 -44.5 -79t-49.5 -77q10 -40 18 -65t16.5 -39.5t18 -20t22.5 -5.5q24 0 69.5 20.5t99.5 67.5q26 22 48 43t42 43.5t39 48t39 57.5zM652 655q-8 4 -19 -7.5t-24 -33t-27.5 -50t-28.5 -58.5t-26.5 -58.5t-21.5 -50.5q42 25 74 66.5t51.5 82.5t25 72.5
t-3.5 36.5zM105 8q10 -3 26.5 8t37.5 33t45.5 53.5t50.5 67.5q-13 26 -30.5 34t-48.5 -17q-22 -18 -46 -48q-26 -34 -35.5 -58.5t-10.5 -40t3.5 -23.5t7.5 -9z" />
    <glyph glyph-name="uni013C" unicode="&#x13c;" horiz-adv-x="239" 
d="M7 -202q-7 -9 -19 -14.5t-23 -6t-17 4t0 13.5q17 28 33.5 56.5t35.5 54.5q7 10 20 14t24.5 2.5t18 -6.5t1.5 -12q-9 -13 -20 -29t-21.5 -31t-19 -27.5t-13.5 -18.5zM392 737q8 9 25 4t34 -29q14 -20 13 -42.5t-11 -41.5q-5 -11 -28.5 -45.5t-59 -82.5t-80 -104
t-91.5 -110q-11 -14 -19 -24t-9 -12l-16 -24t-21.5 -33.5t-22 -38t-17 -38t-7.5 -33.5t7 -24q13 -15 39.5 -1.5t56.5 42t59 64t49 63.5q4 7 13.5 2t16 -17.5t6.5 -30.5t-14 -39q-35 -52 -71 -85t-69.5 -47.5t-62 -11t-49.5 24.5q-11 11 -17 22t-10 22q-11 29 -12 64.5
t15 67.5q11 22 37 65.5t59.5 97.5t71.5 113t73.5 111.5t65 93t46.5 57.5z" />
    <glyph glyph-name="Lcaron" unicode="&#x13d;" horiz-adv-x="674" 
d="M649 789q-12 23 -22.5 42.5t-21.5 42.5q-4 8 3 11t18 2t22 -6t16 -13q4 -7 14.5 -23t19.5 -32q19 0 39.5 0.5t30.5 -0.5q9 -1 18 -6t15 -11t6.5 -11t-7.5 -6q-26 -3 -53.5 -6.5t-53.5 -5.5q-12 -2 -25.5 4.5t-18.5 17.5zM779 300q8 13 17 8t13 -21.5t0 -41.5t-20 -50
q-30 -46 -70 -87.5t-85 -72.5t-92 -49t-91 -17.5t-82 22t-64 69.5q-27 -37 -61 -67t-80 -40q-26 -5 -52 3t-46.5 25t-32.5 40t-10 47q2 31 14.5 64.5t33.5 64.5t49 56t60 39q42 19 75.5 6t62.5 -48q11 19 22 37.5t22 38.5q-23 11 -47 31q-35 29 -53.5 61t-23 66t3 70
t24.5 72q10 22 27.5 37t36.5 24.5t37.5 13t31 2.5t16.5 -7t-5 -15q-23 -23 -43 -49.5t-33 -56.5t-17 -62.5t5 -66.5q10 -35 26.5 -52t37.5 -22q13 26 25 52.5t23 53.5q13 33 29 74t36.5 78.5t47 65.5t61.5 35q14 3 31 -3t33 -16.5t29 -23t19 -22.5q15 -27 12.5 -62
t-14.5 -69.5t-30.5 -65t-35.5 -50.5q-41 -47 -89.5 -77.5t-101.5 -35.5q-21 -40 -44.5 -79t-49.5 -77q10 -40 18 -65t16.5 -39.5t18 -20t22.5 -5.5q24 0 69.5 20.5t99.5 67.5q26 22 48 43t42 43.5t39 48t39 57.5zM652 655q-8 4 -19 -7.5t-24 -33t-27.5 -50t-28.5 -58.5
t-26.5 -58.5t-21.5 -50.5q42 25 74 66.5t51.5 82.5t25 72.5t-3.5 36.5zM105 8q10 -3 26.5 8t37.5 33t45.5 53.5t50.5 67.5q-13 26 -30.5 34t-48.5 -17q-22 -18 -46 -48q-26 -34 -35.5 -58.5t-10.5 -40t3.5 -23.5t7.5 -9z" />
    <glyph glyph-name="lcaron" unicode="&#x13e;" horiz-adv-x="238" 
d="M387 737q8 9 25 4t34 -29q14 -20 13 -42.5t-11 -41.5q-5 -11 -28.5 -45.5t-59 -82.5t-80 -104t-91.5 -110q-11 -14 -19 -24t-9 -12l-16 -24t-21.5 -33.5t-22 -38t-17 -38t-7.5 -33.5t7 -24q13 -15 39.5 -1.5t56.5 42t59 64t49 63.5q4 7 13.5 2t16 -17.5t6.5 -30.5
t-14 -39q-35 -52 -71 -85t-69.5 -47.5t-62 -11t-49.5 24.5q-11 11 -17 22t-10 22q-11 29 -12 64.5t15 67.5q11 22 37 65.5t59.5 97.5t71.5 113t73.5 111.5t65 93t46.5 57.5zM538 628q-7 -9 -19 -14.5t-23 -6t-17 4t0 13.5q17 28 33.5 56.5t35.5 54.5q7 10 20 14t24.5 2.5
t18 -6.5t1.5 -12q-9 -13 -20 -29t-21.5 -31t-19 -27.5t-13.5 -18.5z" />
    <glyph glyph-name="Ldot" unicode="&#x13f;" horiz-adv-x="674" 
d="M639 296q20 -13 23 -40t-14 -52q-8 -13 -19 -21.5t-23 -12.5t-24 -3t-22 8q-20 13 -23 40t14 52q16 26 42 34t46 -5zM779 300q8 13 17 8t13 -21.5t0 -41.5t-20 -50q-30 -46 -70 -87.5t-85 -72.5t-92 -49t-91 -17.5t-82 22t-64 69.5q-27 -37 -61 -67t-80 -40q-26 -5 -52 3
t-46.5 25t-32.5 40t-10 47q2 31 14.5 64.5t33.5 64.5t49 56t60 39q42 19 75.5 6t62.5 -48q11 19 22 37.5t22 38.5q-23 11 -47 31q-35 29 -53.5 61t-23 66t3 70t24.5 72q10 22 27.5 37t36.5 24.5t37.5 13t31 2.5t16.5 -7t-5 -15q-23 -23 -43 -49.5t-33 -56.5t-17 -62.5
t5 -66.5q10 -35 26.5 -52t37.5 -22q13 26 25 52.5t23 53.5q13 33 29 74t36.5 78.5t47 65.5t61.5 35q14 3 31 -3t33 -16.5t29 -23t19 -22.5q15 -27 12.5 -62t-14.5 -69.5t-30.5 -65t-35.5 -50.5q-41 -47 -89.5 -77.5t-101.5 -35.5q-21 -40 -44.5 -79t-49.5 -77q10 -40 18 -65
t16.5 -39.5t18 -20t22.5 -5.5q24 0 69.5 20.5t99.5 67.5q26 22 48 43t42 43.5t39 48t39 57.5zM652 655q-8 4 -19 -7.5t-24 -33t-27.5 -50t-28.5 -58.5t-26.5 -58.5t-21.5 -50.5q42 25 74 66.5t51.5 82.5t25 72.5t-3.5 36.5zM105 8q10 -3 26.5 8t37.5 33t45.5 53.5t50.5 67.5
q-13 26 -30.5 34t-48.5 -17q-22 -18 -46 -48q-26 -34 -35.5 -58.5t-10.5 -40t3.5 -23.5t7.5 -9z" />
    <glyph glyph-name="ldot" unicode="&#x140;" horiz-adv-x="357" 
d="M418 403q20 -13 23 -40t-14 -52q-8 -13 -19 -21.5t-23 -12.5t-24 -3t-22 8q-20 13 -23 40t14 52q16 26 42 34t46 -5zM387 737q8 9 25 4t34 -29q14 -20 13 -42.5t-11 -41.5q-5 -11 -28.5 -45.5t-59 -82.5t-80 -104t-91.5 -110q-11 -14 -19 -24t-9 -12l-16 -24t-21.5 -33.5
t-22 -38t-17 -38t-7.5 -33.5t7 -24q13 -15 39.5 -1.5t56.5 42t59 64t49 63.5q4 7 13.5 2t16 -17.5t6.5 -30.5t-14 -39q-35 -52 -71 -85t-69.5 -47.5t-62 -11t-49.5 24.5q-11 11 -17 22t-10 22q-11 29 -12 64.5t15 67.5q11 22 37 65.5t59.5 97.5t71.5 113t73.5 111.5t65 93
t46.5 57.5z" />
    <glyph glyph-name="Lslash" unicode="&#x141;" horiz-adv-x="674" 
d="M779 300q8 13 17 8t13 -21.5t0 -41.5t-20 -50q-30 -46 -70 -87.5t-85.5 -73t-92.5 -49.5t-91 -17.5t-82 22t-64 69.5q-28 -37 -61.5 -67t-80.5 -39q-26 -6 -52 2t-46 25t-32.5 40t-10.5 47q2 31 15 65t34 64.5t49 56t60 39.5q42 19 75.5 6t61.5 -48q11 17 21 35t20 35
l-6 -1q-15 -4 -33.5 4t-33 20t-19.5 23.5t7 14.5q22 6 57.5 14t73.5 16q8 17 15 34t15 34q13 33 29 74t36.5 78.5t47 65.5t61.5 35q14 3 31.5 -2.5t34 -15.5t29.5 -23t18 -24q13 -29 8.5 -75.5t-32.5 -94.5q-8 -14 -27.5 -25.5t-37.5 -16t-28 0.5t-1 24q22 46 34.5 78.5
t17.5 53t3.5 31t-6.5 13.5q-10 5 -25.5 -16t-34 -55t-37 -75t-34.5 -76q10 2 14 3q16 3 35.5 -6t34 -21t19 -23t-9.5 -12l-132 -28q-26 -52 -54.5 -100.5t-60.5 -96.5q10 -40 18 -65.5t16.5 -40t18 -20t22.5 -5.5q24 0 69.5 21t99.5 67q26 22 48.5 43.5t42.5 44t39 48
t39 57.5zM104 7q9 -3 26 8t38 33.5t45.5 54t49.5 67.5q-12 26 -29.5 34t-48.5 -17q-24 -18 -46 -48q-26 -34 -36 -58.5t-11 -40t3.5 -24t8.5 -9.5z" />
    <glyph glyph-name="lslash" unicode="&#x142;" horiz-adv-x="239" 
d="M392 737q8 9 25 4t34 -29q14 -20 13 -42.5t-11 -41.5q-5 -9 -22 -34.5t-43 -62t-60 -81t-71 -90.5q14 -5 27.5 -14.5t21.5 -18.5t8.5 -16t-9.5 -8l-118 -26l-21 -27l-16 -24t-21.5 -33.5t-22 -38t-17 -38t-7.5 -33.5t7 -24q13 -15 39.5 -1.5t56.5 42t59 64t49 63.5
q4 7 13.5 2t16 -17.5t6.5 -30.5t-14 -39q-35 -52 -71 -85t-69.5 -47.5t-62 -11t-49.5 24.5q-11 11 -17 22t-10 22q-11 29 -12 64.5t15 67.5l29 53q-7 2 -18.5 10t-20.5 18t-12 20.5t7 17.5t32.5 12.5t68.5 14.5q34 55 73.5 116.5t76.5 117t68 98t49 60.5z" />
    <glyph glyph-name="Nacute" unicode="&#x143;" horiz-adv-x="663" 
d="M609 767q-11 -3 -25.5 2t-25 12.5t-14 15.5t6.5 12q31 11 62 22.5t63 20.5q12 3 25.5 -3t23.5 -15.5t13 -19t-5 -11.5q-15 -5 -33.5 -10t-36 -10.5t-32 -9.5t-22.5 -6zM98 -55q-9 -8 -23.5 -3t-27 16t-19.5 24.5t-2 24.5q2 3 14.5 24.5t30.5 52t38 65t37 63.5
q25 44 56.5 92t63.5 95t61.5 90t51 77t31.5 56.5t4 27.5q-12 10 -32.5 0t-43 -29.5t-44 -43.5t-34.5 -43q-18 -25 -32 -47.5t-26 -45.5t-22.5 -47.5t-20.5 -52.5q-8 -20 -18.5 -13.5t-18.5 27.5t-10 52t9 61q31 85 79.5 138.5t98.5 79t93.5 25t63.5 -24.5q25 -30 28 -58
t-5 -53.5t-23 -49t-26 -42.5q-10 -18 -34 -56t-52.5 -83.5t-58 -91.5t-50.5 -79q67 64 134.5 132.5t133 137.5t127.5 137t116 131q6 7 21 3t30 -13.5t24.5 -21t5.5 -20.5q-65 -114 -134.5 -224t-132.5 -225q-8 -14 -20 -35.5t-25 -44.5t-24.5 -46.5t-17 -42.5t-4 -30.5
t15.5 -11.5q2 0 6.5 0.5t13 5t22 14.5t33.5 30q54 53 99.5 105t85.5 115q8 13 16.5 8t12.5 -21.5t0 -41t-20 -49.5q-32 -49 -68 -89.5t-72 -69.5t-68.5 -45t-56.5 -16q-37 0 -58 17.5t-29 44.5t-4.5 60t16.5 65q27 69 62 134t74 129q-110 -120 -224 -235t-228 -215z" />
    <glyph glyph-name="nacute" unicode="&#x144;" horiz-adv-x="433" 
d="M326 460q-11 -3 -25.5 2t-25 12.5t-14 15.5t6.5 12q31 11 62 22.5t63 20.5q12 3 25.5 -3t23.5 -15.5t13 -19t-5 -11.5q-15 -5 -33.5 -10t-36 -10.5t-32 -9.5t-22.5 -6zM-48 57q5 10 22 39.5t40 68t48.5 82t48.5 81t40 65.5t23 37q7 10 20.5 6t24.5 -17.5t16 -32.5t-4 -37
q-9 -19 -23 -44t-30 -53t-33 -56.5t-32 -53.5q38 37 78 76t77.5 77.5t71 73t59.5 62.5q7 9 24 6.5t32 -12t23 -23t-2 -27.5q-18 -26 -42.5 -60t-49 -70t-46 -70.5t-34.5 -61.5q-11 -23 -18 -41t1 -25q4 -4 24 6.5t49 34t63.5 60t68.5 85.5q5 8 14 3t15.5 -18t6.5 -32
t-13 -38q-47 -70 -95 -105t-89 -42t-71 10.5t-41 53.5q-4 13 -2.5 31t6.5 36.5t12 36.5t15 33l9 15q-32 -32 -65.5 -64.5t-64.5 -61t-57 -51.5t-43 -37q-7 -5 -22 -1.5t-29 12.5t-23 20.5t-3 22.5z" />
    <glyph glyph-name="uni0145" unicode="&#x145;" horiz-adv-x="663" 
d="M237 -202q-7 -9 -19 -14.5t-23 -6t-17 4t0 13.5q17 28 33.5 56.5t35.5 54.5q7 10 20 14t24.5 2.5t18 -6.5t1.5 -12q-9 -13 -20 -29t-21.5 -31t-19 -27.5t-13.5 -18.5zM98 -55q-9 -8 -23.5 -3t-27 16t-19.5 24.5t-2 24.5q2 3 14.5 24.5t30.5 52t38 65t37 63.5
q25 44 56.5 92t63.5 95t61.5 90t51 77t31.5 56.5t4 27.5q-12 10 -32.5 0t-43 -29.5t-44 -43.5t-34.5 -43q-18 -25 -32 -47.5t-26 -45.5t-22.5 -47.5t-20.5 -52.5q-8 -20 -18.5 -13.5t-18.5 27.5t-10 52t9 61q31 85 79.5 138.5t98.5 79t93.5 25t63.5 -24.5q25 -30 28 -58
t-5 -53.5t-23 -49t-26 -42.5q-10 -18 -34 -56t-52.5 -83.5t-58 -91.5t-50.5 -79q67 64 134.5 132.5t133 137.5t127.5 137t116 131q6 7 21 3t30 -13.5t24.5 -21t5.5 -20.5q-65 -114 -134.5 -224t-132.5 -225q-8 -14 -20 -35.5t-25 -44.5t-24.5 -46.5t-17 -42.5t-4 -30.5
t15.5 -11.5q2 0 6.5 0.5t13 5t22 14.5t33.5 30q54 53 99.5 105t85.5 115q8 13 16.5 8t12.5 -21.5t0 -41t-20 -49.5q-32 -49 -68 -89.5t-72 -69.5t-68.5 -45t-56.5 -16q-37 0 -58 17.5t-29 44.5t-4.5 60t16.5 65q27 69 62 134t74 129q-110 -120 -224 -235t-228 -215z" />
    <glyph glyph-name="uni0146" unicode="&#x146;" horiz-adv-x="433" 
d="M59 -202q-7 -9 -19 -14.5t-23 -6t-17 4t0 13.5q17 28 33.5 56.5t35.5 54.5q7 10 20 14t24.5 2.5t18 -6.5t1.5 -12q-9 -13 -20 -29t-21.5 -31t-19 -27.5t-13.5 -18.5zM-48 57q5 10 22 39.5t40 68t48.5 82t48.5 81t40 65.5t23 37q7 10 20.5 6t24.5 -17.5t16 -32.5t-4 -37
q-9 -19 -23 -44t-30 -53t-33 -56.5t-32 -53.5q38 37 78 76t77.5 77.5t71 73t59.5 62.5q7 9 24 6.5t32 -12t23 -23t-2 -27.5q-18 -26 -42.5 -60t-49 -70t-46 -70.5t-34.5 -61.5q-11 -23 -18 -41t1 -25q4 -4 24 6.5t49 34t63.5 60t68.5 85.5q5 8 14 3t15.5 -18t6.5 -32
t-13 -38q-47 -70 -95 -105t-89 -42t-71 10.5t-41 53.5q-4 13 -2.5 31t6.5 36.5t12 36.5t15 33l9 15q-32 -32 -65.5 -64.5t-64.5 -61t-57 -51.5t-43 -37q-7 -5 -22 -1.5t-29 12.5t-23 20.5t-3 22.5z" />
    </font>
</defs>
</svg>
