<svg id="SvgjsSvg1008" xmlns="http://www.w3.org/2000/svg" version="1.1" xmlns:xlink="http://www.w3.org/1999/xlink" xmlns:svgjs="http://svgjs.com/svgjs" width="39" height="35" viewBox="0 0 39 35"><title>heart</title><desc>Created with Avocode.</desc><defs id="SvgjsDefs1009"></defs><path id="SvgjsPath1010" d="M416.058 651.969C414.275 647.979 410.491 645.4000000000001 406.417 645.4000000000001C402.289 645.4000000000001 399.638 647.2350000000001 398.09999999999997 649.1930000000001C396.56199999999995 647.2350000000001 393.912 645.4000000000001 389.784 645.4000000000001C385.709 645.4000000000001 381.925 647.979 380.142 651.969C378.3 656.094 379.112 660.687 382.315 664.254C390.07 672.893 396.922 679.017 396.99 679.078C397.307 679.3589999999999 397.704 679.5 398.1 679.5C398.497 679.5 398.894 679.359 399.21000000000004 679.078C399.278 679.0169999999999 406.13000000000005 672.893 413.88500000000005 664.254C417.088 660.687 417.90000000000003 656.094 416.05800000000005 651.969ZM411.402 662.028C405.601 668.491 400.322 673.5160000000001 398.09999999999997 675.575C395.878 673.5160000000001 390.599 668.4910000000001 384.79799999999994 662.028C382.4649999999999 659.4300000000001 381.87899999999996 656.259 383.18799999999993 653.328C384.41599999999994 650.579 387.0659999999999 648.733 389.78399999999993 648.733C395.15799999999996 648.733 396.3639999999999 652.7249999999999 396.47999999999996 653.1659999999999C396.66299999999995 653.9119999999999 397.33199999999994 654.4369999999999 398.09999999999997 654.4369999999999C398.86799999999994 654.4369999999999 399.537 653.9119999999999 399.71999999999997 653.1659999999999C399.76399999999995 652.986 400.86899999999997 648.733 406.417 648.733C409.13399999999996 648.733 411.78499999999997 650.579 413.012 653.328C414.321 656.259 413.735 659.43 411.402 662.028ZM406.399 650.549C405.484 650.422 404.646 651.064 404.522 651.975C404.397 652.8870000000001 405.036 653.727 405.949 653.851C406.036 653.8629999999999 408.089 654.176 408.284 657.109C408.343 657.99 409.075 658.6650000000001 409.94599999999997 658.6650000000001C409.98299999999995 658.6650000000001 410.02099999999996 658.6640000000001 410.05899999999997 658.6610000000001C410.97799999999995 658.6 411.67299999999994 657.806 411.61199999999997 656.888C411.313 652.395 408.07099999999997 650.777 406.39899999999994 650.549ZM407.928 659.385C407.491 659.385 407.061 659.564 406.748 659.873C406.44 660.1800000000001 406.26099999999997 660.61 406.26099999999997 661.052C406.26099999999997 661.489 406.43999999999994 661.918 406.748 662.23C407.061 662.538 407.491 662.7180000000001 407.928 662.7180000000001C408.366 662.7180000000001 408.795 662.5380000000001 409.108 662.23C409.41700000000003 661.918 409.596 661.489 409.596 661.052C409.596 660.61 409.41700000000003 660.1800000000001 409.108 659.873C408.795 659.5640000000001 408.366 659.385 407.928 659.385Z " fill="#50c3af" fill-opacity="1" transform="matrix(1,0,0,1,-379,-645)"></path></svg>