<svg id="SvgjsSvg1014" xmlns="http://www.w3.org/2000/svg" version="1.1" xmlns:xlink="http://www.w3.org/1999/xlink" xmlns:svgjs="http://svgjs.com/svgjs" width="39" height="42" viewBox="0 0 39 42"><title>headset</title><desc>Created with Avocode.</desc><defs id="SvgjsDefs1015"></defs><path id="SvgjsPath1016" d="M617.762 647.408C614.241 643.826 609.539 641.833 604.521 641.794C594.175 641.6999999999999 585.6719999999999 650.091 585.593 660.467L585.507 671.711C585.5 672.6320000000001 586.2389999999999 673.384 587.159 673.391C587.163 673.391 587.168 673.391 587.172 673.391C588.086 673.391 588.83 672.6529999999999 588.837 671.736L588.923 660.4929999999999C588.988 651.996 595.909 645.1289999999999 604.375 645.1289999999999C604.415 645.1289999999999 604.455 645.1289999999999 604.496 645.1299999999999C608.6229999999999 645.1619999999999 612.492 646.8019999999999 615.389 649.7479999999999C618.285 652.6949999999999 619.863 656.5949999999999 619.831 660.7299999999999L619.745 671.973C619.738 672.895 620.478 673.6469999999999 621.398 673.655C621.402 673.655 621.4060000000001 673.655 621.4110000000001 673.655C622.3240000000001 673.655 623.0690000000001 672.9159999999999 623.076 671.999L623.1610000000001 660.755C623.2 655.729 621.282 650.989 617.7620000000001 647.408ZM610.386 660.874C610.382 660.874 610.379 660.874 610.375 660.874C609.576 660.874 608.924 661.5210000000001 608.918 662.323L608.775 681.029C608.769 681.835 609.4159999999999 682.493 610.22 682.5H610.33C610.331 682.5 610.33 682.5 610.331 682.5C616.101 682.5 617.654 678.905 617.669 677.005L617.749 666.484C617.75 666.33 617.732 664.946 616.749 663.57C615.881 662.356 614.072 660.903 610.386 660.874ZM614.755 676.956C614.737 677.34 614.5 679.0600000000001 611.7 679.485L611.82 663.9110000000001C614.6110000000001 664.379 614.8230000000001 666.0980000000001 614.835 666.461ZM598.689 660.785L598.5799999999999 660.784C592.809 660.784 591.256 664.379 591.242 666.28L591.161 676.8009999999999C591.16 676.9549999999999 591.178 678.3389999999999 592.1619999999999 679.7149999999999C593.03 680.9279999999999 594.838 682.381 598.5239999999999 682.41C598.5279999999999 682.41 598.5309999999998 682.41 598.5349999999999 682.41C599.3349999999998 682.41 599.9859999999999 681.764 599.9919999999998 680.961L600.1359999999999 662.256C600.1379999999998 661.869 599.9879999999998 661.496 599.7169999999999 661.22C599.4459999999999 660.9440000000001 599.0759999999999 660.788 598.6889999999999 660.7850000000001ZM597.09 679.373C594.3000000000001 678.9060000000001 594.087 677.187 594.075 676.8240000000001L594.1550000000001 666.3290000000001C594.1730000000001 665.946 594.4110000000001 664.225 597.21 663.7990000000001Z " fill="#50c3af" fill-opacity="1" transform="matrix(1,0,0,1,-585,-641)"></path></svg>