<svg id="SvgjsSvg1011" xmlns="http://www.w3.org/2000/svg" version="1.1" xmlns:xlink="http://www.w3.org/1999/xlink" xmlns:svgjs="http://svgjs.com/svgjs" width="43" height="31" viewBox="0 0 43 31"><title>user-group copy</title><desc>Created with Avocode.</desc><defs id="SvgjsDefs1012"></defs><path id="SvgjsPath1013" d="M188.546 670.869C193.85399999999998 670.869 198.172 666.547 198.172 661.235C198.172 655.922 193.85399999999998 651.6 188.546 651.6C183.239 651.6 178.921 655.922 178.921 661.235C178.921 666.547 183.239 670.869 188.546 670.869ZM188.546 654.935C192.017 654.935 194.84 657.761 194.84 661.2349999999999C194.84 664.7079999999999 192.017 667.5339999999999 188.546 667.5339999999999C185.076 667.5339999999999 182.253 664.7079999999999 182.253 661.2349999999999C182.253 657.7609999999999 185.076 654.935 188.546 654.935ZM192.956 671.228C192.411 671.053 191.813 671.173 191.37599999999998 671.544L188.54599999999996 673.9399999999999L185.71799999999996 671.544C185.27999999999997 671.173 184.68199999999996 671.053 184.13699999999997 671.228C181.36099999999996 672.1089999999999 172.29999999999998 675.367 172.29999999999998 680.232C172.29999999999998 681.153 173.046 681.9 173.96599999999998 681.9H203.12699999999998C204.04699999999997 681.9 204.79299999999998 681.153 204.79299999999998 680.232C204.79299999999998 675.367 195.73299999999998 672.1089999999999 192.956 671.228ZM176.781 678.564C178.365 677.223 181.356 675.7199999999999 184.281 674.6959999999999L187.47 677.3969999999999C188.092 677.9229999999999 189.002 677.9229999999999 189.62199999999999 677.3969999999999L192.813 674.6959999999999C195.737 675.7199999999999 198.72799999999998 677.223 200.31199999999998 678.564ZM208.575 671.118C207.958 670.812 207.20899999999997 671.065 206.902 671.6830000000001C206.595 672.3010000000002 206.84699999999998 673.0510000000002 207.464 673.3590000000002C208.484 673.8680000000002 210.302 675.0410000000002 211.188 676.2320000000002H206.74699999999999C206.05599999999998 676.2320000000002 205.49699999999999 676.7920000000001 205.49699999999999 677.4830000000002C205.49699999999999 678.1730000000002 206.05599999999998 678.7340000000002 206.74699999999999 678.7340000000002H212.951C213.641 678.7340000000002 214.2 678.1730000000001 214.2 677.4830000000002C214.2 674.0080000000002 209.15099999999998 671.4040000000002 208.575 671.1180000000002ZM202.382 668.985C201.36 668.985 200.398 668.587 199.67600000000002 667.863C199.18800000000002 667.374 198.39700000000002 667.374 197.90800000000002 667.8620000000001C197.42000000000002 668.3510000000001 197.42000000000002 669.143 197.90800000000002 669.6320000000001C199.103 670.8280000000001 200.692 671.4870000000001 202.382 671.4870000000001C205.871 671.4870000000001 208.709 668.6450000000001 208.709 665.152C208.709 661.6600000000001 205.871 658.8190000000001 202.382 658.8190000000001C201.53 658.8190000000001 200.701 658.9870000000001 199.92000000000002 659.3180000000001C199.28400000000002 659.5860000000001 198.98600000000002 660.32 199.25500000000002 660.9560000000001C199.52300000000002 661.5930000000001 200.25700000000003 661.8910000000001 200.89200000000002 661.6220000000002C201.36400000000003 661.4230000000002 201.866 661.3210000000001 202.38200000000003 661.3210000000001C204.49300000000002 661.3210000000001 206.21000000000004 663.0400000000002 206.21000000000004 665.1520000000002C206.21000000000004 667.2660000000002 204.49300000000002 668.9850000000001 202.38200000000003 668.9850000000001Z " fill="#50c3af" fill-opacity="1" transform="matrix(1,0,0,1,-172,-651)"></path></svg>